  0
SECTION
  2
HEADER
  9
$ACADVER
  1
AC1015
  9
$ACADMAINTVER
 70
     6
  9
$DWGCODEPAGE
  3
ANSI_1252
  9
$INSBASE
 10
0.0
 20
0.0
 30
0.0
  9
$EXTMIN
 10
0.0
 20
0.0
 30
0.0
  9
$EXTMAX
 10
24.0
 20
12.0
 30
0.0
  9
$LIMMIN
 10
0.0
 20
0.0
  9
$LIMMAX
 10
24.0
 20
12.0
  9
$ORTHOMODE
 70
     0
  9
$REGENMODE
 70
     1
  9
$FILLMODE
 70
     1
  9
$QTEXTMODE
 70
     0
  9
$MIRRTEXT
 70
     1
  9
$LTSCALE
 40
1.0
  9
$ATTMODE
 70
     1
  9
$TEXTSIZE
 40
0.125
  9
$TRACEWID
 40
0.05
  9
$TEXTSTYLE
  7
Standard
  9
$CLAYER
  8
0
  9
$CELTYPE
  6
ByLayer
  9
$CECOLOR
 62
   256
  9
$CELTSCALE
 40
1.0
  9
$DISPSILH
 70
     0
  9
$DIMSCALE
 40
1.0
  9
$DIMASZ
 40
0.13
  9
$DIMEXO
 40
0.05
  9
$DIMDLI
 40
0.38
  9
$DIMRND
 40
0.0
  9
$DIMDLE
 40
0.0
  9
$DIMEXE
 40
0.125
  9
$DIMTP
 40
0.0
  9
$DIMTM
 40
0.0
  9
$DIMTXT
 40
0.125
  9
$DIMCEN
 40
0.09
  9
$DIMTSZ
 40
0.0
  9
$DIMTOL
 70
     0
  9
$DIMLIM
 70
     0
  9
$DIMTIH
 70
     1
  9
$DIMTOH
 70
     1
  9
$DIMSE1
 70
     0
  9
$DIMSE2
 70
     0
  9
$DIMTAD
 70
     0
  9
$DIMZIN
 70
     0
  9
$DIMBLK
  1

  9
$DIMASO
 70
     1
  9
$DIMSHO
 70
     1
  9
$DIMPOST
  1

  9
$DIMAPOST
  1

  9
$DIMALT
 70
     0
  9
$DIMALTD
 70
     2
  9
$DIMALTF
 40
25.4
  9
$DIMLFAC
 40
1.0
  9
$DIMTOFL
 70
     0
  9
$DIMTVP
 40
0.0
  9
$DIMTIX
 70
     0
  9
$DIMSOXD
 70
     0
  9
$DIMSAH
 70
     0
  9
$DIMBLK1
  1

  9
$DIMBLK2
  1

  9
$DIMSTYLE
  2
Standard
  9
$DIMCLRD
 70
     0
  9
$DIMCLRE
 70
     0
  9
$DIMCLRT
 70
     0
  9
$DIMTFAC
 40
1.0
  9
$DIMGAP
 40
0.06
  9
$DIMJUST
 70
     0
  9
$DIMSD1
 70
     0
  9
$DIMSD2
 70
     0
  9
$DIMTOLJ
 70
     1
  9
$DIMTZIN
 70
     0
  9
$DIMALTZ
 70
     0
  9
$DIMALTTZ
 70
     0
  9
$DIMUPT
 70
     0
  9
$DIMDEC
 70
     3
  9
$DIMTDEC
 70
     3
  9
$DIMALTU
 70
     2
  9
$DIMALTTD
 70
     2
  9
$DIMTXSTY
  7
Standard
  9
$DIMAUNIT
 70
     0
  9
$DIMADEC
 70
     2
  9
$DIMALTRND
 40
0.0
  9
$DIMAZIN
 70
     0
  9
$DIMDSEP
 70
    46
  9
$DIMATFIT
 70
     3
  9
$DIMFRAC
 70
     0
  9
$DIMLDRBLK
  1

  9
$DIMLUNIT
 70
     2
  9
$DIMLWD
 70
    -2
  9
$DIMLWE
 70
    -2
  9
$DIMTMOVE
 70
     0
  9
$LUNITS
 70
     2
  9
$LUPREC
 70
     2
  9
$SKETCHINC
 40
0.1
  9
$FILLETRAD
 40
0.5
  9
$AUNITS
 70
     0
  9
$AUPREC
 70
     2
  9
$MENU
  1
.
  9
$ELEVATION
 40
0.0
  9
$PELEVATION
 40
0.0
  9
$THICKNESS
 40
0.0
  9
$LIMCHECK
 70
     0
  9
$CHAMFERA
 40
0.5
  9
$CHAMFERB
 40
0.5
  9
$CHAMFERC
 40
1.0
  9
$CHAMFERD
 40
0.0
  9
$SKPOLY
 70
     0
  9
$TDCREATE
 40
2456121.597569236
  9
$TDUCREATE
 40
2456121.889235903
  9
$TDUPDATE
 40
2456121.597569248
  9
$TDUUPDATE
 40
2456121.889235914
  9
$TDINDWG
 40
0.0000000116
  9
$TDUSRTIMER
 40
0.0000000116
  9
$USRTIMER
 70
     1
  9
$ANGBASE
 50
0.0
  9
$ANGDIR
 70
     0
  9
$PDMODE
 70
     0
  9
$PDSIZE
 40
-1.0
  9
$PLINEWID
 40
0.0
  9
$SPLFRAME
 70
     0
  9
$SPLINETYPE
 70
     6
  9
$SPLINESEGS
 70
     8
  9
$HANDSEED
  5
174
  9
$SURFTAB1
 70
     6
  9
$SURFTAB2
 70
     6
  9
$SURFTYPE
 70
     6
  9
$SURFU
 70
     6
  9
$SURFV
 70
     6
  9
$UCSBASE
  2

  9
$UCSNAME
  2

  9
$UCSORG
 10
0.0
 20
0.0
 30
0.0
  9
$UCSXDIR
 10
1.0
 20
0.0
 30
0.0
  9
$UCSYDIR
 10
0.0
 20
1.0
 30
0.0
  9
$UCSORTHOREF
  2

  9
$UCSORTHOVIEW
 70
     0
  9
$UCSORGTOP
 10
0.0
 20
0.0
 30
0.0
  9
$UCSORGBOTTOM
 10
0.0
 20
0.0
 30
0.0
  9
$UCSORGLEFT
 10
0.0
 20
0.0
 30
0.0
  9
$UCSORGRIGHT
 10
0.0
 20
0.0
 30
0.0
  9
$UCSORGFRONT
 10
0.0
 20
0.0
 30
0.0
  9
$UCSORGBACK
 10
0.0
 20
0.0
 30
0.0
  9
$PUCSBASE
  2

  9
$PUCSNAME
  2

  9
$PUCSORG
 10
0.0
 20
0.0
 30
0.0
  9
$PUCSXDIR
 10
1.0
 20
0.0
 30
0.0
  9
$PUCSYDIR
 10
0.0
 20
1.0
 30
0.0
  9
$PUCSORTHOREF
  2

  9
$PUCSORTHOVIEW
 70
     0
  9
$PUCSORGTOP
 10
0.0
 20
0.0
 30
0.0
  9
$PUCSORGBOTTOM
 10
0.0
 20
0.0
 30
0.0
  9
$PUCSORGLEFT
 10
0.0
 20
0.0
 30
0.0
  9
$PUCSORGRIGHT
 10
0.0
 20
0.0
 30
0.0
  9
$PUCSORGFRONT
 10
0.0
 20
0.0
 30
0.0
  9
$PUCSORGBACK
 10
0.0
 20
0.0
 30
0.0
  9
$USERI1
 70
     0
  9
$USERI2
 70
     0
  9
$USERI3
 70
     0
  9
$USERI4
 70
     0
  9
$USERI5
 70
     0
  9
$USERR1
 40
0.0
  9
$USERR2
 40
0.0
  9
$USERR3
 40
0.0
  9
$USERR4
 40
0.0
  9
$USERR5
 40
0.0
  9
$WORLDVIEW
 70
     1
  9
$SHADEDGE
 70
     3
  9
$SHADEDIF
 70
    70
  9
$TILEMODE
 70
     1
  9
$MAXACTVP
 70
    64
  9
$PINSBASE
 10
0.0
 20
0.0
 30
0.0
  9
$PLIMCHECK
 70
     0
  9
$PEXTMIN
 10
1.0000000000E+20
 20
1.0000000000E+20
 30
1.0000000000E+20
  9
$PEXTMAX
 10
-1.0000000000E+20
 20
-1.0000000000E+20
 30
-1.0000000000E+20
  9
$PLIMMIN
 10
0.0
 20
0.0
  9
$PLIMMAX
 10
12.0
 20
9.0
  9
$UNITMODE
 70
     0
  9
$VISRETAIN
 70
     1
  9
$PLINEGEN
 70
     0
  9
$PSLTSCALE
 70
     1
  9
$TREEDEPTH
 70
  3020
  9
$CMLSTYLE
  2
Standard
  9
$CMLJUST
 70
     0
  9
$CMLSCALE
 40
1.0
  9
$PROXYGRAPHICS
 70
     1
  9
$MEASUREMENT
 70
     0
  9
$CELWEIGHT
370
    -1
  9
$ENDCAPS
280
     0
  9
$JOINSTYLE
280
     0
  9
$LWDISPLAY
290
     1
  9
$INSUNITS
 70
     1
  9
$HYPERLINKBASE
  1

  9
$STYLESHEET
  1

  9
$XEDIT
290
     1
  9
$CEPSNTYPE
380
     0
  9
$PSTYLEMODE
290
     1
  9
$FINGERPRINTGUID
  2
{DD73A72A-4AC7-4E9F-AF03-64462227B515}
  9
$VERSIONGUID
  2
{FAEB1C32-E019-11D5-929B-00C0DF256EC4}
  9
$EXTNAMES
290
     1
  9
$PSVPSCALE
 40
0.0
  9
$OLESTARTUP
290
     0
  0
ENDSEC
  0
SECTION
  2
CLASSES
  0
CLASS
  1
ACDBDICTIONARYWDFLT
  2
AcDbDictionaryWithDefault
  3
ObjectDBX Classes
 90
        0
280
     0
281
     0
  0
CLASS
  1
VISUALSTYLE
  2
AcDbVisualStyle
  3
ObjectDBX Classes
 90
     4095
280
     0
281
     0
  0
CLASS
  1
MATERIAL
  2
AcDbMaterial
  3
ObjectDBX Classes
 90
     1153
280
     0
281
     0
  0
CLASS
  1
ACDBPLACEHOLDER
  2
AcDbPlaceHolder
  3
ObjectDBX Classes
 90
        0
280
     0
281
     0
  0
CLASS
  1
LAYOUT
  2
AcDbLayout
  3
ObjectDBX Classes
 90
        0
280
     0
281
     0
  0
ENDSEC
  0
SECTION
  2
TABLES
  0
TABLE
  2
VPORT
  5
8
330
0
100
AcDbSymbolTable
 70
     1
  0
VPORT
  5
29
330
8
100
AcDbSymbolTableRecord
100
AcDbViewportTableRecord
  2
*Active
 70
     0
 10
0.0
 20
0.0
 11
1.0
 21
1.0
 12
12.0
 22
6.0
 13
0.0
 23
0.0
 14
0.5
 24
0.5
 15
0.5
 25
0.5
 16
0.0
 26
0.0
 36
1.0
 17
0.0
 27
0.0
 37
0.0
 40
12.0
 41
2.0
 42
50.0
 43
0.0
 44
0.0
 50
0.0
 51
0.0
 71
     0
 72
  2000
 73
     1
 74
     3
 75
     0
 76
     0
 77
     0
 78
     0
281
     0
 65
     1
110
0.0
120
0.0
130
0.0
111
1.0
121
0.0
131
0.0
112
0.0
122
1.0
132
0.0
 79
     0
146
0.0
  0
ENDTAB
  0
TABLE
  2
LTYPE
  5
5
330
0
100
AcDbSymbolTable
 70
     6
  0
LTYPE
  5
14
330
5
100
AcDbSymbolTableRecord
100
AcDbLinetypeTableRecord
  2
ByBlock
 70
     0
  3

 72
    65
 73
     0
 40
0.0
  0
LTYPE
  5
15
330
5
100
AcDbSymbolTableRecord
100
AcDbLinetypeTableRecord
  2
ByLayer
 70
     0
  3

 72
    65
 73
     0
 40
0.0
  0
LTYPE
  5
16
330
5
100
AcDbSymbolTableRecord
100
AcDbLinetypeTableRecord
  2
Continuous
 70
     0
  3
Solid line
 72
    65
 73
     0
 40
0.0
  0
LTYPE
  5
3F
330
5
100
AcDbSymbolTableRecord
100
AcDbLinetypeTableRecord
  2
HIDDEN
 70
     0
  3
Hidden __ __ __ __ __ __ __ __ __ __ __ __ __ __
 72
    65
 73
     2
 40
0.075
 49
0.05
 74
     0
 49
-0.025
 74
     0
  0
LTYPE
  5
40
330
5
100
AcDbSymbolTableRecord
100
AcDbLinetypeTableRecord
  2
PHANTOM
 70
     0
  3
Phantom ______  __  __  ______  __  __  ______
 72
    65
 73
     6
 40
0.5
 49
0.25
 74
     0
 49
-0.05
 74
     0
 49
0.05
 74
     0
 49
-0.05
 74
     0
 49
0.05
 74
     0
 49
-0.05
 74
     0
  0
LTYPE
  5
41
330
5
100
AcDbSymbolTableRecord
100
AcDbLinetypeTableRecord
  2
CENTER
 70
     0
  3
Center ____ _ ____ _ ____ _ ____ _ ____ _ ____
 72
    65
 73
     4
 40
0.4
 49
0.25
 74
     0
 49
-0.05
 74
     0
 49
0.05
 74
     0
 49
-0.05
 74
     0
  0
LTYPE
  5
42
330
5
100
AcDbSymbolTableRecord
100
AcDbLinetypeTableRecord
  2
CENTERX2
 70
     0
  3
Center (2x) ________  __  ________  __  _____
 72
    65
 73
     4
 40
0.8
 49
0.5
 74
     0
 49
-0.1
 74
     0
 49
0.1
 74
     0
 49
-0.1
 74
     0
  0
LTYPE
  5
43
330
5
100
AcDbSymbolTableRecord
100
AcDbLinetypeTableRecord
  2
DOT2
 70
     0
  3
Dot (.5x) ........................................
 72
    65
 73
     2
 40
0.025
 49
0.0
 74
     0
 49
-0.025
 74
     0
  0
ENDTAB
  0
TABLE
  2
LAYER
  5
2
330
0
100
AcDbSymbolTable
 70
     1
  0
LAYER
  5
10
330
2
100
AcDbSymbolTableRecord
100
AcDbLayerTableRecord
  2
0
 70
     0
 62
     7
  6
Continuous
370
    -3
390
F
  0
ENDTAB
  0
TABLE
  2
STYLE
  5
3
330
0
100
AcDbSymbolTable
 70
     1
  0
STYLE
  5
11
330
3
100
AcDbSymbolTableRecord
100
AcDbTextStyleTableRecord
  2
Standard
 70
     0
 40
0.0
 41
1.0
 50
0.0
 71
     0
 42
0.2
  3
txt
  4

  0
ENDTAB
  0
TABLE
  2
VIEW
  5
6
330
0
100
AcDbSymbolTable
 70
     0
  0
ENDTAB
  0
TABLE
  2
UCS
  5
7
330
0
100
AcDbSymbolTable
 70
     0
  0
ENDTAB
  0
TABLE
  2
APPID
  5
9
330
0
100
AcDbSymbolTable
 70
     1
  0
APPID
  5
12
330
9
100
AcDbSymbolTableRecord
100
AcDbRegAppTableRecord
  2
ACAD
 70
     0
  0
ENDTAB
  0
TABLE
  2
DIMSTYLE
  5
A
330
0
100
AcDbSymbolTable
 70
     1
100
AcDbDimStyleTable
  0
DIMSTYLE
105
27
330
A
100
AcDbSymbolTableRecord
100
AcDbDimStyleTableRecord
  2
Standard
 70
     0
178
     0
340
11
  0
ENDTAB
  0
TABLE
  2
BLOCK_RECORD
  5
1
330
0
100
AcDbSymbolTable
 70
     1
  0
BLOCK_RECORD
  5
1F
330
1
100
AcDbSymbolTableRecord
100
AcDbBlockTableRecord
  2
*Model_Space
340
22
  0
BLOCK_RECORD
  5
1B
330
1
100
AcDbSymbolTableRecord
100
AcDbBlockTableRecord
  2
*Paper_Space
340
1E
  0
BLOCK_RECORD
  5
23
330
1
100
AcDbSymbolTableRecord
100
AcDbBlockTableRecord
  2
*Paper_Space0
340
26
  0
ENDTAB
  0
ENDSEC
  0
SECTION
  2
BLOCKS
  0
BLOCK
  5
20
330
1F
100
AcDbEntity
  8
0
100
AcDbBlockBegin
  2
*Model_Space
 70
     0
 10
0.0
 20
0.0
 30
0.0
  3
*Model_Space
  1

  0
ENDBLK
  5
21
330
1F
100
AcDbEntity
  8
0
100
AcDbBlockEnd
  0
BLOCK
  5
1C
330
1B
100
AcDbEntity
 67
     1
  8
0
100
AcDbBlockBegin
  2
*Paper_Space
 70
     0
 10
0.0
 20
0.0
 30
0.0
  3
*Paper_Space
  1

  0
ENDBLK
  5
1D
330
1B
100
AcDbEntity
 67
     1
  8
0
100
AcDbBlockEnd
  0
BLOCK
  5
24
330
23
100
AcDbEntity
  8
0
100
AcDbBlockBegin
  2
*Paper_Space0
 70
     0
 10
0.0
 20
0.0
 30
0.0
  3
*Paper_Space0
  1

  0
ENDBLK
  5
25
330
23
100
AcDbEntity
  8
0
100
AcDbBlockEnd
  0
ENDSEC
  0
SECTION
  2
ENTITIES
  0
CIRCLE
  5
44
330
1F
100
AcDbEntity
  8
0
  6
Continuous
 62
     7
370
    15
100
AcDbCircle
 10
1.7933772048
 20
5.4720483861
 30
0.0
 40
0.0425
  0
CIRCLE
  5
45
330
1F
100
AcDbEntity
  8
0
  6
Continuous
 62
     7
370
    15
100
AcDbCircle
 10
2.4232984646
 20
6.5271664964
 30
0.0
 40
0.0424999999999995
  0
CIRCLE
  5
46
330
1F
100
AcDbEntity
  8
0
  6
Continuous
 62
     7
370
    15
100
AcDbCircle
 10
0.6950809964
 20
7.0184241333
 30
0.0
 40
0.0979999999999999
  0
CIRCLE
  5
47
330
1F
100
AcDbEntity
  8
0
  6
Continuous
 62
     7
370
    15
100
AcDbCircle
 10
1.6950809964
 20
7.0184241333
 30
0.0
 40
0.0980000000000001
  0
CIRCLE
  5
48
330
1F
100
AcDbEntity
  8
0
  6
Continuous
 62
     7
370
    15
100
AcDbCircle
 10
1.7675645613
 20
8.6306627206
 30
0.0
 40
0.0979999999999999
  0
CIRCLE
  5
49
330
1F
100
AcDbEntity
  8
0
  6
Continuous
 62
     7
370
    15
100
AcDbCircle
 10
2.7675645613
 20
8.6306627206
 30
0.0
 40
0.0979999999999999
  0
CIRCLE
  5
4A
330
1F
100
AcDbEntity
  8
0
  6
Continuous
 62
     7
370
    15
100
AcDbCircle
 10
3.7675645613
 20
8.6306627206
 30
0.0
 40
0.0979999999999999
  0
CIRCLE
  5
4B
330
1F
100
AcDbEntity
  8
0
  6
Continuous
 62
     7
370
    15
100
AcDbCircle
 10
2.8400481262
 20
10.242901308
 30
0.0
 40
0.0979999999999999
  0
CIRCLE
  5
4C
330
1F
100
AcDbEntity
  8
0
  6
Continuous
 62
     7
370
    15
100
AcDbCircle
 10
4.3038063437
 20
9.4367820143
 30
0.0
 40
0.0979999999999999
  0
CIRCLE
  5
4D
330
1F
100
AcDbEntity
  8
0
  6
Continuous
 62
     7
370
    15
100
AcDbCircle
 10
3.3762899086
 20
11.0490206016
 30
0.0
 40
0.0979999999999999
  0
CIRCLE
  5
4E
330
1F
100
AcDbEntity
  8
0
  6
Continuous
 62
     7
370
    15
100
AcDbCircle
 10
1.6950809964
 20
4.9807907493
 30
0.0
 40
0.0980000000000001
  0
CIRCLE
  5
4F
330
1F
100
AcDbEntity
  8
0
  6
Continuous
 62
     7
370
    15
100
AcDbCircle
 10
1.7675645613
 20
3.3685521619
 30
0.0
 40
0.0979999999999999
  0
CIRCLE
  5
50
330
1F
100
AcDbEntity
  8
0
  6
Continuous
 62
     7
370
    15
100
AcDbCircle
 10
2.7675645613
 20
3.3685521619
 30
0.0
 40
0.0979999999999999
  0
CIRCLE
  5
51
330
1F
100
AcDbEntity
  8
0
  6
Continuous
 62
     7
370
    15
100
AcDbCircle
 10
3.7675645613
 20
3.3685521619
 30
0.0
 40
0.0979999999999999
  0
CIRCLE
  5
52
330
1F
100
AcDbEntity
  8
0
  6
Continuous
 62
     7
370
    15
100
AcDbCircle
 10
2.8400481262
 20
1.7563135746
 30
0.0
 40
0.0979999999999999
  0
CIRCLE
  5
53
330
1F
100
AcDbEntity
  8
0
  6
Continuous
 62
     7
370
    15
100
AcDbCircle
 10
4.3038063437
 20
2.5624328682
 30
0.0
 40
0.0979999999999999
  0
ARC
  5
54
330
1F
100
AcDbEntity
  8
0
  6
Continuous
 62
     7
370
    15
100
AcDbCircle
 10
3.3421640784
 20
10.8993699079
 30
0.0
 40
0.5000000000000009
100
AcDbArc
 50
29.7438975587
 51
124.5643537333
  0
LINE
  5
55
330
1F
100
AcDbEntity
  8
0
  6
Continuous
 62
     7
370
    15
100
AcDbLine
 10
5.0242296488
 20
8.9634503304
 30
0.0
 11
3.7762899086
 21
11.1474319234
 31
0.0
  0
ARC
  5
56
330
1F
100
AcDbEntity
  8
0
  6
Continuous
 62
     7
370
    15
100
AcDbCircle
 10
4.5901038186
 20
8.7153883149
 30
0.0
 40
0.5000000000000002
100
AcDbArc
 50
308.076980555
 51
29.7438975587
  0
ARC
  5
57
330
1F
100
AcDbEntity
  8
0
  6
Continuous
 62
     7
370
    15
100
AcDbCircle
 10
6.7177866536
 20
5.9996074413
 30
0.0
 40
2.95
100
AcDbArc
 50
128.076980555
 51
231.923019445
  0
ARC
  5
58
330
1F
100
AcDbEntity
  8
0
  6
Continuous
 62
     7
370
    15
100
AcDbCircle
 10
4.5901038186
 20
3.2838265676
 30
0.0
 40
0.5000000000000009
100
AcDbArc
 50
330.2561024413
 51
51.923019445
  0
LINE
  5
59
330
1F
100
AcDbEntity
  8
0
  6
Continuous
 62
     7
370
    15
100
AcDbLine
 10
3.7762899086
 20
0.8517829591
 30
0.0
 11
5.0242296488
 21
3.0357645521
 31
0.0
  0
ARC
  5
5A
330
1F
100
AcDbEntity
  8
0
  6
Continuous
 62
     7
370
    15
100
AcDbCircle
 10
3.3421640784
 20
1.0998449746
 30
0.0
 40
0.5000000000000008
100
AcDbArc
 50
235.4356462667
 51
330.2561024413
  0
ARC
  5
5B
330
1F
100
AcDbEntity
  8
0
  6
Continuous
 62
     7
370
    15
100
AcDbCircle
 10
6.7177866536
 20
5.9996074413
 30
0.0
 40
6.45
100
AcDbArc
 50
124.5643537333
 51
235.4356462667
  0
CIRCLE
  5
5C
330
1F
100
AcDbEntity
  8
0
  6
Continuous
 62
     7
370
    15
100
AcDbCircle
 10
1.7677866536
 20
7.9996074413
 30
0.0
 40
0.0719999999999996
  0
CIRCLE
  5
5D
330
1F
100
AcDbEntity
  8
0
  6
Continuous
 62
     7
370
    15
100
AcDbCircle
 10
1.7677866536
 20
3.9996074413
 30
0.0
 40
0.0719999999999996
  0
CIRCLE
  5
5E
330
1F
100
AcDbEntity
  8
0
  6
Continuous
 62
     7
370
    15
100
AcDbCircle
 10
1.4677866536
 20
4.6413397247
 30
0.0
 40
0.0579999999999992
  0
CIRCLE
  5
5F
330
1F
100
AcDbEntity
  8
0
  6
Continuous
 62
     7
370
    15
100
AcDbCircle
 10
1.4677866536
 20
7.3578751578
 30
0.0
 40
0.0579999999999992
  0
CIRCLE
  5
60
330
1F
100
AcDbEntity
  8
0
  6
Continuous
 62
     7
370
    15
100
AcDbCircle
 10
3.3762899086
 20
0.9501942809
 30
0.0
 40
0.0979999999999999
  0
CIRCLE
  5
61
330
1F
100
AcDbEntity
  8
0
  6
Continuous
 62
     7
370
    15
100
AcDbCircle
 10
3.8400481262
 20
1.7563135746
 30
0.0
 40
0.0979999999999999
  0
CIRCLE
  5
62
330
1F
100
AcDbEntity
  8
0
  6
Continuous
 62
     7
370
    15
100
AcDbCircle
 10
4.7675645613
 20
3.3685521619
 30
0.0
 40
0.0980000000000008
  0
CIRCLE
  5
63
330
1F
100
AcDbEntity
  8
0
  6
Continuous
 62
     7
370
    15
100
AcDbCircle
 10
3.3038063437
 20
2.5624328682
 30
0.0
 40
0.0979999999999999
  0
CIRCLE
  5
64
330
1F
100
AcDbEntity
  8
0
  6
Continuous
 62
     7
370
    15
100
AcDbCircle
 10
2.3038063437
 20
2.5624328682
 30
0.0
 40
0.0979999999999999
  0
CIRCLE
  5
65
330
1F
100
AcDbEntity
  8
0
  6
Continuous
 62
     7
370
    15
100
AcDbCircle
 10
3.6950809964
 20
4.9807907493
 30
0.0
 40
0.0979999999999999
  0
CIRCLE
  5
66
330
1F
100
AcDbEntity
  8
0
  6
Continuous
 62
     7
370
    15
100
AcDbCircle
 10
2.6950809964
 20
4.9807907493
 30
0.0
 40
0.0979999999999999
  0
CIRCLE
  5
67
330
1F
100
AcDbEntity
  8
0
  6
Continuous
 62
     7
370
    15
100
AcDbCircle
 10
0.6950809964
 20
4.9807907493
 30
0.0
 40
0.0979999999999999
  0
CIRCLE
  5
68
330
1F
100
AcDbEntity
  8
0
  6
Continuous
 62
     7
370
    15
100
AcDbCircle
 10
3.8400481262
 20
10.242901308
 30
0.0
 40
0.0979999999999999
  0
CIRCLE
  5
69
330
1F
100
AcDbEntity
  8
0
  6
Continuous
 62
     7
370
    15
100
AcDbCircle
 10
4.7675645613
 20
8.6306627206
 30
0.0
 40
0.0980000000000008
  0
CIRCLE
  5
6A
330
1F
100
AcDbEntity
  8
0
  6
Continuous
 62
     7
370
    15
100
AcDbCircle
 10
3.3038063437
 20
9.4367820143
 30
0.0
 40
0.0979999999999999
  0
CIRCLE
  5
6B
330
1F
100
AcDbEntity
  8
0
  6
Continuous
 62
     7
370
    15
100
AcDbCircle
 10
2.3038063437
 20
9.4367820143
 30
0.0
 40
0.0979999999999999
  0
CIRCLE
  5
6C
330
1F
100
AcDbEntity
  8
0
  6
Continuous
 62
     7
370
    15
100
AcDbCircle
 10
3.6950809964
 20
7.0184241333
 30
0.0
 40
0.0979999999999999
  0
CIRCLE
  5
6D
330
1F
100
AcDbEntity
  8
0
  6
Continuous
 62
     7
370
    15
100
AcDbCircle
 10
2.6950809964
 20
7.0184241333
 30
0.0
 40
0.0979999999999999
  0
LINE
  5
6E
330
1F
100
AcDbEntity
  8
0
  6
Continuous
 62
     7
370
    15
100
AcDbLine
 10
2.9547945276
 20
5.5665365751
 30
0.0
 11
2.9547945276
 21
6.4326783074
 31
0.0
  0
LINE
  5
6F
330
1F
100
AcDbEntity
  8
0
  6
Continuous
 62
     7
370
    15
100
AcDbLine
 10
2.9547945276
 20
6.4326783074
 30
0.0
 11
1.0807787796
 21
6.4326783074
 31
0.0
  0
LINE
  5
70
330
1F
100
AcDbEntity
  8
0
  6
Continuous
 62
     7
370
    15
100
AcDbLine
 10
1.0807787796
 20
6.4326783074
 30
0.0
 11
1.0807787796
 21
5.5665365751
 31
0.0
  0
LINE
  5
71
330
1F
100
AcDbEntity
  8
0
  6
Continuous
 62
     7
370
    15
100
AcDbLine
 10
1.0807787796
 20
5.5665365751
 30
0.0
 11
2.9547945276
 21
5.5665365751
 31
0.0
  0
CIRCLE
  5
72
330
1F
100
AcDbEntity
  8
0
  6
Continuous
 62
     7
370
    15
100
AcDbCircle
 10
1.7933772048
 20
6.5271664964
 30
0.0
 40
0.0425
  0
CIRCLE
  5
73
330
1F
100
AcDbEntity
  8
0
  6
Continuous
 62
     7
370
    15
100
AcDbCircle
 10
2.1083378347
 20
6.5271664964
 30
0.0
 40
0.0424999999999995
  0
CIRCLE
  5
74
330
1F
100
AcDbEntity
  8
0
  6
Continuous
 62
     7
370
    15
100
AcDbCircle
 10
2.7382590945
 20
6.5271664964
 30
0.0
 40
0.0425
  0
CIRCLE
  5
75
330
1F
100
AcDbEntity
  8
0
  6
Continuous
 62
     7
370
    15
100
AcDbCircle
 10
2.7382590945
 20
5.4720483861
 30
0.0
 40
0.0425
  0
CIRCLE
  5
76
330
1F
100
AcDbEntity
  8
0
  6
Continuous
 62
     7
370
    15
100
AcDbCircle
 10
2.4232984646
 20
5.4720483861
 30
0.0
 40
0.0424999999999995
  0
CIRCLE
  5
77
330
1F
100
AcDbEntity
  8
0
  6
Continuous
 62
     7
370
    15
100
AcDbCircle
 10
2.1083378347
 20
5.4720483861
 30
0.0
 40
0.0424999999999995
  0
SPLINE
  5
78
330
1F
100
AcDbEntity
  8
0
  6
Continuous
 62
     7
370
    15
100
AcDbSpline
210
0.0
220
0.0
230
1.0
 70
     8
 71
     3
 72
    15
 73
    11
 74
     0
 42
0.00000001
 43
0.00000001
 40
0.0
 40
0.0
 40
0.0
 40
0.0
 40
0.1509399706145195
 40
0.2956904241005992
 40
0.4329909003153377
 40
0.5642698107243532
 40
0.6865766359779404
 40
0.8000856688772695
 40
0.90479362264108
 40
1.0
 40
1.0
 40
1.0
 40
1.0
 10
22.4283379475475
 20
10.46360172395278
 30
0.0
 10
22.41973357243611
 20
10.46516050984024
 30
0.0
 10
22.40287765736306
 20
10.46821416129034
 30
0.0
 10
22.37804474282311
 20
10.47176053165248
 30
0.0
 10
22.35432730045828
 20
10.47505294607609
 30
0.0
 10
22.33179285638868
 20
10.47732270338824
 30
0.0
 10
22.31058685477487
 20
10.47890766678515
 30
0.0
 10
22.29090288091076
 20
10.48020919938244
 30
0.0
 10
22.27275675183935
 20
10.48088615882324
 30
0.0
 10
22.26117690489468
 20
10.48103218232293
 30
0.0
 10
22.2556621662975
 20
10.48110172395278
 30
0.0
  0
SPLINE
  5
79
330
1F
100
AcDbEntity
  8
0
  6
Continuous
 62
     7
370
    15
100
AcDbSpline
210
0.0
220
0.0
230
1.0
 70
     8
 71
     3
 72
    27
 73
    23
 74
     0
 42
0.00000001
 43
0.00000001
 40
0.0
 40
0.0
 40
0.0
 40
0.0
 40
0.065913288837091
 40
0.1305743709121599
 40
0.1946116374599791
 40
0.2581411398167126
 40
0.3208958499629325
 40
0.382751307605853
 40
0.4445255222575656
 40
0.506792737635602
 40
0.5379238762649629
 40
0.5684219609752496
 40
0.5984014732273252
 40
0.6282049767573713
 40
0.6579304304638267
 40
0.6876972301578647
 40
0.7175064645799032
 40
0.7476076626615624
 40
0.8086939402042118
 40
0.8705300639594828
 40
0.9343380516708061
 40
1.0
 40
1.0
 40
1.0
 40
1.0
 10
22.2556621662975
 20
10.48110172395278
 30
0.0
 10
22.24416883892449
 20
10.48085811538723
 30
0.0
 10
22.22140053198827
 20
10.4803755262803
 30
0.0
 10
22.1876231074465
 20
10.47673385559642
 30
0.0
 10
22.15462268321067
 20
10.4707367592454
 30
0.0
 10
22.1224912391555
 20
10.4623126652796
 30
0.0
 10
22.09153858198089
 20
10.45131259461307
 30
0.0
 10
22.062107459007
 20
10.43740825876151
 30
0.0
 10
22.03423832132142
 20
10.42077340399377
 30
0.0
 10
22.01236597818814
 20
10.40477489494265
 30
0.0
 10
21.99597884916851
 20
10.39067744940073
 30
0.0
 10
21.98466698896672
 20
10.37939034453229
 30
0.0
 10
21.97400421956928
 20
10.36779605778991
 30
0.0
 10
21.96447359165796
 20
10.35541809438999
 30
0.0
 10
21.9556997043087
 20
10.34254993411204
 30
0.0
 10
21.94773202856332
 20
10.32915796675303
 30
0.0
 10
21.94077060702073
 20
10.3151437332177
 30
0.0
 10
21.9325390543987
 20
10.29571135763368
 30
0.0
 10
21.9242269986214
 20
10.27029352756221
 30
0.0
 10
21.91737529546893
 20
10.23843619189337
 30
0.0
 10
21.91276006990229
 20
10.20533792264995
 30
0.0
 10
21.91231411695837
 20
10.18275180673688
 30
0.0
 10
21.9120879475475
 20
10.17129703645277
 30
0.0
  0
SPLINE
  5
7A
330
1F
100
AcDbEntity
  8
0
  6
Continuous
 62
     7
370
    15
100
AcDbSpline
210
0.0
220
0.0
230
1.0
 70
     8
 71
     3
 72
    23
 73
    19
 74
     0
 42
0.00000001
 43
0.00000001
 40
0.0
 40
0.0
 40
0.0
 40
0.0
 40
0.0661136748911054
 40
0.1301654738344708
 40
0.1928954183675367
 40
0.2548861644510806
 40
0.3159152759150242
 40
0.3757217049879619
 40
0.4348939684005516
 40
0.4942602988502234
 40
0.5542275159196142
 40
0.6145213332903879
 40
0.6758737775240504
 40
0.7392493939596073
 40
0.8036934159815458
 40
0.8684188552749402
 40
0.933664026793053
 40
1.0
 40
1.0
 40
1.0
 40
1.0
 10
21.9120879475475
 20
10.17129703645277
 30
0.0
 10
21.91236066913427
 20
10.1588343007095
 30
0.0
 10
21.91289760698602
 20
10.13429750244545
 30
0.0
 10
21.91841774507662
 20
10.0983033847137
 30
0.0
 10
21.92655181738464
 20
10.06363732381658
 30
0.0
 10
21.93855936898672
 20
10.03069087135252
 30
0.0
 10
21.95351926653754
 20
9.999608248991935
 30
0.0
 10
21.97162410569871
 20
9.97084221746245
 30
0.0
 10
21.99286198169246
 20
9.944714362065492
 30
0.0
 10
22.01689901445981
 20
9.92110979272806
 30
0.0
 10
22.04355984942545
 20
9.900150725960238
 30
0.0
 10
22.07278363887444
 20
9.882250564251375
 30
0.0
 10
22.10414024163003
 20
9.866896907748895
 30
0.0
 10
22.13772786425254
 20
9.854833883000543
 30
0.0
 10
22.17274597385268
 20
9.845239585229143
 30
0.0
 10
22.20880438269129
 20
9.838672776175516
 30
0.0
 10
22.24557696164837
 20
9.834357198317436
 30
0.0
 10
22.27036994135743
 20
9.83385493664977
 30
0.0
 10
22.2828691975475
 20
9.833601723952777
 30
0.0
  0
SPLINE
  5
7B
330
1F
100
AcDbEntity
  8
0
  6
Continuous
 62
     7
370
    15
100
AcDbSpline
210
0.0
220
0.0
230
1.0
 70
     8
 71
     3
 72
    11
 73
     7
 74
     0
 42
0.00000001
 43
0.00000001
 40
0.0
 40
0.0
 40
0.0
 40
0.0
 40
0.2324739040070727
 40
0.4765000704893053
 40
0.7318833312894754
 40
1.0
 40
1.0
 40
1.0
 40
1.0
 10
22.2828691975475
 20
9.833601723952777
 30
0.0
 10
22.29559077331792
 20
9.833822108972475
 30
0.0
 10
22.32166609466304
 20
9.83427383054471
 30
0.0
 10
22.36158632767316
 20
9.837759156542766
 30
0.0
 10
22.40324948349172
 20
9.843162812408641
 30
0.0
 10
22.43141344314247
 20
9.848412853455136
 30
0.0
 10
22.4458379475475
 20
9.851101723952778
 30
0.0
  0
SPLINE
  5
7C
330
1F
100
AcDbEntity
  8
0
  6
Continuous
 62
     7
370
    15
100
AcDbSpline
210
0.0
220
0.0
230
1.0
 70
     8
 71
     3
 72
    11
 73
     7
 74
     0
 42
0.00000001
 43
0.00000001
 40
0.0
 40
0.0
 40
0.0
 40
0.0
 40
0.3263922777820391
 40
0.6017472644537458
 40
0.8263731676912583
 40
1.0
 40
1.0
 40
1.0
 40
1.0
 10
22.4458379475475
 20
9.851101723952778
 30
0.0
 10
22.44620986387462
 20
9.857800424632142
 30
0.0
 10
22.44689554073553
 20
9.870150363903361
 30
0.0
 10
22.44773448707905
 20
9.887117659891171
 30
0.0
 10
22.44887471410486
 20
9.900918414525588
 30
0.0
 10
22.4496162301876
 20
9.909070907200904
 30
0.0
 10
22.4499395100475
 20
9.912625161452777
 30
0.0
  0
LINE
  5
7D
330
1F
100
AcDbEntity
  8
0
  6
Continuous
 62
     7
370
    15
100
AcDbLine
 10
22.4499396076
 20
9.912625171
 30
0.0
 11
22.4545877139
 21
9.9648516877
 31
0.0
  0
SPLINE
  5
7E
330
1F
100
AcDbEntity
  8
0
  6
Continuous
 62
     7
370
    15
100
AcDbSpline
210
0.0
220
0.0
230
1.0
 70
     8
 71
     3
 72
    15
 73
    11
 74
     0
 42
0.00000001
 43
0.00000001
 40
0.0
 40
0.0
 40
0.0
 40
0.0
 40
0.1691507646270801
 40
0.3221275408433145
 40
0.4577494795068822
 40
0.5784247334964687
 40
0.6890274475234835
 40
0.795243990543984
 40
0.89907819378417
 40
1.0
 40
1.0
 40
1.0
 40
1.0
 10
22.4545879475475
 20
9.964851723952776
 30
0.0
 10
22.44621766781848
 20
9.961711905903242
 30
0.0
 10
22.43027746423014
 20
9.955732495350635
 30
0.0
 10
22.40739209836259
 20
9.947867356703554
 30
0.0
 10
22.38661993319292
 20
9.941807833535503
 30
0.0
 10
22.36777899353792
 20
9.937192223231696
 30
0.0
 10
22.35024929573642
 20
9.933852512573127
 30
0.0
 10
22.33346150774866
 20
9.931498862266562
 30
0.0
 10
22.31707423814143
 20
9.93007137666254
 30
0.0
 10
22.30625081119476
 20
9.929924243929932
 30
0.0
 10
22.3009160725475
 20
9.929851723952776
 30
0.0
  0
SPLINE
  5
7F
330
1F
100
AcDbEntity
  8
0
  6
Continuous
 62
     7
370
    15
100
AcDbSpline
210
0.0
220
0.0
230
1.0
 70
     8
 71
     3
 72
    23
 73
    19
 74
     0
 42
0.00000001
 43
0.00000001
 40
0.0
 40
0.0
 40
0.0
 40
0.0
 40
0.0634762895811306
 40
0.1259350311944987
 40
0.1880628790805758
 40
0.2500676885292402
 40
0.3113179291792654
 40
0.3721572808721432
 40
0.4328495046392488
 40
0.4941200147453353
 40
0.5556776308467728
 40
0.6170625376428546
 40
0.6796711975285257
 40
0.7433652284266272
 40
0.8075563910098444
 40
0.8713993843896991
 40
0.9354365774374966
 40
1.0
 40
1.0
 40
1.0
 40
1.0
 10
22.3009160725475
 20
9.929851723952776
 30
0.0
 10
22.29270349713843
 20
9.930027536010703
 30
0.0
 10
22.27640999688575
 20
9.930376341795439
 30
0.0
 10
22.25224503024563
 20
9.93342236716275
 30
0.0
 10
22.22851754387798
 20
9.937946966939949
 30
0.0
 10
22.20548003960627
 20
9.944697855227847
 30
0.0
 10
22.18319353243758
 20
9.953185219766693
 30
0.0
 10
22.16222084214142
 20
9.964209255290447
 30
0.0
 10
22.14254238359718
 20
9.977396204176445
 30
0.0
 10
22.12439418525954
 20
9.992754401718669
 30
0.0
 10
22.10776280176616
 20
10.00989079909802
 30
0.0
 10
22.09339110209558
 20
10.02917131576703
 30
0.0
 10
22.08071464875222
 20
10.04992200115326
 30
0.0
 10
22.07043327602254
 20
10.07236707197567
 30
0.0
 10
22.06225082483379
 20
10.095809045771
 30
0.0
 10
22.05631759000278
 20
10.11996970220559
 30
0.0
 10
22.05286524472861
 20
10.14467368359037
 30
0.0
 10
22.05234775246169
 20
10.16130614899708
 30
0.0
 10
22.0520879475475
 20
10.16965641145278
 30
0.0
  0
SPLINE
  5
80
330
1F
100
AcDbEntity
  8
0
  6
Continuous
 62
     7
370
    15
100
AcDbSpline
210
0.0
220
0.0
230
1.0
 70
     8
 71
     3
 72
    27
 73
    23
 74
     0
 42
0.00000001
 43
0.00000001
 40
0.0
 40
0.0
 40
0.0
 40
0.0
 40
0.08333922391591
 40
0.1628945553517357
 40
0.2400010294562422
 40
0.3156991729862437
 40
0.3531136784530837
 40
0.3903756676008824
 40
0.4279281053538191
 40
0.4657667822176966
 40
0.5043719742348567
 40
0.5434306227666799
 40
0.5836182406889745
 40
0.6249819353622879
 40
0.6674062492034794
 40
0.7107651891627266
 40
0.7549594140002897
 40
0.8006934324299683
 40
0.8476130237959255
 40
0.8964482270997379
 40
0.9473391496215547
 40
1.0
 40
1.0
 40
1.0
 40
1.0
 10
22.0520879475475
 20
10.16965641145278
 30
0.0
 10
22.05237206325359
 20
10.17947141052584
 30
0.0
 10
22.05292739481822
 20
10.19865577335837
 30
0.0
 10
22.05741313158178
 20
10.22663702786154
 30
0.0
 10
22.0646775696073
 20
10.25305054277146
 30
0.0
 10
22.07302666883836
 20
10.27391208243191
 30
0.0
 10
22.0814765541382
 20
10.28948439207684
 30
0.0
 10
22.08858564256109
 20
10.30063857438574
 30
0.0
 10
22.09670088027825
 20
10.31114624731576
 30
0.0
 10
22.10561202491849
 20
10.32119444715874
 30
0.0
 10
22.11544007982831
 20
10.33061803217532
 30
0.0
 10
22.1262292358301
 20
10.33935275341816
 30
0.0
 10
22.13766957710987
 20
10.34778184057608
 30
0.0
 10
22.1501544852477
 20
10.35536851026603
 30
0.0
 10
22.16337977103857
 20
10.36240298967275
 30
0.0
 10
22.17748462389563
 20
10.36838685432336
 30
0.0
 10
22.19235248882347
 20
10.37342834994616
 30
0.0
 10
22.20789438347752
 20
10.37772568626531
 30
0.0
 10
22.22428217164464
 20
10.38079272500106
 30
0.0
 10
22.24139378426598
 20
10.3830928555916
 30
0.0
 10
22.25927772564242
 20
10.38469957118554
 30
0.0
 10
22.27147235422601
 20
10.38480043172081
 30
0.0
 10
22.2776738850475
 20
10.38485172395278
 30
0.0
  0
SPLINE
  5
81
330
1F
100
AcDbEntity
  8
0
  6
Continuous
 62
     7
370
    15
100
AcDbSpline
210
0.0
220
0.0
230
1.0
 70
     8
 71
     3
 72
    15
 73
    11
 74
     0
 42
0.00000001
 43
0.00000001
 40
0.0
 40
0.0
 40
0.0
 40
0.0
 40
0.1046270719193299
 40
0.2143723102476719
 40
0.329553677957901
 40
0.4512251525139136
 40
0.5780668595935552
 40
0.7125934749796874
 40
0.8526811887247582
 40
1.0
 40
1.0
 40
1.0
 40
1.0
 10
22.2776738850475
 20
10.38485172395278
 30
0.0
 10
22.28369291684356
 20
10.38474095446951
 30
0.0
 10
22.29602542054366
 20
10.38451399686096
 30
0.0
 10
22.3149181691627
 20
10.38278035429422
 30
0.0
 10
22.33466779408242
 20
10.38002024865715
 30
0.0
 10
22.35524529979946
 20
10.37620143909378
 30
0.0
 10
22.37670647445286
 20
10.37118925442281
 30
0.0
 10
22.39901820393309
 20
10.36521892151078
 30
0.0
 10
22.42221729387957
 20
10.35806435072822
 30
0.0
 10
22.43783342991447
 20
10.35263480171014
 30
0.0
 10
22.4458379475475
 20
10.34985172395277
 30
0.0
  0
SPLINE
  5
82
330
1F
100
AcDbEntity
  8
0
  6
Continuous
 62
     7
370
    15
100
AcDbSpline
210
0.0
220
0.0
230
1.0
 70
     8
 71
     3
 72
     9
 73
     5
 74
     0
 42
0.00000001
 43
0.00000001
 40
0.0
 40
0.0
 40
0.0
 40
0.0
 40
0.4962073069162325
 40
1.0
 40
1.0
 40
1.0
 40
1.0
 10
22.4458379475475
 20
10.34985172395277
 30
0.0
 10
22.44257030396903
 20
10.36860881265464
 30
0.0
 10
22.43598506523326
 20
10.40640972457276
 30
0.0
 10
22.4308998445636
 20
10.44444156210133
 30
0.0
 10
22.4283379475475
 20
10.46360172395278
 30
0.0
  0
SPLINE
  5
83
330
1F
100
AcDbEntity
  8
0
  6
Continuous
 62
     7
370
    15
100
AcDbSpline
210
0.0
220
0.0
230
1.0
 70
     8
 71
     3
 72
    19
 73
    15
 74
     0
 42
0.00000001
 43
0.00000001
 40
0.0
 40
0.0
 40
0.0
 40
0.0
 40
0.1611543917525451
 40
0.3162786415531753
 40
0.4657141776690304
 40
0.608825802105298
 40
0.6762333689936123
 40
0.7383588316156371
 40
0.7951834564344653
 40
0.8470552519785283
 40
0.8929757562404916
 40
0.9339365995321346
 40
0.9696136490946167
 40
1.0
 40
1.0
 40
1.0
 40
1.0
 10
20.3651152912975
 20
10.30664859895277
 30
0.0
 10
20.36651952497348
 20
10.28445682689079
 30
0.0
 10
20.36927544812662
 20
10.24090366370923
 30
0.0
 10
20.37270315916322
 20
10.17673438884907
 30
0.0
 10
20.37537365070003
 20
10.11502235737885
 30
0.0
 10
20.37732199634138
 20
10.06539274402268
 30
0.0
 10
20.37830713917717
 20
10.02778583743295
 30
0.0
 10
20.37925030560646
 20
10.00208878273525
 30
0.0
 10
20.37969466870467
 20
9.978522314094509
 30
0.0
 10
20.38028760481084
 20
9.95719657095003
 30
0.0
 10
20.38072210048588
 20
9.93805598729855
 30
0.0
 10
20.3809220655852
 20
9.921146584828774
 30
0.0
 10
20.38131168629881
 20
9.906383127070855
 30
0.0
 10
20.3812681353701
 20
9.897267281134987
 30
0.0
 10
20.3812481037975
 20
9.893074380202776
 30
0.0
  0
LINE
  5
84
330
1F
100
AcDbEntity
  8
0
  6
Continuous
 62
     7
370
    15
100
AcDbLine
 10
20.3812480653
 20
9.8930744369
 30
0.0
 11
20.3807012983
 21
9.8423518228
 31
0.0
  0
SPLINE
  5
85
330
1F
100
AcDbEntity
  8
0
  6
Continuous
 62
     7
370
    15
100
AcDbSpline
210
0.0
220
0.0
230
1.0
 70
     8
 71
     3
 72
    11
 73
     7
 74
     0
 42
0.00000001
 43
0.00000001
 40
0.0
 40
0.0
 40
0.0
 40
0.0
 40
0.3269352262201083
 40
0.6031558540531389
 40
0.8269389139458423
 40
1.0
 40
1.0
 40
1.0
 40
1.0
 10
20.3807012287975
 20
9.842351723952776
 30
0.0
 10
20.38922318817042
 20
9.842502207481557
 30
0.0
 10
20.40494516999296
 20
9.842779831347217
 30
0.0
 10
20.42650279052873
 20
9.842967764482928
 30
0.0
 10
20.44404640295602
 20
9.843366127467696
 30
0.0
 10
20.45439249293927
 20
9.843326177233527
 30
0.0
 10
20.4589043537975
 20
9.843308755202775
 30
0.0
  0
SPLINE
  5
86
330
1F
100
AcDbEntity
  8
0
  6
Continuous
 62
     7
370
    15
100
AcDbSpline
210
0.0
220
0.0
230
1.0
 70
     8
 71
     3
 72
    15
 73
    11
 74
     0
 42
0.00000001
 43
0.00000001
 40
0.0
 40
0.0
 40
0.0
 40
0.0
 40
0.0696245532397212
 40
0.1547212294216009
 40
0.2553086231282376
 40
0.3732994120822555
 40
0.5048266770230825
 40
0.6537584183532232
 40
0.8200949838767869
 40
1.0
 40
1.0
 40
1.0
 40
1.0
 10
20.4589043537975
 20
9.843308755202775
 30
0.0
 10
20.46054495975813
 20
9.843306826998425
 30
0.0
 10
20.46419075078175
 20
9.843302542099861
 30
0.0
 10
20.47020720956699
 20
9.843342608819546
 30
0.0
 10
20.47736102372442
 20
9.843145584859627
 30
0.0
 10
20.48561002620888
 20
9.843033100487153
 30
0.0
 10
20.49499799127944
 20
9.84288985923146
 30
0.0
 10
20.50552523793178
 20
9.842747222476829
 30
0.0
 10
20.51719332996439
 20
9.842653198696578
 30
0.0
 10
20.52534986279017
 20
9.84245480704573
 30
0.0
 10
20.5295879475475
 20
9.842351723952776
 30
0.0
  0
LINE
  5
87
330
1F
100
AcDbEntity
  8
0
  6
Continuous
 62
     7
370
    15
100
AcDbLine
 10
20.5295879517
 20
9.8423518228
 30
0.0
 11
20.5201544607
 21
10.0485234678
 31
0.0
  0
LINE
  5
88
330
1F
100
AcDbEntity
  8
0
  6
Continuous
 62
     7
370
    15
100
AcDbLine
 10
20.5201544607
 20
10.0485234678
 30
0.0
 11
20.5190606333
 21
10.0961015848
 31
0.0
  0
LINE
  5
89
330
1F
100
AcDbEntity
  8
0
  6
Continuous
 62
     7
370
    15
100
AcDbLine
 10
20.5190606333
 20
10.0961015848
 30
0.0
 11
20.8251738971
 21
10.0961015848
 31
0.0
  0
LINE
  5
8A
330
1F
100
AcDbEntity
  8
0
  6
Continuous
 62
     7
370
    15
100
AcDbLine
 10
20.8251738971
 20
10.0961015848
 30
0.0
 11
20.8331034855
 21
9.9723712008
 31
0.0
  0
SPLINE
  5
8B
330
1F
100
AcDbEntity
  8
0
  6
Continuous
 62
     7
370
    15
100
AcDbSpline
210
0.0
220
0.0
230
1.0
 70
     8
 71
     3
 72
    15
 73
    11
 74
     0
 42
0.00000001
 43
0.00000001
 40
0.0
 40
0.0
 40
0.0
 40
0.0
 40
0.1810959085755499
 40
0.3475282471964913
 40
0.4960412233391747
 40
0.6297767670262086
 40
0.7455836684232037
 40
0.8467233048019135
 40
0.9315216721944086
 40
1.0
 40
1.0
 40
1.0
 40
1.0
 10
20.8331035725475
 20
9.972371255202775
 30
0.0
 10
20.83328554041156
 20
9.967312648043803
 30
0.0
 10
20.83363474196636
 20
9.957605035690541
 30
0.0
 10
20.8341382777037
 20
9.943749176601482
 30
0.0
 10
20.83480215769952
 20
9.931224004621921
 30
0.0
 10
20.83498451297638
 20
9.920098166824843
 30
0.0
 10
20.83526704094015
 20
9.910300179060803
 30
0.0
 10
20.83556976544982
 20
9.901871477153087
 30
0.0
 10
20.83572488730396
 20
9.89476116420934
 30
0.0
 10
20.83570853458449
 20
9.89047676963359
 30
0.0
 10
20.8357012287975
 20
9.888562661452777
 30
0.0
  0
LINE
  5
8C
330
1F
100
AcDbEntity
  8
0
  6
Continuous
 62
     7
370
    15
100
AcDbLine
 10
20.8357012155
 20
9.888562729
 30
0.0
 11
20.8357012155
 21
9.8423518228
 31
0.0
  0
LINE
  5
8D
330
1F
100
AcDbEntity
  8
0
  6
Continuous
 62
     7
370
    15
100
AcDbLine
 10
20.8357012155
 20
9.8423518228
 30
0.0
 11
20.9141778289
 21
9.8433086651
 31
0.0
  0
SPLINE
  5
8E
330
1F
100
AcDbEntity
  8
0
  6
Continuous
 62
     7
370
    15
100
AcDbSpline
210
0.0
220
0.0
230
1.0
 70
     8
 71
     3
 72
    15
 73
    11
 74
     0
 42
0.00000001
 43
0.00000001
 40
0.0
 40
0.0
 40
0.0
 40
0.0
 40
0.0465967952362179
 40
0.1164919880905525
 40
0.2097058006724827
 40
0.3223314586042917
 40
0.4582526454296089
 40
0.6174702006632442
 40
0.7980432202520893
 40
0.9999999999999999
 40
0.9999999999999999
 40
0.9999999999999999
 40
0.9999999999999999
 10
20.9141777912975
 20
9.843308755202775
 30
0.0
 10
20.915271528801
 20
9.843307589807539
 30
0.0
 10
20.91800587255975
 20
9.843304676319441
 30
0.0
 10
20.92292858778404
 20
9.843338767417597
 30
0.0
 10
20.92939870163199
 20
9.84314219637396
 30
0.0
 10
20.93741984492459
 20
9.843028108555895
 30
0.0
 10
20.94699015074131
 20
9.842887453209295
 30
0.0
 10
20.95815546445019
 20
9.842746993669278
 30
0.0
 10
20.97087154159753
 20
9.842649347828202
 30
0.0
 10
20.97984853816755
 20
9.8424545614885
 30
0.0
 10
20.9845879475475
 20
9.842351723952776
 30
0.0
  0
LINE
  5
8F
330
1F
100
AcDbEntity
  8
0
  6
Continuous
 62
     7
370
    15
100
AcDbLine
 10
20.9845878688
 20
9.8423518228
 30
0.0
 11
20.96544721
 21
10.0939142234
 31
0.0
  0
LINE
  5
90
330
1F
100
AcDbEntity
  8
0
  6
Continuous
 62
     7
370
    15
100
AcDbLine
 10
20.96544721
 20
10.0939142234
 30
0.0
 11
20.9605254268
 21
10.2803987358
 31
0.0
  0
LINE
  5
91
330
1F
100
AcDbEntity
  8
0
  6
Continuous
 62
     7
370
    15
100
AcDbLine
 10
20.9605254268
 20
10.2803987358
 30
0.0
 11
20.9591582159
 21
10.3897735523
 31
0.0
  0
SPLINE
  5
92
330
1F
100
AcDbEntity
  8
0
  6
Continuous
 62
     7
370
    15
100
AcDbSpline
210
0.0
220
0.0
230
1.0
 70
     8
 71
     3
 72
    15
 73
    11
 74
     0
 42
0.00000001
 43
0.00000001
 40
0.0
 40
0.0
 40
0.0
 40
0.0
 40
0.1937063329723046
 40
0.3692023587375493
 40
0.5231773362376675
 40
0.6572870416681886
 40
0.7731754866881949
 40
0.8692116120488497
 40
0.9437113267045698
 40
1.0
 40
1.0
 40
1.0
 40
1.0
 10
20.9591582600475
 20
10.38977359895278
 30
0.0
 10
20.9591143166116
 20
10.39510564341552
 30
0.0
 10
20.95903056085652
 20
10.4052684675335
 30
0.0
 10
20.95888671000027
 20
10.41966946955461
 30
0.0
 10
20.95877923048472
 20
10.43243011805938
 30
0.0
 10
20.95855538540569
 20
10.44354895644781
 30
0.0
 10
20.95868156048182
 20
10.45307536154274
 30
0.0
 10
20.95843610979175
 20
10.46095777264571
 30
0.0
 10
20.95848084608311
 20
10.46720203714915
 30
0.0
 10
20.95847652570202
 20
10.47080226066673
 30
0.0
 10
20.9584746662975
 20
10.47235172395278
 30
0.0
  0
LINE
  5
93
330
1F
100
AcDbEntity
  8
0
  6
Continuous
 62
     7
370
    15
100
AcDbLine
 10
20.9584747572
 20
10.4723517984
 30
0.0
 11
20.8862871378
 21
10.4713946628
 31
0.0
  0
SPLINE
  5
94
330
1F
100
AcDbEntity
  8
0
  6
Continuous
 62
     7
370
    15
100
AcDbSpline
210
0.0
220
0.0
230
1.0
 70
     8
 71
     3
 72
    15
 73
    11
 74
     0
 42
0.00000001
 43
0.00000001
 40
0.0
 40
0.0
 40
0.0
 40
0.0
 40
0.0534709031362981
 40
0.1283301675271041
 40
0.2228122429877276
 40
0.3368974268763797
 40
0.4723687737227475
 40
0.6274446359477135
 40
0.8039076179034229
 40
1.0
 40
1.0
 40
1.0
 40
1.0
 10
20.8862871662975
 20
10.47139469270278
 30
0.0
 10
20.88491999254946
 20
10.47139610861132
 30
0.0
 10
20.88163877555417
 20
10.47139950679183
 30
0.0
 10
20.8759413757901
 20
10.4713629263941
 30
0.0
 10
20.86869641866475
 20
10.47156087164599
 30
0.0
 10
20.85990055560725
 20
10.47167439232432
 30
0.0
 10
20.84955550289784
 20
10.47181407134599
 30
0.0
 10
20.83761547979773
 20
10.47195713281172
 30
0.0
 10
20.82412471266725
 20
10.47205319999744
 30
0.0
 10
20.81460080290412
 20
10.47224878100802
 30
0.0
 10
20.8095879475475
 20
10.47235172395278
 30
0.0
  0
SPLINE
  5
95
330
1F
100
AcDbEntity
  8
0
  6
Continuous
 62
     7
370
    15
100
AcDbSpline
210
0.0
220
0.0
230
1.0
 70
     8
 71
     3
 72
    11
 73
     7
 74
     0
 42
0.00000001
 43
0.00000001
 40
0.0
 40
0.0
 40
0.0
 40
0.0
 40
0.2409353110406284
 40
0.4880683866074282
 40
0.7409066151329261
 40
1.0
 40
1.0
 40
1.0
 40
1.0
 10
20.8095879475475
 20
10.47235172395278
 30
0.0
 10
20.81100471816224
 20
10.44988718445754
 30
0.0
 10
20.81387470407316
 20
10.40438023281992
 30
0.0
 10
20.81730484044542
 20
10.33524457415665
 30
0.0
 10
20.81975678877441
 20
10.26436954355985
 30
0.0
 10
20.82072102985463
 20
10.21655241873551
 30
0.0
 10
20.8212090412975
 20
10.19235172395278
 30
0.0
  0
LINE
  5
96
330
1F
100
AcDbEntity
  8
0
  6
Continuous
 62
     7
370
    15
100
AcDbLine
 10
20.8212089562
 20
10.1923516463
 30
0.0
 11
20.5150956925
 21
10.1923516463
 31
0.0
  0
LINE
  5
97
330
1F
100
AcDbEntity
  8
0
  6
Continuous
 62
     7
370
    15
100
AcDbLine
 10
20.5150956925
 20
10.1923516463
 30
0.0
 11
20.5060722767
 21
10.3655744185
 31
0.0
  0
LINE
  5
98
330
1F
100
AcDbEntity
  8
0
  6
Continuous
 62
     7
370
    15
100
AcDbLine
 10
20.5060722767
 20
10.3655744185
 30
0.0
 11
20.5034745467
 21
10.4723517984
 31
0.0
  0
LINE
  5
99
330
1F
100
AcDbEntity
  8
0
  6
Continuous
 62
     7
370
    15
100
AcDbLine
 10
20.5034745467
 20
10.4723517984
 30
0.0
 11
20.4265021292
 21
10.4713946628
 31
0.0
  0
SPLINE
  5
9A
330
1F
100
AcDbEntity
  8
0
  6
Continuous
 62
     7
370
    15
100
AcDbSpline
210
0.0
220
0.0
230
1.0
 70
     8
 71
     3
 72
    15
 73
    11
 74
     0
 42
0.00000001
 43
0.00000001
 40
0.0
 40
0.0
 40
0.0
 40
0.0
 40
0.0551271771251903
 40
0.129263725672853
 40
0.2243295902561105
 40
0.3384016588339005
 40
0.4733815821509437
 40
0.6292700184644681
 40
0.8041665664262522
 40
1.0
 40
1.0
 40
1.0
 40
1.0
 10
20.4265020100475
 20
10.47139469270278
 30
0.0
 10
20.42518041057603
 20
10.47139616156854
 30
0.0
 10
20.42208148767739
 20
10.4713996058055
 30
0.0
 10
20.41670305673764
 20
10.47136353606919
 30
0.0
 10
20.40991388154803
 20
10.47156034820457
 30
0.0
 10
20.40166488339526
 20
10.47167415715097
 30
0.0
 10
20.39195786485796
 20
10.47181496280636
 30
0.0
 10
20.38079256036176
 20
10.47195577432822
 30
0.0
 10
20.36816762739726
 20
10.47205433952122
 30
0.0
 10
20.35928178280211
 20
10.47224893260979
 30
0.0
 10
20.3545879475475
 20
10.47235172395278
 30
0.0
  0
LINE
  5
9B
330
1F
100
AcDbEntity
  8
0
  6
Continuous
 62
     7
370
    15
100
AcDbLine
 10
20.3545878933
 20
10.4723517984
 30
0.0
 11
20.3651152117
 21
10.3066485392
 31
0.0
  0
CIRCLE
  5
9C
330
1F
100
AcDbEntity
  8
0
  6
Continuous
 62
     7
370
    15
100
AcDbCircle
 10
13.4020879475
 20
10.6846810739
 30
0.0
 40
0.1005000000000003
  0
CIRCLE
  5
9D
330
1F
100
AcDbEntity
  8
0
  6
Continuous
 62
     7
370
    15
100
AcDbCircle
 10
12.4020879475
 20
9.6846810739
 30
0.0
 40
0.1004999999999985
  0
CIRCLE
  5
9E
330
1F
100
AcDbEntity
  8
0
  6
Continuous
 62
     7
370
    15
100
AcDbCircle
 10
13.4020879475
 20
9.6846810739
 30
0.0
 40
0.1004999999999985
  0
CIRCLE
  5
9F
330
1F
100
AcDbEntity
  8
0
  6
Continuous
 62
     7
370
    15
100
AcDbCircle
 10
14.4020879475
 20
9.6846810739
 30
0.0
 40
0.1004999999999985
  0
CIRCLE
  5
A0
330
1F
100
AcDbEntity
  8
0
  6
Continuous
 62
     7
370
    15
100
AcDbCircle
 10
12.4020879475
 20
8.6846810739
 30
0.0
 40
0.1005000000000003
  0
CIRCLE
  5
A1
330
1F
100
AcDbEntity
  8
0
  6
Continuous
 62
     7
370
    15
100
AcDbCircle
 10
13.4020879475
 20
8.6846810739
 30
0.0
 40
0.1005000000000003
  0
CIRCLE
  5
A2
330
1F
100
AcDbEntity
  8
0
  6
Continuous
 62
     7
370
    15
100
AcDbCircle
 10
14.4020879475
 20
8.6846810739
 30
0.0
 40
0.1005000000000003
  0
CIRCLE
  5
A3
330
1F
100
AcDbEntity
  8
0
  6
Continuous
 62
     7
370
    15
100
AcDbCircle
 10
15.4020879475
 20
8.6846810739
 30
0.0
 40
0.1005000000000003
  0
CIRCLE
  5
A4
330
1F
100
AcDbEntity
  8
0
  6
Continuous
 62
     7
370
    15
100
AcDbCircle
 10
16.4020879475
 20
8.6846810739
 30
0.0
 40
0.1005000000000003
  0
CIRCLE
  5
A5
330
1F
100
AcDbEntity
  8
0
  6
Continuous
 62
     7
370
    15
100
AcDbCircle
 10
17.4020879475
 20
8.6846810739
 30
0.0
 40
0.1005000000000003
  0
CIRCLE
  5
A6
330
1F
100
AcDbEntity
  8
0
  6
Continuous
 62
     7
370
    15
100
AcDbCircle
 10
11.4020879475
 20
7.6846810739
 30
0.0
 40
0.1004999999999994
  0
CIRCLE
  5
A7
330
1F
100
AcDbEntity
  8
0
  6
Continuous
 62
     7
370
    15
100
AcDbCircle
 10
12.4020879475
 20
7.6846810739
 30
0.0
 40
0.1004999999999994
  0
CIRCLE
  5
A8
330
1F
100
AcDbEntity
  8
0
  6
Continuous
 62
     7
370
    15
100
AcDbCircle
 10
11.4020879475
 20
5.6846810739
 30
0.0
 40
0.1005000000000003
  0
CIRCLE
  5
A9
330
1F
100
AcDbEntity
  8
0
  6
Continuous
 62
     7
370
    15
100
AcDbCircle
 10
11.4020879475
 20
6.6846810739
 30
0.0
 40
0.1004999999999994
  0
CIRCLE
  5
AA
330
1F
100
AcDbEntity
  8
0
  6
Continuous
 62
     7
370
    15
100
AcDbCircle
 10
12.4020879475
 20
3.6846810739
 30
0.0
 40
0.1005000000000003
  0
CIRCLE
  5
AB
330
1F
100
AcDbEntity
  8
0
  6
Continuous
 62
     7
370
    15
100
AcDbCircle
 10
12.4020879475
 20
4.6846810739
 30
0.0
 40
0.1005000000000011
  0
CIRCLE
  5
AC
330
1F
100
AcDbEntity
  8
0
  6
Continuous
 62
     7
370
    15
100
AcDbCircle
 10
12.4020879475
 20
5.6846810739
 30
0.0
 40
0.1005000000000011
  0
CIRCLE
  5
AD
330
1F
100
AcDbEntity
  8
0
  6
Continuous
 62
     7
370
    15
100
AcDbCircle
 10
12.4020879475
 20
6.6846810739
 30
0.0
 40
0.1004999999999994
  0
CIRCLE
  5
AE
330
1F
100
AcDbEntity
  8
0
  6
Continuous
 62
     7
370
    15
100
AcDbCircle
 10
13.4020879475
 20
2.6846810739
 30
0.0
 40
0.1005000000000003
  0
CIRCLE
  5
AF
330
1F
100
AcDbEntity
  8
0
  6
Continuous
 62
     7
370
    15
100
AcDbCircle
 10
14.4020879475
 20
1.6846810739
 30
0.0
 40
0.1005000000000003
  0
CIRCLE
  5
B0
330
1F
100
AcDbEntity
  8
0
  6
Continuous
 62
     7
370
    15
100
AcDbCircle
 10
14.4020879475
 20
2.6846810739
 30
0.0
 40
0.1005000000000003
  0
CIRCLE
  5
B1
330
1F
100
AcDbEntity
  8
0
  6
Continuous
 62
     7
370
    15
100
AcDbCircle
 10
15.4020879475
 20
1.6846810739
 30
0.0
 40
0.1004999999999996
  0
CIRCLE
  5
B2
330
1F
100
AcDbEntity
  8
0
  6
Continuous
 62
     7
370
    15
100
AcDbCircle
 10
16.4020879475
 20
0.6846810739
 30
0.0
 40
0.1004999999999997
  0
CIRCLE
  5
B3
330
1F
100
AcDbEntity
  8
0
  6
Continuous
 62
     7
370
    15
100
AcDbCircle
 10
16.4020879475
 20
1.6846810739
 30
0.0
 40
0.1004999999999996
  0
CIRCLE
  5
B4
330
1F
100
AcDbEntity
  8
0
  6
Continuous
 62
     7
370
    15
100
AcDbCircle
 10
17.4020879475
 20
6.6846810739
 30
0.0
 40
0.1004999999999994
  0
CIRCLE
  5
B5
330
1F
100
AcDbEntity
  8
0
  6
Continuous
 62
     7
370
    15
100
AcDbCircle
 10
23.2020879475
 20
4.6846810739
 30
0.0
 40
0.0979999999999999
  0
CIRCLE
  5
B6
330
1F
100
AcDbEntity
  8
0
  6
Continuous
 62
     7
370
    15
100
AcDbCircle
 10
23.2020879475
 20
8.6846810739
 30
0.0
 40
0.097999999999999
  0
CIRCLE
  5
B7
330
1F
100
AcDbEntity
  8
0
  6
Continuous
 62
     7
370
    15
100
AcDbCircle
 10
11.6020879475
 20
8.6846810739
 30
0.0
 40
0.097999999999999
  0
CIRCLE
  5
B8
330
1F
100
AcDbEntity
  8
0
  6
Continuous
 62
     7
370
    15
100
AcDbCircle
 10
11.6020879475
 20
4.6846810739
 30
0.0
 40
0.0979999999999999
  0
ARC
  5
B9
330
1F
100
AcDbEntity
  8
0
  6
Continuous
 62
     7
370
    15
100
AcDbCircle
 10
17.4020879475
 20
6.6846810739
 30
0.0
 40
6.495078740157487
100
AcDbArc
 50
146.2511184706
 51
33.7488815291
  0
SPLINE
  5
BA
330
1F
100
AcDbEntity
  8
0
  6
Continuous
 62
     7
370
    15
100
AcDbSpline
210
0.0
220
0.0
230
1.0
 70
     8
 71
     3
 72
    11
 73
     7
 74
     0
 42
0.00000001
 43
0.00000001
 40
0.0
 40
0.0
 40
0.0
 40
0.0
 40
0.2163309341277603
 40
0.2750137432697024
 40
0.5868280914194208
 40
1.0
 40
1.0
 40
1.0
 40
1.0
 10
12.00155690562541
 20
10.29304805995713
 30
0.0
 10
12.45306593211951
 20
10.85777393713104
 30
0.0
 10
12.64340548628238
 20
11.10484338058928
 30
0.0
 10
13.8448793828004
 20
11.5967001427865
 30
0.0
 10
14.90747325787477
 20
10.14938347745161
 30
0.0
 10
15.74244850928943
 20
8.972351723952775
 30
0.0
 10
17.4020879475475
 20
8.972351723952777
 30
0.0
  0
SPLINE
  5
BB
330
1F
100
AcDbEntity
  8
0
  6
Continuous
 62
     7
370
    15
100
AcDbSpline
210
0.0
220
0.0
230
1.0
 70
     8
 71
     3
 72
    11
 73
     7
 74
     0
 42
0.00000001
 43
0.00000001
 40
0.0
 40
0.0
 40
0.0
 40
0.0
 40
0.4131719085805792
 40
0.7249862567302976
 40
0.7836690658722397
 40
1.0
 40
1.0
 40
1.0
 40
1.0
 10
17.4020879475475
 20
8.972351723952777
 30
0.0
 10
19.06172738580558
 20
8.972351723952775
 30
0.0
 10
19.89670263722023
 20
10.14938347745161
 30
0.0
 10
20.9592965122946
 20
11.5967001427865
 30
0.0
 10
22.16077040881262
 20
11.10484338058928
 30
0.0
 10
22.35110996297549
 20
10.85777393713104
 30
0.0
 10
22.80261898946959
 20
10.29304805995713
 30
0.0
  0
LINE
  5
BC
330
1F
100
AcDbEntity
  8
0
  6
Continuous
 62
     7
370
    15
100
AcDbLine
 10
21.0917753239
 20
10.3680354568
 30
0.0
 11
21.1193926316
 21
10.0016291029
 31
0.0
  0
LINE
  5
BD
330
1F
100
AcDbEntity
  8
0
  6
Continuous
 62
     7
370
    15
100
AcDbLine
 10
21.1193926316
 20
10.0016291029
 30
0.0
 11
21.1289628143
 21
9.8423518228
 31
0.0
  0
SPLINE
  5
BE
330
1F
100
AcDbEntity
  8
0
  6
Continuous
 62
     7
370
    15
100
AcDbSpline
210
0.0
220
0.0
230
1.0
 70
     8
 71
     3
 72
    15
 73
    11
 74
     0
 42
0.00000001
 43
0.00000001
 40
0.0
 40
0.0
 40
0.0
 40
0.0
 40
0.1650749803002351
 40
0.3191297079694159
 40
0.4621814374081663
 40
0.5928548889123857
 40
0.7111501935800907
 40
0.8198181700221082
 40
0.9160985371858644
 40
1.0
 40
1.0
 40
1.0
 40
1.0
 10
21.12896294754751
 20
9.842351723952776
 30
0.0
 10
21.13443154574565
 20
9.84245477616187
 30
0.0
 10
21.14500366359658
 20
9.842654000910128
 30
0.0
 10
21.16031725915045
 20
9.842749190923763
 30
0.0
 10
21.17449033723602
 20
9.8428931144318
 30
0.0
 10
21.18747862811291
 20
9.843031928283258
 30
0.0
 10
21.19932768678721
 20
9.843153385448709
 30
0.0
 10
21.21003665282057
 20
9.843343801939037
 30
0.0
 10
21.21960752423464
 20
9.843301679411379
 30
0.0
 10
21.22557754531659
 20
9.843306507164884
 30
0.0
 10
21.22835747879751
 20
9.843308755202777
 30
0.0
  0
SPLINE
  5
BF
330
1F
100
AcDbEntity
  8
0
  6
Continuous
 62
     7
370
    15
100
AcDbSpline
210
0.0
220
0.0
230
1.0
 70
     8
 71
     3
 72
    15
 73
    11
 74
     0
 42
0.00000001
 43
0.00000001
 40
0.0
 40
0.0
 40
0.0
 40
0.0
 40
0.0758876739593494
 40
0.1651672903821201
 40
0.2693374708588958
 40
0.3883862590193728
 40
0.519338150675648
 40
0.6651691157726699
 40
0.8258793140452996
 40
0.9999999999999999
 40
0.9999999999999999
 40
0.9999999999999999
 40
0.9999999999999999
 10
21.22835747879751
 20
9.843308755202777
 30
0.0
 10
21.23068168236841
 20
9.843306678743089
 30
0.0
 10
21.23574024308154
 20
9.843302159389651
 30
0.0
 10
21.24398956438868
 20
9.843342909423388
 30
0.0
 10
21.25355906418108
 20
9.843148242566178
 30
0.0
 10
21.26440561532475
 20
9.84303344116458
 30
0.0
 10
21.27652798069797
 20
9.842891298511688
 30
0.0
 10
21.28992632977403
 20
9.842748017043546
 30
0.0
 10
21.30464750459186
 20
9.842652884161993
 30
0.0
 10
21.31490060331414
 20
9.842454755803512
 30
0.0
 10
21.3202324787975
 20
9.842351723952776
 30
0.0
  0
SPLINE
  5
C0
330
1F
100
AcDbEntity
  8
0
  6
Continuous
 62
     7
370
    15
100
AcDbSpline
210
0.0
220
0.0
230
1.0
 70
     8
 71
     3
 72
    19
 73
    15
 74
     0
 42
0.00000001
 43
0.00000001
 40
0.0
 40
0.0
 40
0.0
 40
0.0
 40
0.0908030387200339
 40
0.1667490435736226
 40
0.2299054828058872
 40
0.278070965388296
 40
0.3258826433936458
 40
0.3864942830856379
 40
0.460210832509418
 40
0.5467571220048636
 40
0.6446011718614145
 40
0.7528675908482897
 40
0.8711088648022006
 40
1.0
 40
1.0
 40
1.0
 40
1.0
 10
21.3202324787975
 20
9.842351723952776
 30
0.0
 10
21.32135825800826
 20
9.848142177285682
 30
0.0
 10
21.32342561841068
 20
9.858775660137471
 30
0.0
 10
21.32646491137372
 20
9.873399027226922
 30
0.0
 10
21.32905017573969
 20
9.88528632887543
 30
0.0
 10
21.33124165807155
 20
9.895390066204225
 30
0.0
 10
21.33378787187505
 20
9.90524197992513
 30
0.0
 10
21.33719168486569
 20
9.916575130441059
 30
0.0
 10
21.34103981133689
 20
9.930399027257115
 30
0.0
 10
21.34599882485853
 20
9.946417969816851
 30
0.0
 10
21.35174501679648
 20
9.964540154920815
 30
0.0
 10
21.35811837662236
 20
9.98462444511815
 30
0.0
 10
21.36540726152483
 20
10.00653204301462
 30
0.0
 10
21.37058100438653
 20
10.02172997667625
 30
0.0
 10
21.3732793537975
 20
10.02965641145278
 30
0.0
  0
SPLINE
  5
C1
330
1F
100
AcDbEntity
  8
0
  6
Continuous
 62
     7
370
    15
100
AcDbSpline
210
0.0
220
0.0
230
1.0
 70
     8
 71
     3
 72
     9
 73
     5
 74
     0
 42
0.00000001
 43
0.00000001
 40
0.0
 40
0.0
 40
0.0
 40
0.0
 40
0.505381916181038
 40
1.0
 40
1.0
 40
1.0
 40
1.0
 10
21.3732793537975
 20
10.02965641145278
 30
0.0
 10
21.38125303167593
 20
10.05439411312662
 30
0.0
 10
21.39703056075468
 20
10.10334264270753
 30
0.0
 10
21.41068552018129
 20
10.15292503321755
 30
0.0
 10
21.4174395100475
 20
10.17744938020278
 30
0.0
  0
LINE
  5
C2
330
1F
100
AcDbEntity
  8
0
  6
Continuous
 62
     7
370
    15
100
AcDbLine
 10
21.4174396152
 20
10.1774493118
 30
0.0
 11
21.4527128344
 21
10.309382961
 31
0.0
  0
LINE
  5
C3
330
1F
100
AcDbEntity
  8
0
  6
Continuous
 62
     7
370
    15
100
AcDbLine
 10
21.4527128344
 20
10.309382961
 30
0.0
 11
21.5135526915
 21
10.1399884379
 31
0.0
  0
LINE
  5
C4
330
1F
100
AcDbEntity
  8
0
  6
Continuous
 62
     7
370
    15
100
AcDbLine
 10
21.5135526915
 20
10.1399884379
 30
0.0
 11
21.6020098563
 21
9.9198713007
 31
0.0
  0
SPLINE
  5
C5
330
1F
100
AcDbEntity
  8
0
  6
Continuous
 62
     7
370
    15
100
AcDbSpline
210
0.0
220
0.0
230
1.0
 70
     8
 71
     3
 72
    13
 73
     9
 74
     0
 42
0.00000001
 43
0.00000001
 40
0.0
 40
0.0
 40
0.0
 40
0.0
 40
0.1564766083543605
 40
0.333414545282732
 40
0.4462514322491943
 40
0.5951559029733914
 40
0.779534493631383
 40
1.0
 40
1.0
 40
1.0
 40
1.0
 10
21.6020098225475
 20
9.919871255202777
 30
0.0
 10
21.60360345426102
 20
9.915922560310468
 30
0.0
 10
21.60699910552609
 20
9.907508827894963
 30
0.0
 10
21.61073904021357
 20
9.895953257488543
 30
0.0
 10
21.61453911463051
 20
9.884640347482973
 30
0.0
 10
21.61795529919501
 20
9.872992211108159
 30
0.0
 10
21.62260204859171
 20
9.8586614158046
 30
0.0
 10
21.62573396549229
 20
9.84810203460418
 30
0.0
 10
21.6274395100475
 20
9.842351723952776
 30
0.0
  0
SPLINE
  5
C6
330
1F
100
AcDbEntity
  8
0
  6
Continuous
 62
     7
370
    15
100
AcDbSpline
210
0.0
220
0.0
230
1.0
 70
     8
 71
     3
 72
    11
 73
     7
 74
     0
 42
0.00000001
 43
0.00000001
 40
0.0
 40
0.0
 40
0.0
 40
0.0
 40
0.2734720579045838
 40
0.530843659374467
 40
0.7734716612384359
 40
1.0
 40
1.0
 40
1.0
 40
1.0
 10
21.6274395100475
 20
9.842351723952776
 30
0.0
 10
21.63673623093518
 20
9.842501904121752
 30
0.0
 10
21.65478233544036
 20
9.842793422718115
 30
0.0
 10
21.68107915113547
 20
9.842996467038741
 30
0.0
 10
21.70577844523952
 20
9.843379021653789
 30
0.0
 10
21.72172974275334
 20
9.843331635313394
 30
0.0
 10
21.7294316975475
 20
9.843308755202777
 30
0.0
  0
SPLINE
  5
C7
330
1F
100
AcDbEntity
  8
0
  6
Continuous
 62
     7
370
    15
100
AcDbSpline
210
0.0
220
0.0
230
1.0
 70
     8
 71
     3
 72
    15
 73
    11
 74
     0
 42
0.00000001
 43
0.00000001
 40
0.0
 40
0.0
 40
0.0
 40
0.0
 40
0.0847646034793283
 40
0.1795860243206081
 40
0.2873472164086213
 40
0.406600990991607
 40
0.5373475103498861
 40
0.6795868974277176
 40
0.8347558736324031
 40
0.9999999999999999
 40
0.9999999999999999
 40
0.9999999999999999
 40
0.9999999999999999
 10
21.7294316975475
 20
9.843308755202777
 30
0.0
 10
21.73212048389528
 20
9.8433064363713
 30
0.0
 10
21.73781706514056
 20
9.843301523592753
 30
0.0
 10
21.74693223797951
 20
9.843343625010167
 30
0.0
 10
21.75713984704931
 20
9.843151671338664
 30
0.0
 10
21.76848763962863
 20
9.84303278315572
 30
0.0
 10
21.78092904960624
 20
9.84289357973598
 30
0.0
 10
21.79450966059819
 20
9.842748060451864
 30
0.0
 10
21.80918530314307
 20
9.842654917109009
 30
0.0
 10
21.81934722144132
 20
9.842454884958599
 30
0.0
 10
21.8245879475475
 20
9.842351723952776
 30
0.0
  0
SPLINE
  5
C8
330
1F
100
AcDbEntity
  8
0
  6
Continuous
 62
     7
370
    15
100
AcDbSpline
210
0.0
220
0.0
230
1.0
 70
     8
 71
     3
 72
    19
 73
    15
 74
     0
 42
0.00000001
 43
0.00000001
 40
0.0
 40
0.0
 40
0.0
 40
0.0
 40
0.1278431842080008
 40
0.2620316169856915
 40
0.4028435078716183
 40
0.5502850032237296
 40
0.6232348323237673
 40
0.6913194921014783
 40
0.754541247379767
 40
0.8131543866684223
 40
0.8671604712368425
 40
0.9160476166544662
 40
0.9603277293909329
 40
1.0
 40
1.0
 40
1.0
 40
1.0
 10
21.8245879475475
 20
9.842351723952776
 30
0.0
 10
21.82352617247157
 20
9.865090275800677
 30
0.0
 10
21.82134992317253
 20
9.91169596342908
 30
0.0
 10
21.81915066440685
 20
9.983392068308609
 30
0.0
 10
21.81729016963292
 20
10.05858745754714
 30
0.0
 10
21.81653537519994
 20
10.12289771300858
 30
0.0
 10
21.81594750146526
 20
10.17425861402565
 30
0.0
 10
21.81573197291445
 20
10.21062669760213
 30
0.0
 10
21.81539378315155
 20
10.24444106648499
 30
0.0
 10
21.81530693076753
 20
10.2757502480492
 30
0.0
 10
21.81515524724045
 20
10.30450668055223
 30
0.0
 10
21.81503734713729
 20
10.33071117807509
 30
0.0
 10
21.81484796344932
 20
10.35436321370005
 30
0.0
 10
21.8148703414302
 20
10.36931132814814
 30
0.0
 10
21.8148809162975
 20
10.37637516145278
 30
0.0
  0
SPLINE
  5
C9
330
1F
100
AcDbEntity
  8
0
  6
Continuous
 62
     7
370
    15
100
AcDbSpline
210
0.0
220
0.0
230
1.0
 70
     8
 71
     3
 72
    11
 73
     7
 74
     0
 42
0.00000001
 43
0.00000001
 40
0.0
 40
0.0
 40
0.0
 40
0.0
 40
0.2122370667224688
 40
0.4487062617307563
 40
0.7122374814045541
 40
1.0
 40
1.0
 40
1.0
 40
1.0
 10
21.8148809162975
 20
10.37637516145278
 30
0.0
 10
21.81485923487678
 20
10.38316566239914
 30
0.0
 10
21.81481339656308
 20
10.39752196849579
 30
0.0
 10
21.81520211742171
 20
10.42030702372704
 30
0.0
 10
21.81539965069829
 20
10.44551017258721
 30
0.0
 10
21.81568762937254
 20
10.46314615238261
 30
0.0
 10
21.8158379475475
 20
10.47235172395278
 30
0.0
  0
SPLINE
  5
CA
330
1F
100
AcDbEntity
  8
0
  6
Continuous
 62
     7
370
    15
100
AcDbSpline
210
0.0
220
0.0
230
1.0
 70
     8
 71
     3
 72
    11
 73
     7
 74
     0
 42
0.00000001
 43
0.00000001
 40
0.0
 40
0.0
 40
0.0
 40
0.0
 40
0.3368571963606557
 40
0.6168521850127335
 40
0.8379159630823734
 40
1.0
 40
1.0
 40
1.0
 40
1.0
 10
21.8158379475475
 20
10.47235172395278
 30
0.0
 10
21.80854649166639
 20
10.4722010228149
 30
0.0
 10
21.79519439308937
 20
10.47192505921019
 30
0.0
 10
21.77705436929109
 20
10.47174126743151
 30
0.0
 10
21.76270133258824
 20
10.47134061662913
 30
0.0
 10
21.75440581578447
 20
10.47137861721436
 30
0.0
 10
21.75089654129751
 20
10.47139469270278
 30
0.0
  0
SPLINE
  5
CB
330
1F
100
AcDbEntity
  8
0
  6
Continuous
 62
     7
370
    15
100
AcDbSpline
210
0.0
220
0.0
230
1.0
 70
     8
 71
     3
 72
    11
 73
     7
 74
     0
 42
0.00000001
 43
0.00000001
 40
0.0
 40
0.0
 40
0.0
 40
0.0
 40
0.2040966051369983
 40
0.4391531036454452
 40
0.703067793265371
 40
1.0
 40
1.0
 40
1.0
 40
1.0
 10
21.75089654129751
 20
10.47139469270278
 30
0.0
 10
21.7463846343335
 20
10.47137408982458
 30
0.0
 10
21.73667639864151
 20
10.47132975876919
 30
0.0
 10
21.72113805939204
 20
10.47171691852465
 30
0.0
 10
21.70354510628268
 20
10.47191874628874
 30
0.0
 10
21.69115023258847
 20
10.47220184269222
 30
0.0
 10
21.6845879475475
 20
10.47235172395278
 30
0.0
  0
SPLINE
  5
CC
330
1F
100
AcDbEntity
  8
0
  6
Continuous
 62
     7
370
    15
100
AcDbSpline
210
0.0
220
0.0
230
1.0
 70
     8
 71
     3
 72
    11
 73
     7
 74
     0
 42
0.00000001
 43
0.00000001
 40
0.0
 40
0.0
 40
0.0
 40
0.0
 40
0.2892709107400679
 40
0.5538190973305732
 40
0.7901700590869348
 40
1.0
 40
1.0
 40
1.0
 40
1.0
 10
21.6845879475475
 20
10.47235172395278
 30
0.0
 10
21.68482771369667
 20
10.46487809444844
 30
0.0
 10
21.6852867542271
 20
10.45056957398476
 30
0.0
 10
21.68575497168332
 20
10.43014950956459
 30
0.0
 10
21.68641385431264
 20
10.4117885988127
 30
0.0
 10
21.68656680102324
 20
10.40025582514262
 30
0.0
 10
21.6866387287975
 20
10.39483219270278
 30
0.0
  0
LINE
  5
CD
330
1F
100
AcDbEntity
  8
0
  6
Continuous
 62
     7
370
    15
100
AcDbLine
 10
21.686638772
 20
10.3948323205
 30
0.0
 11
21.6910137881
 21
10.1203010119
 31
0.0
  0
SPLINE
  5
CE
330
1F
100
AcDbEntity
  8
0
  6
Continuous
 62
     7
370
    15
100
AcDbSpline
210
0.0
220
0.0
230
1.0
 70
     8
 71
     3
 72
     9
 73
     5
 74
     0
 42
0.00000001
 43
0.00000001
 40
0.0
 40
0.0
 40
0.0
 40
0.0
 40
0.5047878290214436
 40
0.9999999999999999
 40
0.9999999999999999
 40
0.9999999999999999
 40
0.9999999999999999
 10
21.6910137287975
 20
10.12030094270278
 30
0.0
 10
21.69127565553241
 20
10.10102388233973
 30
0.0
 10
21.69179454033876
 20
10.06283544106844
 30
0.0
 10
21.69191239632747
 20
10.02464366335686
 30
0.0
 10
21.6919707600475
 20
10.00573063020278
 30
0.0
  0
LINE
  5
CF
330
1F
100
AcDbEntity
  8
0
  6
Continuous
 62
     7
370
    15
100
AcDbLine
 10
21.6919706304
 20
10.0057307355
 30
0.0
 11
21.6915605552
 21
9.9684065533
 31
0.0
  0
LINE
  5
D0
330
1F
100
AcDbEntity
  8
0
  6
Continuous
 62
     7
370
    15
100
AcDbLine
 10
21.6915605552
 20
9.9684065533
 30
0.0
 11
21.5220293403
 21
10.4173908599
 31
0.0
  0
LINE
  5
D1
330
1F
100
AcDbEntity
  8
0
  6
Continuous
 62
     7
370
    15
100
AcDbLine
 10
21.5220293403
 20
10.4173908599
 30
0.0
 11
21.5023419144
 21
10.4723517984
 31
0.0
  0
SPLINE
  5
D2
330
1F
100
AcDbEntity
  8
0
  6
Continuous
 62
     7
370
    15
100
AcDbSpline
210
0.0
220
0.0
230
1.0
 70
     8
 71
     3
 72
    11
 73
     7
 74
     0
 42
0.00000001
 43
0.00000001
 40
0.0
 40
0.0
 40
0.0
 40
0.0
 40
0.334902676537877
 40
0.6139664453679914
 40
0.8349101976559835
 40
1.0
 40
1.0
 40
1.0
 40
1.0
 10
21.5023418537975
 20
10.47235172395278
 30
0.0
 10
21.49577958729034
 20
10.47220105547337
 30
0.0
 10
21.48374919242274
 20
10.47192483973306
 30
0.0
 10
21.46738630322262
 20
10.47174048861926
 30
0.0
 10
21.45435513926873
 20
10.47133944393003
 30
0.0
 10
21.4467886503277
 20
10.47137814285263
 30
0.0
 10
21.4435527912975
 20
10.47139469270278
 30
0.0
  0
SPLINE
  5
D3
330
1F
100
AcDbEntity
  8
0
  6
Continuous
 62
     7
370
    15
100
AcDbSpline
210
0.0
220
0.0
230
1.0
 70
     8
 71
     3
 72
    11
 73
     7
 74
     0
 42
0.00000001
 43
0.00000001
 40
0.0
 40
0.0
 40
0.0
 40
0.0
 40
0.1823908953058789
 40
0.4087740694447086
 40
0.6812971130021016
 40
1.0
 40
1.0
 40
1.0
 40
1.0
 10
21.4435527912975
 20
10.47139469270278
 30
0.0
 10
21.43977005171562
 20
10.47137618279649
 30
0.0
 10
21.43129218416668
 20
10.47133469843563
 30
0.0
 10
21.41716696884103
 20
10.47173043518568
 30
0.0
 10
21.40021183999233
 20
10.47192275965312
 30
0.0
 10
21.38795361115493
 20
10.4722014790566
 30
0.0
 10
21.3813457600475
 20
10.47235172395278
 30
0.0
  0
LINE
  5
D4
330
1F
100
AcDbEntity
  8
0
  6
Continuous
 62
     7
370
    15
100
AcDbLine
 10
21.3813456588
 20
10.4723517984
 30
0.0
 11
21.2968534349
 21
10.1879766302
 31
0.0
  0
SPLINE
  5
D5
330
1F
100
AcDbEntity
  8
0
  6
Continuous
 62
     7
370
    15
100
AcDbSpline
210
0.0
220
0.0
230
1.0
 70
     8
 71
     3
 72
    15
 73
    11
 74
     0
 42
0.00000001
 43
0.00000001
 40
0.0
 40
0.0
 40
0.0
 40
0.0
 40
0.0679865455933855
 40
0.1514408910149542
 40
0.2503969846820724
 40
0.3687554730650041
 40
0.5019939083361615
 40
0.6507482575080785
 40
0.8169663320360662
 40
1.0
 40
1.0
 40
1.0
 40
1.0
 10
21.2968535725475
 20
10.18797672395278
 30
0.0
 10
21.29645055942087
 20
10.18651631771265
 30
0.0
 10
21.29555284257918
 20
10.18326324432412
 30
0.0
 10
21.2938927233783
 20
10.17793553209744
 30
0.0
 10
21.29179607360533
 20
10.17157015387092
 30
0.0
 10
21.28935526317214
 20
10.16414999557591
 30
0.0
 10
21.28665322486609
 20
10.15564799855078
 30
0.0
 10
21.28347467823403
 20
10.1461797375779
 30
0.0
 10
21.27989571499176
 20
10.13567581734434
 30
0.0
 10
21.27747675481283
 20
10.12827898881634
 30
0.0
 10
21.2762090412975
 20
10.12440250520278
 30
0.0
  0
LINE
  5
D6
330
1F
100
AcDbEntity
  8
0
  6
Continuous
 62
     7
370
    15
100
AcDbLine
 10
21.2762091667
 20
10.1244026446
 30
0.0
 11
21.2458574373
 21
10.0302032528
 31
0.0
  0
SPLINE
  5
D7
330
1F
100
AcDbEntity
  8
0
  6
Continuous
 62
     7
370
    15
100
AcDbSpline
210
0.0
220
0.0
230
1.0
 70
     8
 71
     3
 72
    13
 73
     9
 74
     0
 42
0.00000001
 43
0.00000001
 40
0.0
 40
0.0
 40
0.0
 40
0.0
 40
0.2057184469003724
 40
0.3678288834957117
 40
0.4605766739636795
 40
0.5964979153100928
 40
0.7777262371053142
 40
1.0
 40
1.0
 40
1.0
 40
1.0
 10
21.2458574787975
 20
10.03020328645278
 30
0.0
 10
21.2445012056336
 20
10.02615844681872
 30
0.0
 10
21.24207616086434
 20
10.01892618899776
 30
0.0
 10
21.23945587273201
 20
10.00973641794576
 30
0.0
 10
21.23760028100967
 20
10.00184774837132
 30
0.0
 10
21.23549902097041
 20
9.993611570076117
 30
0.0
 10
21.23281722623017
 20
9.982752004318703
 30
0.0
 10
21.23073497795304
 20
9.974647960772195
 30
0.0
 10
21.2295879475475
 20
9.970183755202775
 30
0.0
  0
LINE
  5
D8
330
1F
100
AcDbEntity
  8
0
  6
Continuous
 62
     7
370
    15
100
AcDbLine
 10
21.2295878919
 20
9.9701838394
 30
0.0
 11
21.2264433949
 21
10.0292461172
 31
0.0
  0
SPLINE
  5
D9
330
1F
100
AcDbEntity
  8
0
  6
Continuous
 62
     7
370
    15
100
AcDbSpline
210
0.0
220
0.0
230
1.0
 70
     8
 71
     3
 72
    15
 73
    11
 74
     0
 42
0.00000001
 43
0.00000001
 40
0.0
 40
0.0
 40
0.0
 40
0.0
 40
0.081266036711823
 40
0.1741842471120227
 40
0.2801421955106153
 40
0.399142634426106
 40
0.5312432377283649
 40
0.6749355890624116
 40
0.8316704768769352
 40
1.0
 40
1.0
 40
1.0
 40
1.0
 10
21.2264434162975
 20
10.02924625520278
 30
0.0
 10
21.22636003349134
 20
10.0317986620884
 30
0.0
 10
21.22618131219644
 20
10.03726944779033
 30
0.0
 10
21.2257217965073
 20
10.04606099300146
 30
0.0
 10
21.2253222043951
 20
10.05604208810013
 30
0.0
 10
21.22495253276991
 20
10.06725641969427
 30
0.0
 10
21.22435768444264
 20
10.07964844083847
 30
0.0
 10
21.2238255033995
 20
10.09322985632243
 30
0.0
 10
21.22327745510777
 20
10.1079499172481
 30
0.0
 10
21.22293127434387
 20
10.11815890780236
 30
0.0
 10
21.2227520100475
 20
10.12344547395278
 30
0.0
  0
LINE
  5
DA
330
1F
100
AcDbEntity
  8
0
  6
Continuous
 62
     7
370
    15
100
AcDbLine
 10
21.2227521309
 20
10.123445509
 30
0.0
 11
21.2131816548
 21
10.4095979633
 31
0.0
  0
SPLINE
  5
DB
330
1F
100
AcDbEntity
  8
0
  6
Continuous
 62
     7
370
    15
100
AcDbSpline
210
0.0
220
0.0
230
1.0
 70
     8
 71
     3
 72
    11
 73
     7
 74
     0
 42
0.00000001
 43
0.00000001
 40
0.0
 40
0.0
 40
0.0
 40
0.0
 40
0.1895416572319025
 40
0.4183252111932679
 40
0.6884674787187183
 40
1.0
 40
1.0
 40
1.0
 40
1.0
 10
21.2131816975475
 20
10.40959781770278
 30
0.0
 10
21.21314592110323
 20
10.41356280707032
 30
0.0
 10
21.21306696121218
 20
10.42231368030198
 30
0.0
 10
21.21270140925069
 20
10.43671211116623
 30
0.0
 10
21.212643229282
 20
10.45366701868959
 30
0.0
 10
21.21254872061129
 20
10.46583487923566
 30
0.0
 10
21.2124981037975
 20
10.47235172395278
 30
0.0
  0
LINE
  5
DC
330
1F
100
AcDbEntity
  8
0
  6
Continuous
 62
     7
370
    15
100
AcDbLine
 10
21.212498196
 20
10.4723517984
 30
0.0
 11
21.1471466309
 21
10.4713946628
 31
0.0
  0
SPLINE
  5
DD
330
1F
100
AcDbEntity
  8
0
  6
Continuous
 62
     7
370
    15
100
AcDbSpline
210
0.0
220
0.0
230
1.0
 70
     8
 71
     3
 72
    11
 73
     7
 74
     0
 42
0.00000001
 43
0.00000001
 40
0.0
 40
0.0
 40
0.0
 40
0.0
 40
0.156681463439031
 40
0.3752497675904308
 40
0.6577188161421195
 40
1.0
 40
1.0
 40
1.0
 40
1.0
 10
21.14714654129751
 20
10.47139469270278
 30
0.0
 10
21.14368284637
 20
10.47137914621106
 30
0.0
 10
21.13538734868942
 20
10.47134191259533
 30
0.0
 10
21.12085204237105
 20
10.47174555018888
 30
0.0
 10
21.10221070179399
 20
10.4719251781325
 30
0.0
 10
21.08840284306457
 20
10.47220074787705
 30
0.0
 10
21.0808379475475
 20
10.47235172395278
 30
0.0
  0
LINE
  5
DE
330
1F
100
AcDbEntity
  8
0
  6
Continuous
 62
     7
370
    15
100
AcDbLine
 10
21.0808379303
 20
10.4723517984
 30
0.0
 11
21.0917753239
 21
10.3680354568
 31
0.0
  0
CIRCLE
  5
DF
330
1F
100
AcDbEntity
  8
0
  6
Continuous
 62
     7
370
    15
100
AcDbCircle
 10
18.4020879475
 20
1.6846810739
 30
0.0
 40
0.1004999999999996
  0
CIRCLE
  5
E0
330
1F
100
AcDbEntity
  8
0
  6
Continuous
 62
     7
370
    15
100
AcDbCircle
 10
18.4020879475
 20
0.6846810739
 30
0.0
 40
0.1004999999999997
  0
CIRCLE
  5
E1
330
1F
100
AcDbEntity
  8
0
  6
Continuous
 62
     7
370
    15
100
AcDbCircle
 10
19.4020879475
 20
1.6846810739
 30
0.0
 40
0.1004999999999996
  0
CIRCLE
  5
E2
330
1F
100
AcDbEntity
  8
0
  6
Continuous
 62
     7
370
    15
100
AcDbCircle
 10
20.4020879475
 20
2.6846810739
 30
0.0
 40
0.1005000000000003
  0
CIRCLE
  5
E3
330
1F
100
AcDbEntity
  8
0
  6
Continuous
 62
     7
370
    15
100
AcDbCircle
 10
20.4020879475
 20
1.6846810739
 30
0.0
 40
0.1005
  0
CIRCLE
  5
E4
330
1F
100
AcDbEntity
  8
0
  6
Continuous
 62
     7
370
    15
100
AcDbCircle
 10
21.4020879475
 20
2.6846810739
 30
0.0
 40
0.1005000000000003
  0
CIRCLE
  5
E5
330
1F
100
AcDbEntity
  8
0
  6
Continuous
 62
     7
370
    15
100
AcDbCircle
 10
22.4020879475
 20
6.6846810739
 30
0.0
 40
0.1005000000000003
  0
CIRCLE
  5
E6
330
1F
100
AcDbEntity
  8
0
  6
Continuous
 62
     7
370
    15
100
AcDbCircle
 10
22.4020879475
 20
5.6846810739
 30
0.0
 40
0.1004999999999994
  0
CIRCLE
  5
E7
330
1F
100
AcDbEntity
  8
0
  6
Continuous
 62
     7
370
    15
100
AcDbCircle
 10
22.4020879475
 20
4.6846810739
 30
0.0
 40
0.1004999999999994
  0
CIRCLE
  5
E8
330
1F
100
AcDbEntity
  8
0
  6
Continuous
 62
     7
370
    15
100
AcDbCircle
 10
22.4020879475
 20
3.6846810739
 30
0.0
 40
0.1004999999999998
  0
CIRCLE
  5
E9
330
1F
100
AcDbEntity
  8
0
  6
Continuous
 62
     7
370
    15
100
AcDbCircle
 10
23.4020879475
 20
6.6846810739
 30
0.0
 40
0.1004999999999994
  0
CIRCLE
  5
EA
330
1F
100
AcDbEntity
  8
0
  6
Continuous
 62
     7
370
    15
100
AcDbCircle
 10
23.4020879475
 20
5.6846810739
 30
0.0
 40
0.1004999999999994
  0
CIRCLE
  5
EB
330
1F
100
AcDbEntity
  8
0
  6
Continuous
 62
     7
370
    15
100
AcDbCircle
 10
22.4020879475
 20
7.6846810739
 30
0.0
 40
0.1004999999999994
  0
CIRCLE
  5
EC
330
1F
100
AcDbEntity
  8
0
  6
Continuous
 62
     7
370
    15
100
AcDbCircle
 10
23.4020879475
 20
7.6846810739
 30
0.0
 40
0.1004999999999985
  0
CIRCLE
  5
ED
330
1F
100
AcDbEntity
  8
0
  6
Continuous
 62
     7
370
    15
100
AcDbCircle
 10
18.4020879475
 20
8.6846810739
 30
0.0
 40
0.1005000000000003
  0
CIRCLE
  5
EE
330
1F
100
AcDbEntity
  8
0
  6
Continuous
 62
     7
370
    15
100
AcDbCircle
 10
19.4020879475
 20
8.6846810739
 30
0.0
 40
0.1005000000000003
  0
CIRCLE
  5
EF
330
1F
100
AcDbEntity
  8
0
  6
Continuous
 62
     7
370
    15
100
AcDbCircle
 10
20.4020879475
 20
8.6846810739
 30
0.0
 40
0.1005000000000003
  0
CIRCLE
  5
F0
330
1F
100
AcDbEntity
  8
0
  6
Continuous
 62
     7
370
    15
100
AcDbCircle
 10
21.4020879475
 20
8.6846810739
 30
0.0
 40
0.1005000000000003
  0
CIRCLE
  5
F1
330
1F
100
AcDbEntity
  8
0
  6
Continuous
 62
     7
370
    15
100
AcDbCircle
 10
22.4020879475
 20
8.6846810739
 30
0.0
 40
0.1005000000000003
  0
CIRCLE
  5
F2
330
1F
100
AcDbEntity
  8
0
  6
Continuous
 62
     7
370
    15
100
AcDbCircle
 10
20.4020879475
 20
9.6846810739
 30
0.0
 40
0.1005000000000003
  0
CIRCLE
  5
F3
330
1F
100
AcDbEntity
  8
0
  6
Continuous
 62
     7
370
    15
100
AcDbCircle
 10
21.4020879475
 20
9.6846810739
 30
0.0
 40
0.1005000000000003
  0
CIRCLE
  5
F4
330
1F
100
AcDbEntity
  8
0
  6
Continuous
 62
     7
370
    15
100
AcDbCircle
 10
22.4020879475
 20
9.6846810739
 30
0.0
 40
0.1005000000000003
  0
CIRCLE
  5
F5
330
1F
100
AcDbEntity
  8
0
  6
Continuous
 62
     7
370
    15
100
AcDbCircle
 10
21.4020879475
 20
10.6846810739
 30
0.0
 40
0.1005000000000003
  0
LINE
  5
F6
330
1F
100
AcDbEntity
  8
0
  6
Continuous
 62
     7
370
    15
100
AcDbLine
 10
16.9690170837
 20
2.2568054251
 30
0.0
 11
16.9690170837
 21
0.3827893405
 31
0.0
  0
LINE
  5
F7
330
1F
100
AcDbEntity
  8
0
  6
Continuous
 62
     7
370
    15
100
AcDbLine
 10
16.9690170837
 20
0.3827893405
 30
0.0
 11
17.8351588113
 21
0.3827893405
 31
0.0
  0
LINE
  5
F8
330
1F
100
AcDbEntity
  8
0
  6
Continuous
 62
     7
370
    15
100
AcDbLine
 10
17.8351588113
 20
0.3827893405
 30
0.0
 11
17.8351588113
 21
2.2568054251
 31
0.0
  0
LINE
  5
F9
330
1F
100
AcDbEntity
  8
0
  6
Continuous
 62
     7
370
    15
100
AcDbLine
 10
17.8351588113
 20
2.2568054251
 30
0.0
 11
16.9690170837
 21
2.2568054251
 31
0.0
  0
CIRCLE
  5
FA
330
1F
100
AcDbEntity
  8
0
  6
Continuous
 62
     7
370
    15
100
AcDbCircle
 10
16.8745288924
 20
1.544206905
 30
0.0
 40
0.0424999999999993
  0
CIRCLE
  5
FB
330
1F
100
AcDbEntity
  8
0
  6
Continuous
 62
     7
370
    15
100
AcDbCircle
 10
16.8745288924
 20
1.229246275
 30
0.0
 40
0.0424999999999993
  0
CIRCLE
  5
FC
330
1F
100
AcDbEntity
  8
0
  6
Continuous
 62
     7
370
    15
100
AcDbCircle
 10
16.8745288924
 20
0.9142856451
 30
0.0
 40
0.0424999999999993
  0
CIRCLE
  5
FD
330
1F
100
AcDbEntity
  8
0
  6
Continuous
 62
     7
370
    15
100
AcDbCircle
 10
16.8745288924
 20
0.5993250152
 30
0.0
 40
0.0424999999999994
  0
CIRCLE
  5
FE
330
1F
100
AcDbEntity
  8
0
  6
Continuous
 62
     7
370
    15
100
AcDbCircle
 10
17.9296470027
 20
0.5993250152
 30
0.0
 40
0.0424999999999994
  0
CIRCLE
  5
FF
330
1F
100
AcDbEntity
  8
0
  6
Continuous
 62
     7
370
    15
100
AcDbCircle
 10
17.9296470027
 20
0.9142856451
 30
0.0
 40
0.0424999999999993
  0
CIRCLE
  5
100
330
1F
100
AcDbEntity
  8
0
  6
Continuous
 62
     7
370
    15
100
AcDbCircle
 10
17.9296470027
 20
1.229246275
 30
0.0
 40
0.0424999999999993
  0
CIRCLE
  5
101
330
1F
100
AcDbEntity
  8
0
  6
Continuous
 62
     7
370
    15
100
AcDbCircle
 10
19.4020879475
 20
2.505195024
 30
0.0
 40
0.0747500000000003
  0
CIRCLE
  5
102
330
1F
100
AcDbEntity
  8
0
  6
Continuous
 62
     7
370
    15
100
AcDbCircle
 10
15.4020879475
 20
2.505195024
 30
0.0
 40
0.0747500000000003
  0
CIRCLE
  5
103
330
1F
100
AcDbEntity
  8
0
  6
Continuous
 62
     7
370
    15
100
AcDbCircle
 10
17.9296470027
 20
1.544206905
 30
0.0
 40
0.0424999999999993
  0
CIRCLE
  5
104
330
1F
100
AcDbEntity
  8
0
  6
Continuous
 62
     7
370
    15
100
AcDbCircle
 10
17.1031640091
 20
10.5587338112
 30
0.0
 40
0.0425000000000004
  0
CIRCLE
  5
105
330
1F
100
AcDbEntity
  8
0
  6
Continuous
 62
     7
370
    15
100
AcDbCircle
 10
17.418124639
 20
10.2437731812
 30
0.0
 40
0.0425000000000004
  0
CIRCLE
  5
106
330
1F
100
AcDbEntity
  8
0
  6
Continuous
 62
     7
370
    15
100
AcDbCircle
 10
17.733085269
 20
10.5587338112
 30
0.0
 40
0.0425000000000004
  0
CIRCLE
  5
107
330
1F
100
AcDbEntity
  8
0
  6
Continuous
 62
     7
370
    15
100
AcDbCircle
 10
17.418124639
 20
10.8736944411
 30
0.0
 40
0.0425000000000004
  0
CIRCLE
  5
108
330
1F
100
AcDbEntity
  8
0
  6
Continuous
 62
     7
370
    15
100
AcDbCircle
 10
18.7763923556
 20
10.9112338112
 30
0.0
 40
0.0579999999999998
  0
CIRCLE
  5
109
330
1F
100
AcDbEntity
  8
0
  6
Continuous
 62
     7
370
    15
100
AcDbCircle
 10
18.7763923556
 20
10.2062338112
 30
0.0
 40
0.0579999999999998
  0
CIRCLE
  5
10A
330
1F
100
AcDbEntity
  8
0
  6
Continuous
 62
     7
370
    15
100
AcDbCircle
 10
16.0598569225
 20
10.2062338112
 30
0.0
 40
0.0579999999999998
  0
CIRCLE
  5
10B
330
1F
100
AcDbEntity
  8
0
  6
Continuous
 62
     7
370
    15
100
AcDbCircle
 10
16.0598569225
 20
10.9112338112
 30
0.0
 40
0.0579999999999998
  0
CIRCLE
  5
10C
330
1F
100
AcDbEntity
  8
0
  6
Continuous
 62
     7
370
    15
100
AcDbCircle
 10
16.190124639
 20
9.6887338112
 30
0.0
 40
0.0579999999999998
  0
CIRCLE
  5
10D
330
1F
100
AcDbEntity
  8
0
  6
Continuous
 62
     7
370
    15
100
AcDbCircle
 10
18.646124639
 20
9.6887338112
 30
0.0
 40
0.0579999999999998
  0
CIRCLE
  5
10E
330
1F
100
AcDbEntity
  8
0
  6
Continuous
 62
     7
370
    15
100
AcDbCircle
 10
18.646124639
 20
11.4287338112
 30
0.0
 40
0.0579999999999998
  0
CIRCLE
  5
10F
330
1F
100
AcDbEntity
  8
0
  6
Continuous
 62
     7
370
    15
100
AcDbCircle
 10
16.190124639
 20
11.4287338112
 30
0.0
 40
0.0579999999999998
  0
LINE
  5
110
330
1F
100
AcDbEntity
  8
0
  6
Continuous
 62
     7
370
    15
100
AcDbLine
 10
18.891624639
 20
10.0214222912
 30
0.0
 11
18.891624639
 21
11.0960453312
 31
0.0
  0
ARC
  5
111
330
1F
100
AcDbEntity
  8
0
  6
Continuous
 62
     7
370
    15
100
AcDbCircle
 10
18.211436159
 20
10.0214222912
 30
0.0
 40
0.6801884800000018
100
AcDbArc
 50
270.0
 51
0.0
  0
LINE
  5
112
330
1F
100
AcDbEntity
  8
0
  6
Continuous
 62
     7
370
    15
100
AcDbLine
 10
16.624813119
 20
9.3412338112
 30
0.0
 11
18.211436159
 21
9.3412338112
 31
0.0
  0
ARC
  5
113
330
1F
100
AcDbEntity
  8
0
  6
Continuous
 62
     7
370
    15
100
AcDbCircle
 10
16.624813119
 20
10.0214222912
 30
0.0
 40
0.68018848
100
AcDbArc
 50
180.0
 51
270.0
  0
LINE
  5
114
330
1F
100
AcDbEntity
  8
0
  6
Continuous
 62
     7
370
    15
100
AcDbLine
 10
15.944624639
 20
11.0960453312
 30
0.0
 11
15.944624639
 21
10.0214222912
 31
0.0
  0
ARC
  5
115
330
1F
100
AcDbEntity
  8
0
  6
Continuous
 62
     7
370
    15
100
AcDbCircle
 10
16.624813119
 20
11.0960453312
 30
0.0
 40
0.68018848
100
AcDbArc
 50
90.0
 51
180.0
  0
LINE
  5
116
330
1F
100
AcDbEntity
  8
0
  6
Continuous
 62
     7
370
    15
100
AcDbLine
 10
18.211436159
 20
11.7762338112
 30
0.0
 11
16.624813119
 21
11.7762338112
 31
0.0
  0
ARC
  5
117
330
1F
100
AcDbEntity
  8
0
  6
Continuous
 62
     7
370
    15
100
AcDbCircle
 10
18.211436159
 20
11.0960453312
 30
0.0
 40
0.6801884800000018
100
AcDbArc
 50
0.0
 51
90.0
  0
CIRCLE
  5
118
330
1F
100
AcDbEntity
  8
0
  6
Continuous
 62
     7
370
    15
100
AcDbCircle
 10
9.1262051936
 20
6.8236168826
 30
0.0
 40
0.0425000000000004
  0
CIRCLE
  5
119
330
1F
100
AcDbEntity
  8
0
  6
Continuous
 62
     7
370
    15
100
AcDbCircle
 10
8.4962839338
 20
5.7684987724
 30
0.0
 40
0.0425000000000004
  0
CIRCLE
  5
11A
330
1F
100
AcDbEntity
  8
0
  6
Continuous
 62
     7
370
    15
100
AcDbCircle
 10
10.2245014019
 20
5.2772411355
 30
0.0
 40
0.0980000000000008
  0
CIRCLE
  5
11B
330
1F
100
AcDbEntity
  8
0
  6
Continuous
 62
     7
370
    15
100
AcDbCircle
 10
9.2245014019
 20
5.2772411355
 30
0.0
 40
0.097999999999999
  0
CIRCLE
  5
11C
330
1F
100
AcDbEntity
  8
0
  6
Continuous
 62
     7
370
    15
100
AcDbCircle
 10
9.1520178371
 20
3.6650025482
 30
0.0
 40
0.0980000000000008
  0
CIRCLE
  5
11D
330
1F
100
AcDbEntity
  8
0
  6
Continuous
 62
     7
370
    15
100
AcDbCircle
 10
8.1520178371
 20
3.6650025482
 30
0.0
 40
0.097999999999999
  0
CIRCLE
  5
11E
330
1F
100
AcDbEntity
  8
0
  6
Continuous
 62
     7
370
    15
100
AcDbCircle
 10
7.1520178371
 20
3.6650025482
 30
0.0
 40
0.0979999999999999
  0
CIRCLE
  5
11F
330
1F
100
AcDbEntity
  8
0
  6
Continuous
 62
     7
370
    15
100
AcDbCircle
 10
8.0795342722
 20
2.0527639608
 30
0.0
 40
0.0979999999999999
  0
CIRCLE
  5
120
330
1F
100
AcDbEntity
  8
0
  6
Continuous
 62
     7
370
    15
100
AcDbCircle
 10
6.6157760546
 20
2.8588832545
 30
0.0
 40
0.0979999999999999
  0
CIRCLE
  5
121
330
1F
100
AcDbEntity
  8
0
  6
Continuous
 62
     7
370
    15
100
AcDbCircle
 10
7.5432924898
 20
1.2466446671
 30
0.0
 40
0.0979999999999999
  0
CIRCLE
  5
122
330
1F
100
AcDbEntity
  8
0
  6
Continuous
 62
     7
370
    15
100
AcDbCircle
 10
9.2245014019
 20
7.3148745195
 30
0.0
 40
0.097999999999999
  0
CIRCLE
  5
123
330
1F
100
AcDbEntity
  8
0
  6
Continuous
 62
     7
370
    15
100
AcDbCircle
 10
9.1520178371
 20
8.9271131069
 30
0.0
 40
0.0980000000000008
  0
CIRCLE
  5
124
330
1F
100
AcDbEntity
  8
0
  6
Continuous
 62
     7
370
    15
100
AcDbCircle
 10
8.1520178371
 20
8.9271131069
 30
0.0
 40
0.097999999999999
  0
CIRCLE
  5
125
330
1F
100
AcDbEntity
  8
0
  6
Continuous
 62
     7
370
    15
100
AcDbCircle
 10
7.1520178371
 20
8.9271131069
 30
0.0
 40
0.0979999999999999
  0
CIRCLE
  5
126
330
1F
100
AcDbEntity
  8
0
  6
Continuous
 62
     7
370
    15
100
AcDbCircle
 10
8.0795342722
 20
10.5393516942
 30
0.0
 40
0.0979999999999999
  0
CIRCLE
  5
127
330
1F
100
AcDbEntity
  8
0
  6
Continuous
 62
     7
370
    15
100
AcDbCircle
 10
6.6157760546
 20
9.7332324005
 30
0.0
 40
0.0979999999999999
  0
ARC
  5
128
330
1F
100
AcDbEntity
  8
0
  6
Continuous
 62
     7
370
    15
100
AcDbCircle
 10
7.57741832
 20
1.3962953608
 30
0.0
 40
0.5000000000000012
100
AcDbArc
 50
209.7438975587
 51
304.5643537333
  0
LINE
  5
129
330
1F
100
AcDbEntity
  8
0
  6
Continuous
 62
     7
370
    15
100
AcDbLine
 10
5.8953527496
 20
3.3322149384
 30
0.0
 11
7.1432924898
 21
1.1482333453
 31
0.0
  0
ARC
  5
12A
330
1F
100
AcDbEntity
  8
0
  6
Continuous
 62
     7
370
    15
100
AcDbCircle
 10
6.3294785798
 20
3.5802769539
 30
0.0
 40
0.5000000000000009
100
AcDbArc
 50
128.076980555
 51
209.7438975587
  0
ARC
  5
12B
330
1F
100
AcDbEntity
  8
0
  6
Continuous
 62
     7
370
    15
100
AcDbCircle
 10
4.2017957448
 20
6.2960578275
 30
0.0
 40
2.950000000000001
100
AcDbArc
 50
308.076980555
 51
51.923019445
  0
ARC
  5
12C
330
1F
100
AcDbEntity
  8
0
  6
Continuous
 62
     7
370
    15
100
AcDbCircle
 10
6.3294785798
 20
9.0118387012
 30
0.0
 40
0.5000000000000004
100
AcDbArc
 50
150.2561024413
 51
231.923019445
  0
LINE
  5
12D
330
1F
100
AcDbEntity
  8
0
  6
Continuous
 62
     7
370
    15
100
AcDbLine
 10
7.1432924898
 20
11.4438823097
 30
0.0
 11
5.8953527496
 21
9.2599007167
 31
0.0
  0
ARC
  5
12E
330
1F
100
AcDbEntity
  8
0
  6
Continuous
 62
     7
370
    15
100
AcDbCircle
 10
7.57741832
 20
11.1958202942
 30
0.0
 40
0.5000000000000012
100
AcDbArc
 50
55.4356462667
 51
150.2561024413
  0
ARC
  5
12F
330
1F
100
AcDbEntity
  8
0
  6
Continuous
 62
     7
370
    15
100
AcDbCircle
 10
4.2017957448
 20
6.2960578275
 30
0.0
 40
6.450000000000001
100
AcDbArc
 50
304.5643537333
 51
55.4356462667
  0
CIRCLE
  5
130
330
1F
100
AcDbEntity
  8
0
  6
Continuous
 62
     7
370
    15
100
AcDbCircle
 10
9.1517957448
 20
4.2960578275
 30
0.0
 40
0.0719999999999992
  0
CIRCLE
  5
131
330
1F
100
AcDbEntity
  8
0
  6
Continuous
 62
     7
370
    15
100
AcDbCircle
 10
9.1517957448
 20
8.2960578275
 30
0.0
 40
0.0719999999999992
  0
CIRCLE
  5
132
330
1F
100
AcDbEntity
  8
0
  6
Continuous
 62
     7
370
    15
100
AcDbCircle
 10
9.4517957448
 20
7.6543255441
 30
0.0
 40
0.0579999999999998
  0
CIRCLE
  5
133
330
1F
100
AcDbEntity
  8
0
  6
Continuous
 62
     7
370
    15
100
AcDbCircle
 10
9.4517957448
 20
4.937790111
 30
0.0
 40
0.0579999999999998
  0
CIRCLE
  5
134
330
1F
100
AcDbEntity
  8
0
  6
Continuous
 62
     7
370
    15
100
AcDbCircle
 10
7.5432924898
 20
11.3454709879
 30
0.0
 40
0.0979999999999999
  0
CIRCLE
  5
135
330
1F
100
AcDbEntity
  8
0
  6
Continuous
 62
     7
370
    15
100
AcDbCircle
 10
7.0795342722
 20
10.5393516942
 30
0.0
 40
0.0979999999999999
  0
CIRCLE
  5
136
330
1F
100
AcDbEntity
  8
0
  6
Continuous
 62
     7
370
    15
100
AcDbCircle
 10
6.1520178371
 20
8.9271131069
 30
0.0
 40
0.0979999999999999
  0
CIRCLE
  5
137
330
1F
100
AcDbEntity
  8
0
  6
Continuous
 62
     7
370
    15
100
AcDbCircle
 10
7.6157760546
 20
9.7332324005
 30
0.0
 40
0.0979999999999999
  0
CIRCLE
  5
138
330
1F
100
AcDbEntity
  8
0
  6
Continuous
 62
     7
370
    15
100
AcDbCircle
 10
8.6157760546
 20
9.7332324005
 30
0.0
 40
0.0979999999999972
  0
CIRCLE
  5
139
330
1F
100
AcDbEntity
  8
0
  6
Continuous
 62
     7
370
    15
100
AcDbCircle
 10
7.2245014019
 20
7.3148745195
 30
0.0
 40
0.0979999999999999
  0
CIRCLE
  5
13A
330
1F
100
AcDbEntity
  8
0
  6
Continuous
 62
     7
370
    15
100
AcDbCircle
 10
8.2245014019
 20
7.3148745195
 30
0.0
 40
0.097999999999999
  0
CIRCLE
  5
13B
330
1F
100
AcDbEntity
  8
0
  6
Continuous
 62
     7
370
    15
100
AcDbCircle
 10
10.2245014019
 20
7.3148745195
 30
0.0
 40
0.0980000000000008
  0
CIRCLE
  5
13C
330
1F
100
AcDbEntity
  8
0
  6
Continuous
 62
     7
370
    15
100
AcDbCircle
 10
7.0795342722
 20
2.0527639608
 30
0.0
 40
0.0979999999999999
  0
CIRCLE
  5
13D
330
1F
100
AcDbEntity
  8
0
  6
Continuous
 62
     7
370
    15
100
AcDbCircle
 10
6.1520178371
 20
3.6650025482
 30
0.0
 40
0.0979999999999999
  0
CIRCLE
  5
13E
330
1F
100
AcDbEntity
  8
0
  6
Continuous
 62
     7
370
    15
100
AcDbCircle
 10
7.6157760546
 20
2.8588832545
 30
0.0
 40
0.0979999999999999
  0
CIRCLE
  5
13F
330
1F
100
AcDbEntity
  8
0
  6
Continuous
 62
     7
370
    15
100
AcDbCircle
 10
8.6157760546
 20
2.8588832545
 30
0.0
 40
0.0979999999999972
  0
CIRCLE
  5
140
330
1F
100
AcDbEntity
  8
0
  6
Continuous
 62
     7
370
    15
100
AcDbCircle
 10
7.2245014019
 20
5.2772411355
 30
0.0
 40
0.0979999999999999
  0
CIRCLE
  5
141
330
1F
100
AcDbEntity
  8
0
  6
Continuous
 62
     7
370
    15
100
AcDbCircle
 10
8.2245014019
 20
5.2772411355
 30
0.0
 40
0.097999999999999
  0
LINE
  5
142
330
1F
100
AcDbEntity
  8
0
  6
Continuous
 62
     7
370
    15
100
AcDbLine
 10
7.9647878708
 20
6.7291286937
 30
0.0
 11
7.9647878708
 21
5.8629869614
 31
0.0
  0
LINE
  5
143
330
1F
100
AcDbEntity
  8
0
  6
Continuous
 62
     7
370
    15
100
AcDbLine
 10
7.9647878708
 20
5.8629869614
 30
0.0
 11
9.8388036188
 21
5.8629869614
 31
0.0
  0
LINE
  5
144
330
1F
100
AcDbEntity
  8
0
  6
Continuous
 62
     7
370
    15
100
AcDbLine
 10
9.8388036188
 20
5.8629869614
 30
0.0
 11
9.8388036188
 21
6.7291286937
 31
0.0
  0
LINE
  5
145
330
1F
100
AcDbEntity
  8
0
  6
Continuous
 62
     7
370
    15
100
AcDbLine
 10
9.8388036188
 20
6.7291286937
 30
0.0
 11
7.9647878708
 21
6.7291286937
 31
0.0
  0
CIRCLE
  5
146
330
1F
100
AcDbEntity
  8
0
  6
Continuous
 62
     7
370
    15
100
AcDbCircle
 10
9.1262051936
 20
5.7684987724
 30
0.0
 40
0.0425000000000004
  0
CIRCLE
  5
147
330
1F
100
AcDbEntity
  8
0
  6
Continuous
 62
     7
370
    15
100
AcDbCircle
 10
8.8112445637
 20
5.7684987724
 30
0.0
 40
0.0424999999999986
  0
CIRCLE
  5
148
330
1F
100
AcDbEntity
  8
0
  6
Continuous
 62
     7
370
    15
100
AcDbCircle
 10
8.1813233039
 20
5.7684987724
 30
0.0
 40
0.0424999999999986
  0
CIRCLE
  5
149
330
1F
100
AcDbEntity
  8
0
  6
Continuous
 62
     7
370
    15
100
AcDbCircle
 10
8.1813233039
 20
6.8236168826
 30
0.0
 40
0.0424999999999986
  0
CIRCLE
  5
14A
330
1F
100
AcDbEntity
  8
0
  6
Continuous
 62
     7
370
    15
100
AcDbCircle
 10
8.4962839338
 20
6.8236168826
 30
0.0
 40
0.0425000000000004
  0
CIRCLE
  5
14B
330
1F
100
AcDbEntity
  8
0
  6
Continuous
 62
     7
370
    15
100
AcDbCircle
 10
8.8112445637
 20
6.8236168826
 30
0.0
 40
0.0424999999999986
  0
CIRCLE
  5
14C
330
1F
100
AcDbEntity
  8
0
  6
Continuous
 62
     7
370
    15
100
AcDbCircle
 10
11.1813355
 20
1.4569558391
 30
0.0
 40
0.0424999999999998
  0
CIRCLE
  5
14D
330
1F
100
AcDbEntity
  8
0
  6
Continuous
 62
     7
370
    15
100
AcDbCircle
 10
10.8663748701
 20
1.771916469
 30
0.0
 40
0.0425
  0
CIRCLE
  5
14E
330
1F
100
AcDbEntity
  8
0
  6
Continuous
 62
     7
370
    15
100
AcDbCircle
 10
10.5514142402
 20
1.4569558391
 30
0.0
 40
0.0424999999999998
  0
CIRCLE
  5
14F
330
1F
100
AcDbEntity
  8
0
  6
Continuous
 62
     7
370
    15
100
AcDbCircle
 10
10.8663748701
 20
1.1419952092
 30
0.0
 40
0.0425
  0
CIRCLE
  5
150
330
1F
100
AcDbEntity
  8
0
  6
Continuous
 62
     7
370
    15
100
AcDbCircle
 10
9.5081071536
 20
1.1044558391
 30
0.0
 40
0.0580000000000001
  0
CIRCLE
  5
151
330
1F
100
AcDbEntity
  8
0
  6
Continuous
 62
     7
370
    15
100
AcDbCircle
 10
9.5081071536
 20
1.8094558391
 30
0.0
 40
0.0580000000000001
  0
CIRCLE
  5
152
330
1F
100
AcDbEntity
  8
0
  6
Continuous
 62
     7
370
    15
100
AcDbCircle
 10
12.2246425867
 20
1.8094558391
 30
0.0
 40
0.0580000000000001
  0
CIRCLE
  5
153
330
1F
100
AcDbEntity
  8
0
  6
Continuous
 62
     7
370
    15
100
AcDbCircle
 10
12.2246425867
 20
1.1044558391
 30
0.0
 40
0.0580000000000001
  0
CIRCLE
  5
154
330
1F
100
AcDbEntity
  8
0
  6
Continuous
 62
     7
370
    15
100
AcDbCircle
 10
12.0943748701
 20
2.3269558391
 30
0.0
 40
0.0579999999999998
  0
CIRCLE
  5
155
330
1F
100
AcDbEntity
  8
0
  6
Continuous
 62
     7
370
    15
100
AcDbCircle
 10
9.6383748701
 20
2.3269558391
 30
0.0
 40
0.0580000000000003
  0
CIRCLE
  5
156
330
1F
100
AcDbEntity
  8
0
  6
Continuous
 62
     7
370
    15
100
AcDbCircle
 10
9.6383748701
 20
0.5869558391
 30
0.0
 40
0.0579999999999999
  0
CIRCLE
  5
157
330
1F
100
AcDbEntity
  8
0
  6
Continuous
 62
     7
370
    15
100
AcDbCircle
 10
12.0943748701
 20
0.5869558391
 30
0.0
 40
0.0579999999999999
  0
LINE
  5
158
330
1F
100
AcDbEntity
  8
0
  6
Continuous
 62
     7
370
    15
100
AcDbLine
 10
9.3928748701
 20
1.9942673591
 30
0.0
 11
9.3928748701
 21
0.9196443191
 31
0.0
  0
ARC
  5
159
330
1F
100
AcDbEntity
  8
0
  6
Continuous
 62
     7
370
    15
100
AcDbCircle
 10
10.0730633501
 20
1.9942673591
 30
0.0
 40
0.6801884800000018
100
AcDbArc
 50
90.0
 51
180.0
  0
LINE
  5
15A
330
1F
100
AcDbEntity
  8
0
  6
Continuous
 62
     7
370
    15
100
AcDbLine
 10
11.6596863901
 20
2.6744558391
 30
0.0
 11
10.0730633501
 21
2.6744558391
 31
0.0
  0
ARC
  5
15B
330
1F
100
AcDbEntity
  8
0
  6
Continuous
 62
     7
370
    15
100
AcDbCircle
 10
11.6596863901
 20
1.9942673591
 30
0.0
 40
0.6801884800000018
100
AcDbArc
 50
0.0
 51
90.0
  0
LINE
  5
15C
330
1F
100
AcDbEntity
  8
0
  6
Continuous
 62
     7
370
    15
100
AcDbLine
 10
12.3398748701
 20
0.9196443191
 30
0.0
 11
12.3398748701
 21
1.9942673591
 31
0.0
  0
ARC
  5
15D
330
1F
100
AcDbEntity
  8
0
  6
Continuous
 62
     7
370
    15
100
AcDbCircle
 10
11.6596863901
 20
0.9196443191
 30
0.0
 40
0.6801884800000018
100
AcDbArc
 50
270.0
 51
0.0
  0
LINE
  5
15E
330
1F
100
AcDbEntity
  8
0
  6
Continuous
 62
     7
370
    15
100
AcDbLine
 10
10.0730633501
 20
0.2394558391
 30
0.0
 11
11.6596863901
 21
0.2394558391
 31
0.0
  0
ARC
  5
15F
330
1F
100
AcDbEntity
  8
0
  6
Continuous
 62
     7
370
    15
100
AcDbCircle
 10
10.0730633501
 20
0.9196443191
 30
0.0
 40
0.6801884800000002
100
AcDbArc
 50
180.0
 51
270.0
  0
CIRCLE
  5
160
330
1F
100
AcDbEntity
  8
0
  6
Continuous
 62
     7
370
    15
100
AcDbCircle
 10
5.4023068649
 20
5.8456001415
 30
0.0
 40
0.0424999999999995
  0
CIRCLE
  5
161
330
1F
100
AcDbEntity
  8
0
  6
Continuous
 62
     7
370
    15
100
AcDbCircle
 10
5.7172674948
 20
6.1605607714
 30
0.0
 40
0.0424999999999995
  0
CIRCLE
  5
162
330
1F
100
AcDbEntity
  8
0
  6
Continuous
 62
     7
370
    15
100
AcDbCircle
 10
5.4023068649
 20
6.4755214013
 30
0.0
 40
0.0424999999999995
  0
CIRCLE
  5
163
330
1F
100
AcDbEntity
  8
0
  6
Continuous
 62
     7
370
    15
100
AcDbCircle
 10
5.087346235
 20
6.1605607714
 30
0.0
 40
0.0425000000000004
  0
CIRCLE
  5
164
330
1F
100
AcDbEntity
  8
0
  6
Continuous
 62
     7
370
    15
100
AcDbCircle
 10
5.0498068649
 20
7.518828488
 30
0.0
 40
0.0580000000000007
  0
CIRCLE
  5
165
330
1F
100
AcDbEntity
  8
0
  6
Continuous
 62
     7
370
    15
100
AcDbCircle
 10
5.7548068649
 20
7.518828488
 30
0.0
 40
0.0579999999999998
  0
CIRCLE
  5
166
330
1F
100
AcDbEntity
  8
0
  6
Continuous
 62
     7
370
    15
100
AcDbCircle
 10
5.7548068649
 20
4.8022930549
 30
0.0
 40
0.0579999999999998
  0
CIRCLE
  5
167
330
1F
100
AcDbEntity
  8
0
  6
Continuous
 62
     7
370
    15
100
AcDbCircle
 10
5.0498068649
 20
4.8022930549
 30
0.0
 40
0.0580000000000007
  0
CIRCLE
  5
168
330
1F
100
AcDbEntity
  8
0
  6
Continuous
 62
     7
370
    15
100
AcDbCircle
 10
6.2723068649
 20
4.9325607714
 30
0.0
 40
0.0580000000000007
  0
CIRCLE
  5
169
330
1F
100
AcDbEntity
  8
0
  6
Continuous
 62
     7
370
    15
100
AcDbCircle
 10
6.2723068649
 20
7.3885607714
 30
0.0
 40
0.0580000000000007
  0
CIRCLE
  5
16A
330
1F
100
AcDbEntity
  8
0
  6
Continuous
 62
     7
370
    15
100
AcDbCircle
 10
4.5323068649
 20
7.3885607714
 30
0.0
 40
0.0579999999999998
  0
CIRCLE
  5
16B
330
1F
100
AcDbEntity
  8
0
  6
Continuous
 62
     7
370
    15
100
AcDbCircle
 10
4.5323068649
 20
4.9325607714
 30
0.0
 40
0.0579999999999998
  0
LINE
  5
16C
330
1F
100
AcDbEntity
  8
0
  6
Continuous
 62
     7
370
    15
100
AcDbLine
 10
5.9396183849
 20
7.6340607714
 30
0.0
 11
4.8649953449
 21
7.6340607714
 31
0.0
  0
ARC
  5
16D
330
1F
100
AcDbEntity
  8
0
  6
Continuous
 62
     7
370
    15
100
AcDbCircle
 10
5.9396183849
 20
6.9538722914
 30
0.0
 40
0.6801884800000009
100
AcDbArc
 50
0.0
 51
90.0
  0
LINE
  5
16E
330
1F
100
AcDbEntity
  8
0
  6
Continuous
 62
     7
370
    15
100
AcDbLine
 10
6.6198068649
 20
5.3672492514
 30
0.0
 11
6.6198068649
 21
6.9538722914
 31
0.0
  0
ARC
  5
16F
330
1F
100
AcDbEntity
  8
0
  6
Continuous
 62
     7
370
    15
100
AcDbCircle
 10
5.9396183849
 20
5.3672492514
 30
0.0
 40
0.6801884800000009
100
AcDbArc
 50
270.0
 51
0.0
  0
LINE
  5
170
330
1F
100
AcDbEntity
  8
0
  6
Continuous
 62
     7
370
    15
100
AcDbLine
 10
4.8649953449
 20
4.6870607714
 30
0.0
 11
5.9396183849
 21
4.6870607714
 31
0.0
  0
ARC
  5
171
330
1F
100
AcDbEntity
  8
0
  6
Continuous
 62
     7
370
    15
100
AcDbCircle
 10
4.8649953449
 20
5.3672492514
 30
0.0
 40
0.6801884800000009
100
AcDbArc
 50
180.0
 51
270.0
  0
LINE
  5
172
330
1F
100
AcDbEntity
  8
0
  6
Continuous
 62
     7
370
    15
100
AcDbLine
 10
4.1848068649
 20
6.9538722914
 30
0.0
 11
4.1848068649
 21
5.3672492514
 31
0.0
  0
ARC
  5
173
330
1F
100
AcDbEntity
  8
0
  6
Continuous
 62
     7
370
    15
100
AcDbCircle
 10
4.8649953449
 20
6.9538722914
 30
0.0
 40
0.68018848
100
AcDbArc
 50
90.0
 51
180.0
  0
ENDSEC
  0
SECTION
  2
OBJECTS
  0
DICTIONARY
  5
C
330
0
100
AcDbDictionary
281
     1
  3
ACAD_GROUP
350
D
  3
ACAD_LAYOUT
350
1A
  3
ACAD_MLINESTYLE
350
17
  3
ACAD_PLOTSETTINGS
350
19
  3
ACAD_PLOTSTYLENAME
350
E
  0
DICTIONARY
  5
D
102
{ACAD_REACTORS
330
C
102
}
330
C
100
AcDbDictionary
281
     1
  0
DICTIONARY
  5
1A
102
{ACAD_REACTORS
330
C
102
}
330
C
100
AcDbDictionary
281
     1
  3
Layout1
350
1E
  3
Layout2
350
26
  3
Model
350
22
  0
DICTIONARY
  5
17
102
{ACAD_REACTORS
330
C
102
}
330
C
100
AcDbDictionary
281
     1
  3
Standard
350
18
  0
DICTIONARY
  5
19
102
{ACAD_REACTORS
330
C
102
}
330
C
100
AcDbDictionary
281
     1
  0
ACDBDICTIONARYWDFLT
  5
E
102
{ACAD_REACTORS
330
C
102
}
330
C
100
AcDbDictionary
281
     1
  3
Normal
350
F
100
AcDbDictionaryWithDefault
340
F
  0
LAYOUT
  5
1E
102
{ACAD_REACTORS
330
1A
102
}
330
1A
100
AcDbPlotSettings
  1

  2
none_device
  4

  6

 40
0.0
 41
0.0
 42
0.0
 43
0.0
 44
0.0
 45
0.0
 46
0.0
 47
0.0
 48
0.0
 49
0.0
140
0.0
141
0.0
142
1.0
143
1.0
 70
   688
 72
     0
 73
     0
 74
     5
  7

 75
    16
147
1.0
148
0.0
149
0.0
100
AcDbLayout
  1
Layout1
 70
     1
 71
     1
 10
0.0
 20
0.0
 11
12.0
 21
9.0
 12
0.0
 22
0.0
 32
0.0
 14
1.0000000000E+20
 24
1.0000000000E+20
 34
1.0000000000E+20
 15
-1.0000000000E+20
 25
-1.0000000000E+20
 35
-1.0000000000E+20
146
0.0
 13
0.0
 23
0.0
 33
0.0
 16
1.0
 26
0.0
 36
0.0
 17
0.0
 27
1.0
 37
0.0
 76
     0
330
1B
  0
LAYOUT
  5
26
102
{ACAD_REACTORS
330
1A
102
}
330
1A
100
AcDbPlotSettings
  1

  2
none_device
  4

  6

 40
0.0
 41
0.0
 42
0.0
 43
0.0
 44
0.0
 45
0.0
 46
0.0
 47
0.0
 48
0.0
 49
0.0
140
0.0
141
0.0
142
1.0
143
1.0
 70
   688
 72
     0
 73
     0
 74
     5
  7

 75
    16
147
1.0
148
0.0
149
0.0
100
AcDbLayout
  1
Layout2
 70
     1
 71
     2
 10
0.0
 20
0.0
 11
0.0
 21
0.0
 12
0.0
 22
0.0
 32
0.0
 14
0.0
 24
0.0
 34
0.0
 15
0.0
 25
0.0
 35
0.0
146
0.0
 13
0.0
 23
0.0
 33
0.0
 16
1.0
 26
0.0
 36
0.0
 17
0.0
 27
1.0
 37
0.0
 76
     0
330
23
  0
LAYOUT
  5
22
102
{ACAD_REACTORS
330
1A
102
}
330
1A
100
AcDbPlotSettings
  1

  2
none_device
  4

  6

 40
0.0
 41
0.0
 42
0.0
 43
0.0
 44
0.0
 45
0.0
 46
0.0
 47
0.0
 48
0.0
 49
0.0
140
0.0
141
0.0
142
1.0
143
1.0
 70
  1712
 72
     0
 73
     0
 74
     0
  7

 75
     0
147
1.0
148
0.0
149
0.0
100
AcDbLayout
  1
Model
 70
     1
 71
     0
 10
0.0
 20
0.0
 11
24.0
 21
12.0
 12
0.0
 22
0.0
 32
0.0
 14
0.0
 24
0.0
 34
0.0
 15
24.0
 25
12.0
 35
0.0
146
0.0
 13
0.0
 23
0.0
 33
0.0
 16
1.0
 26
0.0
 36
0.0
 17
0.0
 27
1.0
 37
0.0
 76
     0
330
1F
331
29
  0
MLINESTYLE
  5
18
102
{ACAD_REACTORS
330
17
102
}
330
17
100
AcDbMlineStyle
  2
Standard
 70
     0
  3

 62
   256
 51
90.0
 52
90.0
 71
     2
 49
0.5
 62
   256
  6
BYLAYER
 49
-0.5
 62
   256
  6
BYLAYER
  0
ACDBPLACEHOLDER
  5
F
102
{ACAD_REACTORS
330
E
102
}
330
E
  0
ENDSEC
  0
EOF
