  0
SECTION
  2
HEADER
  9
$ACADVER
  1
AC1015
  9
$ACADMAINTVER
 70
     6
  9
$DWGCODEPAGE
  3
ANSI_1252
  9
$INSBASE
 10
0.0
 20
0.0
 30
0.0
  9
$EXTMIN
 10
-6.4950787402
 20
-6.4950787402
 30
0.0
  9
$EXTMAX
 10
6.4950787402
 20
4.6915820733
 30
0.0
  9
$LIMMIN
 10
0.0
 20
0.0
  9
$LIMMAX
 10
12.0
 20
9.0
  9
$ORTHOMODE
 70
     0
  9
$REGENMODE
 70
     1
  9
$FILLMODE
 70
     1
  9
$QTEXTMODE
 70
     0
  9
$MIRRTEXT
 70
     1
  9
$LTSCALE
 40
1.0
  9
$ATTMODE
 70
     1
  9
$TEXTSIZE
 40
0.125
  9
$TRACEWID
 40
0.05
  9
$TEXTSTYLE
  7
Standard
  9
$CLAYER
  8
0
  9
$CELTYPE
  6
ByLayer
  9
$CECOLOR
 62
   256
  9
$CELTSCALE
 40
1.0
  9
$DISPSILH
 70
     0
  9
$DIMSCALE
 40
1.0
  9
$DIMASZ
 40
0.13
  9
$DIMEXO
 40
0.05
  9
$DIMDLI
 40
0.38
  9
$DIMRND
 40
0.0
  9
$DIMDLE
 40
0.0
  9
$DIMEXE
 40
0.125
  9
$DIMTP
 40
0.0
  9
$DIMTM
 40
0.0
  9
$DIMTXT
 40
0.125
  9
$DIMCEN
 40
0.09
  9
$DIMTSZ
 40
0.0
  9
$DIMTOL
 70
     0
  9
$DIMLIM
 70
     0
  9
$DIMTIH
 70
     1
  9
$DIMTOH
 70
     1
  9
$DIMSE1
 70
     0
  9
$DIMSE2
 70
     0
  9
$DIMTAD
 70
     0
  9
$DIMZIN
 70
     0
  9
$DIMBLK
  1

  9
$DIMASO
 70
     1
  9
$DIMSHO
 70
     1
  9
$DIMPOST
  1

  9
$DIMAPOST
  1

  9
$DIMALT
 70
     0
  9
$DIMALTD
 70
     2
  9
$DIMALTF
 40
25.4
  9
$DIMLFAC
 40
1.0
  9
$DIMTOFL
 70
     0
  9
$DIMTVP
 40
0.0
  9
$DIMTIX
 70
     0
  9
$DIMSOXD
 70
     0
  9
$DIMSAH
 70
     0
  9
$DIMBLK1
  1

  9
$DIMBLK2
  1

  9
$DIMSTYLE
  2
Standard
  9
$DIMCLRD
 70
     0
  9
$DIMCLRE
 70
     0
  9
$DIMCLRT
 70
     0
  9
$DIMTFAC
 40
1.0
  9
$DIMGAP
 40
0.06
  9
$DIMJUST
 70
     0
  9
$DIMSD1
 70
     0
  9
$DIMSD2
 70
     0
  9
$DIMTOLJ
 70
     1
  9
$DIMTZIN
 70
     0
  9
$DIMALTZ
 70
     0
  9
$DIMALTTZ
 70
     0
  9
$DIMUPT
 70
     0
  9
$DIMDEC
 70
     3
  9
$DIMTDEC
 70
     3
  9
$DIMALTU
 70
     2
  9
$DIMALTTD
 70
     2
  9
$DIMTXSTY
  7
Standard
  9
$DIMAUNIT
 70
     0
  9
$DIMADEC
 70
     2
  9
$DIMALTRND
 40
0.0
  9
$DIMAZIN
 70
     0
  9
$DIMDSEP
 70
    46
  9
$DIMATFIT
 70
     3
  9
$DIMFRAC
 70
     0
  9
$DIMLDRBLK
  1

  9
$DIMLUNIT
 70
     2
  9
$DIMLWD
 70
    -2
  9
$DIMLWE
 70
    -2
  9
$DIMTMOVE
 70
     0
  9
$LUNITS
 70
     2
  9
$LUPREC
 70
     2
  9
$SKETCHINC
 40
0.1
  9
$FILLETRAD
 40
0.5
  9
$AUNITS
 70
     0
  9
$AUPREC
 70
     2
  9
$MENU
  1
.
  9
$ELEVATION
 40
0.0
  9
$PELEVATION
 40
0.0
  9
$THICKNESS
 40
0.0
  9
$LIMCHECK
 70
     0
  9
$CHAMFERA
 40
0.5
  9
$CHAMFERB
 40
0.5
  9
$CHAMFERC
 40
1.0
  9
$CHAMFERD
 40
0.0
  9
$SKPOLY
 70
     0
  9
$TDCREATE
 40
2456086.58450125
  9
$TDUCREATE
 40
2456086.876167917
  9
$TDUPDATE
 40
2456086.584501261
  9
$TDUUPDATE
 40
2456086.876167928
  9
$TDINDWG
 40
0.0000000116
  9
$TDUSRTIMER
 40
0.0000000116
  9
$USRTIMER
 70
     1
  9
$ANGBASE
 50
0.0
  9
$ANGDIR
 70
     0
  9
$PDMODE
 70
     0
  9
$PDSIZE
 40
-1.0
  9
$PLINEWID
 40
0.0
  9
$SPLFRAME
 70
     0
  9
$SPLINETYPE
 70
     6
  9
$SPLINESEGS
 70
     8
  9
$HANDSEED
  5
10B
  9
$SURFTAB1
 70
     6
  9
$SURFTAB2
 70
     6
  9
$SURFTYPE
 70
     6
  9
$SURFU
 70
     6
  9
$SURFV
 70
     6
  9
$UCSBASE
  2

  9
$UCSNAME
  2

  9
$UCSORG
 10
0.0
 20
0.0
 30
0.0
  9
$UCSXDIR
 10
1.0
 20
0.0
 30
0.0
  9
$UCSYDIR
 10
0.0
 20
1.0
 30
0.0
  9
$UCSORTHOREF
  2

  9
$UCSORTHOVIEW
 70
     0
  9
$UCSORGTOP
 10
0.0
 20
0.0
 30
0.0
  9
$UCSORGBOTTOM
 10
0.0
 20
0.0
 30
0.0
  9
$UCSORGLEFT
 10
0.0
 20
0.0
 30
0.0
  9
$UCSORGRIGHT
 10
0.0
 20
0.0
 30
0.0
  9
$UCSORGFRONT
 10
0.0
 20
0.0
 30
0.0
  9
$UCSORGBACK
 10
0.0
 20
0.0
 30
0.0
  9
$PUCSBASE
  2

  9
$PUCSNAME
  2

  9
$PUCSORG
 10
0.0
 20
0.0
 30
0.0
  9
$PUCSXDIR
 10
1.0
 20
0.0
 30
0.0
  9
$PUCSYDIR
 10
0.0
 20
1.0
 30
0.0
  9
$PUCSORTHOREF
  2

  9
$PUCSORTHOVIEW
 70
     0
  9
$PUCSORGTOP
 10
0.0
 20
0.0
 30
0.0
  9
$PUCSORGBOTTOM
 10
0.0
 20
0.0
 30
0.0
  9
$PUCSORGLEFT
 10
0.0
 20
0.0
 30
0.0
  9
$PUCSORGRIGHT
 10
0.0
 20
0.0
 30
0.0
  9
$PUCSORGFRONT
 10
0.0
 20
0.0
 30
0.0
  9
$PUCSORGBACK
 10
0.0
 20
0.0
 30
0.0
  9
$USERI1
 70
     0
  9
$USERI2
 70
     0
  9
$USERI3
 70
     0
  9
$USERI4
 70
     0
  9
$USERI5
 70
     0
  9
$USERR1
 40
0.0
  9
$USERR2
 40
0.0
  9
$USERR3
 40
0.0
  9
$USERR4
 40
0.0
  9
$USERR5
 40
0.0
  9
$WORLDVIEW
 70
     1
  9
$SHADEDGE
 70
     3
  9
$SHADEDIF
 70
    70
  9
$TILEMODE
 70
     1
  9
$MAXACTVP
 70
    64
  9
$PINSBASE
 10
0.0
 20
0.0
 30
0.0
  9
$PLIMCHECK
 70
     0
  9
$PEXTMIN
 10
1.0000000000E+20
 20
1.0000000000E+20
 30
1.0000000000E+20
  9
$PEXTMAX
 10
-1.0000000000E+20
 20
-1.0000000000E+20
 30
-1.0000000000E+20
  9
$PLIMMIN
 10
0.0
 20
0.0
  9
$PLIMMAX
 10
12.0
 20
9.0
  9
$UNITMODE
 70
     0
  9
$VISRETAIN
 70
     1
  9
$PLINEGEN
 70
     0
  9
$PSLTSCALE
 70
     1
  9
$TREEDEPTH
 70
  3020
  9
$CMLSTYLE
  2
Standard
  9
$CMLJUST
 70
     0
  9
$CMLSCALE
 40
1.0
  9
$PROXYGRAPHICS
 70
     1
  9
$MEASUREMENT
 70
     0
  9
$CELWEIGHT
370
    -1
  9
$ENDCAPS
280
     0
  9
$JOINSTYLE
280
     0
  9
$LWDISPLAY
290
     1
  9
$INSUNITS
 70
     1
  9
$HYPERLINKBASE
  1

  9
$STYLESHEET
  1

  9
$XEDIT
290
     1
  9
$CEPSNTYPE
380
     0
  9
$PSTYLEMODE
290
     1
  9
$FINGERPRINTGUID
  2
{1357AAB3-9655-41E0-B265-3B7944E24377}
  9
$VERSIONGUID
  2
{FAEB1C32-E019-11D5-929B-00C0DF256EC4}
  9
$EXTNAMES
290
     1
  9
$PSVPSCALE
 40
0.0
  9
$OLESTARTUP
290
     0
  0
ENDSEC
  0
SECTION
  2
CLASSES
  0
CLASS
  1
ACDBDICTIONARYWDFLT
  2
AcDbDictionaryWithDefault
  3
ObjectDBX Classes
 90
        0
280
     0
281
     0
  0
CLASS
  1
VISUALSTYLE
  2
AcDbVisualStyle
  3
ObjectDBX Classes
 90
     4095
280
     0
281
     0
  0
CLASS
  1
MATERIAL
  2
AcDbMaterial
  3
ObjectDBX Classes
 90
     1153
280
     0
281
     0
  0
CLASS
  1
SCALE
  2
AcDbScale
  3
ObjectDBX Classes
 90
     1153
280
     0
281
     0
  0
CLASS
  1
DICTIONARYVAR
  2
AcDbDictionaryVar
  3
ObjectDBX Classes
 90
        0
280
     0
281
     0
  0
CLASS
  1
ACDBPLACEHOLDER
  2
AcDbPlaceHolder
  3
ObjectDBX Classes
 90
        0
280
     0
281
     0
  0
CLASS
  1
LAYOUT
  2
AcDbLayout
  3
ObjectDBX Classes
 90
        0
280
     0
281
     0
  0
ENDSEC
  0
SECTION
  2
TABLES
  0
TABLE
  2
VPORT
  5
8
330
0
100
AcDbSymbolTable
 70
     1
  0
VPORT
  5
29
330
8
100
AcDbSymbolTableRecord
100
AcDbViewportTableRecord
  2
*Active
 70
     0
 10
0.0
 20
0.0
 11
1.0
 21
1.0
 12
0.0
 22
-0.9017483334
 13
0.0
 23
0.0
 14
0.5
 24
0.5
 15
0.5
 25
0.5
 16
0.0
 26
0.0
 36
1.0
 17
0.0
 27
0.0
 37
0.0
 40
11.4103940298
 41
1.1612184991
 42
50.0
 43
0.0
 44
0.0
 50
0.0
 51
0.0
 71
     0
 72
   100
 73
     1
 74
     3
 75
     0
 76
     0
 77
     0
 78
     0
281
     0
 65
     1
110
0.0
120
0.0
130
0.0
111
1.0
121
0.0
131
0.0
112
0.0
122
1.0
132
0.0
 79
     0
146
0.0
  0
ENDTAB
  0
TABLE
  2
LTYPE
  5
5
330
0
100
AcDbSymbolTable
 70
     6
  0
LTYPE
  5
14
330
5
100
AcDbSymbolTableRecord
100
AcDbLinetypeTableRecord
  2
ByBlock
 70
     0
  3

 72
    65
 73
     0
 40
0.0
  0
LTYPE
  5
15
330
5
100
AcDbSymbolTableRecord
100
AcDbLinetypeTableRecord
  2
ByLayer
 70
     0
  3

 72
    65
 73
     0
 40
0.0
  0
LTYPE
  5
16
330
5
100
AcDbSymbolTableRecord
100
AcDbLinetypeTableRecord
  2
Continuous
 70
     0
  3
Solid line
 72
    65
 73
     0
 40
0.0
  0
LTYPE
  5
3F
330
5
100
AcDbSymbolTableRecord
100
AcDbLinetypeTableRecord
  2
HIDDEN
 70
     0
  3
Hidden __ __ __ __ __ __ __ __ __ __ __ __ __ __
 72
    65
 73
     2
 40
0.075
 49
0.05
 74
     0
 49
-0.025
 74
     0
  0
LTYPE
  5
40
330
5
100
AcDbSymbolTableRecord
100
AcDbLinetypeTableRecord
  2
PHANTOM
 70
     0
  3
Phantom ______  __  __  ______  __  __  ______
 72
    65
 73
     6
 40
0.5
 49
0.25
 74
     0
 49
-0.05
 74
     0
 49
0.05
 74
     0
 49
-0.05
 74
     0
 49
0.05
 74
     0
 49
-0.05
 74
     0
  0
LTYPE
  5
41
330
5
100
AcDbSymbolTableRecord
100
AcDbLinetypeTableRecord
  2
CENTER
 70
     0
  3
Center ____ _ ____ _ ____ _ ____ _ ____ _ ____
 72
    65
 73
     4
 40
0.4
 49
0.25
 74
     0
 49
-0.05
 74
     0
 49
0.05
 74
     0
 49
-0.05
 74
     0
  0
LTYPE
  5
42
330
5
100
AcDbSymbolTableRecord
100
AcDbLinetypeTableRecord
  2
CENTERX2
 70
     0
  3
Center (2x) ________  __  ________  __  _____
 72
    65
 73
     4
 40
0.8
 49
0.5
 74
     0
 49
-0.1
 74
     0
 49
0.1
 74
     0
 49
-0.1
 74
     0
  0
LTYPE
  5
43
330
5
100
AcDbSymbolTableRecord
100
AcDbLinetypeTableRecord
  2
DOT2
 70
     0
  3
Dot (.5x) ........................................
 72
    65
 73
     2
 40
0.025
 49
0.0
 74
     0
 49
-0.025
 74
     0
  0
ENDTAB
  0
TABLE
  2
LAYER
  5
2
330
0
100
AcDbSymbolTable
 70
     1
  0
LAYER
  5
10
330
2
100
AcDbSymbolTableRecord
100
AcDbLayerTableRecord
  2
0
 70
     0
 62
     7
  6
Continuous
370
    -3
390
F
  0
ENDTAB
  0
TABLE
  2
STYLE
  5
3
330
0
100
AcDbSymbolTable
 70
     1
  0
STYLE
  5
11
330
3
100
AcDbSymbolTableRecord
100
AcDbTextStyleTableRecord
  2
Standard
 70
     0
 40
0.0
 41
1.0
 50
0.0
 71
     0
 42
0.2
  3
txt
  4

  0
ENDTAB
  0
TABLE
  2
VIEW
  5
6
330
0
100
AcDbSymbolTable
 70
     0
  0
ENDTAB
  0
TABLE
  2
UCS
  5
7
330
0
100
AcDbSymbolTable
 70
     0
  0
ENDTAB
  0
TABLE
  2
APPID
  5
9
330
0
100
AcDbSymbolTable
 70
     1
  0
APPID
  5
12
330
9
100
AcDbSymbolTableRecord
100
AcDbRegAppTableRecord
  2
ACAD
 70
     0
  0
ENDTAB
  0
TABLE
  2
DIMSTYLE
  5
A
330
0
100
AcDbSymbolTable
 70
     1
100
AcDbDimStyleTable
  0
DIMSTYLE
105
27
330
A
100
AcDbSymbolTableRecord
100
AcDbDimStyleTableRecord
  2
Standard
 70
     0
178
     0
340
11
  0
ENDTAB
  0
TABLE
  2
BLOCK_RECORD
  5
1
330
0
100
AcDbSymbolTable
 70
     1
  0
BLOCK_RECORD
  5
1F
330
1
100
AcDbSymbolTableRecord
100
AcDbBlockTableRecord
  2
*Model_Space
340
22
  0
BLOCK_RECORD
  5
1B
330
1
100
AcDbSymbolTableRecord
100
AcDbBlockTableRecord
  2
*Paper_Space
340
1E
  0
BLOCK_RECORD
  5
23
330
1
100
AcDbSymbolTableRecord
100
AcDbBlockTableRecord
  2
*Paper_Space0
340
26
  0
ENDTAB
  0
ENDSEC
  0
SECTION
  2
BLOCKS
  0
BLOCK
  5
20
330
1F
100
AcDbEntity
  8
0
100
AcDbBlockBegin
  2
*Model_Space
 70
     0
 10
0.0
 20
0.0
 30
0.0
  3
*Model_Space
  1

  0
ENDBLK
  5
21
330
1F
100
AcDbEntity
  8
0
100
AcDbBlockEnd
  0
BLOCK
  5
1C
330
1B
100
AcDbEntity
 67
     1
  8
0
100
AcDbBlockBegin
  2
*Paper_Space
 70
     0
 10
0.0
 20
0.0
 30
0.0
  3
*Paper_Space
  1

  0
ENDBLK
  5
1D
330
1B
100
AcDbEntity
 67
     1
  8
0
100
AcDbBlockEnd
  0
BLOCK
  5
24
330
23
100
AcDbEntity
  8
0
100
AcDbBlockBegin
  2
*Paper_Space0
 70
     0
 10
0.0
 20
0.0
 30
0.0
  3
*Paper_Space0
  1

  0
ENDBLK
  5
25
330
23
100
AcDbEntity
  8
0
100
AcDbBlockEnd
  0
ENDSEC
  0
SECTION
  2
ENTITIES
  0
POINT
  5
4A
330
1F
100
AcDbEntity
  8
0
  6
Continuous
 62
     7
100
AcDbPoint
 10
5.8
 20
2.0
 30
0.0
  0
SPLINE
  5
4B
330
1F
100
AcDbEntity
  8
0
  6
Continuous
 62
     7
370
    15
100
AcDbSpline
210
0.0
220
0.0
230
1.0
 70
     8
 71
     3
 72
    15
 73
    11
 74
     0
 42
0.00000001
 43
0.00000001
 40
0.0
 40
0.0
 40
0.0
 40
0.0
 40
0.1509399706145195
 40
0.2956904241005992
 40
0.4329909003153377
 40
0.5642698107243532
 40
0.6865766359779404
 40
0.8000856688772695
 40
0.90479362264108
 40
1.0
 40
1.0
 40
1.0
 40
1.0
 10
5.026250000027631
 20
3.778920650096154
 30
0.0
 10
5.017645624916241
 20
3.780479435983616
 30
0.0
 10
5.000789709843192
 20
3.783533087433721
 30
0.0
 10
4.975956795303246
 20
3.78707945779586
 30
0.0
 10
4.95223935293841
 20
3.790371872219465
 30
0.0
 10
4.929704908868806
 20
3.792641629531622
 30
0.0
 10
4.908498907254999
 20
3.794226592928524
 30
0.0
 10
4.888814933390886
 20
3.79552812552582
 30
0.0
 10
4.870668804319477
 20
3.796205084966612
 30
0.0
 10
4.859088957374814
 20
3.796351108466309
 30
0.0
 10
4.853574218777632
 20
3.796420650096153
 30
0.0
  0
SPLINE
  5
4C
330
1F
100
AcDbEntity
  8
0
  6
Continuous
 62
     7
370
    15
100
AcDbSpline
210
0.0
220
0.0
230
1.0
 70
     8
 71
     3
 72
    27
 73
    23
 74
     0
 42
0.00000001
 43
0.00000001
 40
0.0
 40
0.0
 40
0.0
 40
0.0
 40
0.065913288837091
 40
0.1305743709121599
 40
0.1946116374599791
 40
0.2581411398167126
 40
0.3208958499629325
 40
0.382751307605853
 40
0.4445255222575656
 40
0.506792737635602
 40
0.5379238762649629
 40
0.5684219609752496
 40
0.5984014732273252
 40
0.6282049767573713
 40
0.6579304304638267
 40
0.6876972301578647
 40
0.7175064645799032
 40
0.7476076626615624
 40
0.8086939402042118
 40
0.8705300639594828
 40
0.9343380516708061
 40
1.0
 40
1.0
 40
1.0
 40
1.0
 10
4.853574218777632
 20
3.796420650096153
 30
0.0
 10
4.84208089140462
 20
3.796177041530608
 30
0.0
 10
4.819312584468402
 20
3.795694452423675
 30
0.0
 10
4.785535159926632
 20
3.792052781739797
 30
0.0
 10
4.752534735690795
 20
3.786055685388777
 30
0.0
 10
4.720403291635631
 20
3.777631591422973
 30
0.0
 10
4.68945063446102
 20
3.766631520756451
 30
0.0
 10
4.660019511487133
 20
3.752727184904891
 30
0.0
 10
4.63215037380155
 20
3.736092330137143
 30
0.0
 10
4.610278030668267
 20
3.720093821086023
 30
0.0
 10
4.593890901648633
 20
3.70599637554411
 30
0.0
 10
4.58257904144685
 20
3.694709270675664
 30
0.0
 10
4.571916272049408
 20
3.683114983933288
 30
0.0
 10
4.562385644138084
 20
3.670737020533363
 30
0.0
 10
4.553611756788829
 20
3.657868860255416
 30
0.0
 10
4.545644081043446
 20
3.644476892896411
 30
0.0
 10
4.538682659500861
 20
3.630462659361079
 30
0.0
 10
4.530451106878832
 20
3.611030283777053
 30
0.0
 10
4.522139051101533
 20
3.585612453705587
 30
0.0
 10
4.515287347949061
 20
3.553755118036751
 30
0.0
 10
4.510672122382419
 20
3.520656848793331
 30
0.0
 10
4.510226169438506
 20
3.498070732880255
 30
0.0
 10
4.510000000027631
 20
3.486615962596153
 30
0.0
  0
SPLINE
  5
4D
330
1F
100
AcDbEntity
  8
0
  6
Continuous
 62
     7
370
    15
100
AcDbSpline
210
0.0
220
0.0
230
1.0
 70
     8
 71
     3
 72
    23
 73
    19
 74
     0
 42
0.00000001
 43
0.00000001
 40
0.0
 40
0.0
 40
0.0
 40
0.0
 40
0.0661136748911054
 40
0.1301654738344708
 40
0.1928954183675367
 40
0.2548861644510806
 40
0.3159152759150242
 40
0.3757217049879619
 40
0.4348939684005516
 40
0.4942602988502234
 40
0.5542275159196142
 40
0.6145213332903879
 40
0.6758737775240504
 40
0.7392493939596073
 40
0.8036934159815458
 40
0.8684188552749402
 40
0.933664026793053
 40
1.0
 40
1.0
 40
1.0
 40
1.0
 10
4.510000000027631
 20
3.486615962596153
 30
0.0
 10
4.510272721614405
 20
3.474153226852875
 30
0.0
 10
4.510809659466154
 20
3.449616428588831
 30
0.0
 10
4.516329797556748
 20
3.41362231085708
 30
0.0
 10
4.524463869864769
 20
3.378956249959961
 30
0.0
 10
4.536471421466846
 20
3.346009797495897
 30
0.0
 10
4.551431319017668
 20
3.314927175135311
 30
0.0
 10
4.569536158178841
 20
3.286161143605828
 30
0.0
 10
4.590774034172588
 20
3.260033288208868
 30
0.0
 10
4.614811066939937
 20
3.236428718871437
 30
0.0
 10
4.641471901905572
 20
3.215469652103614
 30
0.0
 10
4.670695691354566
 20
3.197569490394753
 30
0.0
 10
4.702052294110157
 20
3.182215833892273
 30
0.0
 10
4.735639916732667
 20
3.17015280914392
 30
0.0
 10
4.770658026332808
 20
3.160558511372519
 30
0.0
 10
4.806716435171425
 20
3.153991702318892
 30
0.0
 10
4.8434890141285
 20
3.149676124460813
 30
0.0
 10
4.868281993837566
 20
3.149173862793146
 30
0.0
 10
4.880781250027631
 20
3.148920650096153
 30
0.0
  0
SPLINE
  5
4E
330
1F
100
AcDbEntity
  8
0
  6
Continuous
 62
     7
370
    15
100
AcDbSpline
210
0.0
220
0.0
230
1.0
 70
     8
 71
     3
 72
    11
 73
     7
 74
     0
 42
0.00000001
 43
0.00000001
 40
0.0
 40
0.0
 40
0.0
 40
0.0
 40
0.2324739040070727
 40
0.4765000704893053
 40
0.7318833312894754
 40
1.0
 40
1.0
 40
1.0
 40
1.0
 10
4.880781250027631
 20
3.148920650096153
 30
0.0
 10
4.893502825798049
 20
3.149141035115853
 30
0.0
 10
4.91957814714317
 20
3.149592756688087
 30
0.0
 10
4.959498380153287
 20
3.153078082686144
 30
0.0
 10
5.001161535971848
 20
3.158481738552017
 30
0.0
 10
5.029325495622604
 20
3.163731779598511
 30
0.0
 10
5.043750000027631
 20
3.166420650096153
 30
0.0
  0
SPLINE
  5
4F
330
1F
100
AcDbEntity
  8
0
  6
Continuous
 62
     7
370
    15
100
AcDbSpline
210
0.0
220
0.0
230
1.0
 70
     8
 71
     3
 72
    11
 73
     7
 74
     0
 42
0.00000001
 43
0.00000001
 40
0.0
 40
0.0
 40
0.0
 40
0.0
 40
0.3263922777820391
 40
0.6017472644537458
 40
0.8263731676912583
 40
1.0
 40
1.0
 40
1.0
 40
1.0
 10
5.043750000027631
 20
3.166420650096153
 30
0.0
 10
5.044121916354754
 20
3.17311935077552
 30
0.0
 10
5.044807593215657
 20
3.185469290046739
 30
0.0
 10
5.045646539559178
 20
3.202436586034547
 30
0.0
 10
5.046786766584994
 20
3.216237340668965
 30
0.0
 10
5.047528282667733
 20
3.224389833344281
 30
0.0
 10
5.047851562527632
 20
3.227944087596154
 30
0.0
  0
SPLINE
  5
51
330
1F
100
AcDbEntity
  8
0
  6
Continuous
 62
     7
370
    15
100
AcDbSpline
210
0.0
220
0.0
230
1.0
 70
     8
 71
     3
 72
    15
 73
    11
 74
     0
 42
0.00000001
 43
0.00000001
 40
0.0
 40
0.0
 40
0.0
 40
0.0
 40
0.1691507646270801
 40
0.3221275408433145
 40
0.4577494795068822
 40
0.5784247334964687
 40
0.6890274475234835
 40
0.795243990543984
 40
0.89907819378417
 40
1.0
 40
1.0
 40
1.0
 40
1.0
 10
5.052500000027631
 20
3.280170650096153
 30
0.0
 10
5.044129720298612
 20
3.277030832046618
 30
0.0
 10
5.028189516710267
 20
3.271051421494013
 30
0.0
 10
5.005304150842721
 20
3.263186282846932
 30
0.0
 10
4.984531985673052
 20
3.257126759678878
 30
0.0
 10
4.965691046018054
 20
3.252511149375073
 30
0.0
 10
4.948161348216551
 20
3.249171438716504
 30
0.0
 10
4.931373560228796
 20
3.24681778840994
 30
0.0
 10
4.914986290621562
 20
3.245390302805916
 30
0.0
 10
4.904162863674888
 20
3.245243170073309
 30
0.0
 10
4.898828125027631
 20
3.245170650096153
 30
0.0
  0
SPLINE
  5
52
330
1F
100
AcDbEntity
  8
0
  6
Continuous
 62
     7
370
    15
100
AcDbSpline
210
0.0
220
0.0
230
1.0
 70
     8
 71
     3
 72
    23
 73
    19
 74
     0
 42
0.00000001
 43
0.00000001
 40
0.0
 40
0.0
 40
0.0
 40
0.0
 40
0.0634762895811306
 40
0.1259350311944987
 40
0.1880628790805758
 40
0.2500676885292402
 40
0.3113179291792654
 40
0.3721572808721432
 40
0.4328495046392488
 40
0.4941200147453353
 40
0.5556776308467728
 40
0.6170625376428546
 40
0.6796711975285257
 40
0.7433652284266272
 40
0.8075563910098444
 40
0.8713993843896991
 40
0.9354365774374966
 40
1.0
 40
1.0
 40
1.0
 40
1.0
 10
4.898828125027631
 20
3.245170650096153
 30
0.0
 10
4.890615549618555
 20
3.24534646215408
 30
0.0
 10
4.874322049365879
 20
3.245695267938817
 30
0.0
 10
4.850157082725763
 20
3.248741293306128
 30
0.0
 10
4.82642959635811
 20
3.253265893083326
 30
0.0
 10
4.8033920920864
 20
3.260016781371223
 30
0.0
 10
4.781105584917705
 20
3.268504145910069
 30
0.0
 10
4.760132894621548
 20
3.279528181433825
 30
0.0
 10
4.74045443607731
 20
3.292715130319822
 30
0.0
 10
4.722306237739669
 20
3.308073327862044
 30
0.0
 10
4.705674854246294
 20
3.325209725241396
 30
0.0
 10
4.691303154575706
 20
3.344490241910404
 30
0.0
 10
4.678626701232353
 20
3.365240927296639
 30
0.0
 10
4.668345328502673
 20
3.387685998119047
 30
0.0
 10
4.660162877313922
 20
3.411127971914375
 30
0.0
 10
4.654229642482912
 20
3.435288628348963
 30
0.0
 10
4.650777297208744
 20
3.45999260973375
 30
0.0
 10
4.650259804941816
 20
3.476625075140461
 30
0.0
 10
4.650000000027632
 20
3.484975337596153
 30
0.0
  0
SPLINE
  5
53
330
1F
100
AcDbEntity
  8
0
  6
Continuous
 62
     7
370
    15
100
AcDbSpline
210
0.0
220
0.0
230
1.0
 70
     8
 71
     3
 72
    27
 73
    23
 74
     0
 42
0.00000001
 43
0.00000001
 40
0.0
 40
0.0
 40
0.0
 40
0.0
 40
0.08333922391591
 40
0.1628945553517357
 40
0.2400010294562422
 40
0.3156991729862437
 40
0.3531136784530837
 40
0.3903756676008824
 40
0.4279281053538191
 40
0.4657667822176966
 40
0.5043719742348567
 40
0.5434306227666799
 40
0.5836182406889745
 40
0.6249819353622879
 40
0.6674062492034794
 40
0.7107651891627266
 40
0.7549594140002897
 40
0.8006934324299683
 40
0.8476130237959255
 40
0.8964482270997379
 40
0.9473391496215547
 40
1.0
 40
1.0
 40
1.0
 40
1.0
 10
4.650000000027632
 20
3.484975337596154
 30
0.0
 10
4.650284115733722
 20
3.494790336669215
 30
0.0
 10
4.650839447298349
 20
3.513974699501742
 30
0.0
 10
4.655325184061903
 20
3.541955954004916
 30
0.0
 10
4.662589622087431
 20
3.568369468914834
 30
0.0
 10
4.670938721318493
 20
3.589231008575288
 30
0.0
 10
4.679388606618333
 20
3.604803318220215
 30
0.0
 10
4.686497695041226
 20
3.615957500529119
 30
0.0
 10
4.694612932758375
 20
3.626465173459132
 30
0.0
 10
4.703524077398614
 20
3.636513373302118
 30
0.0
 10
4.713352132308443
 20
3.645936958318696
 30
0.0
 10
4.724141288310233
 20
3.654671679561539
 30
0.0
 10
4.735581629590004
 20
3.663100766719456
 30
0.0
 10
4.748066537727828
 20
3.670687436409406
 30
0.0
 10
4.761291823518699
 20
3.677721915816126
 30
0.0
 10
4.775396676375763
 20
3.68370578046674
 30
0.0
 10
4.790264541303601
 20
3.688747276089536
 30
0.0
 10
4.805806435957653
 20
3.693044612408691
 30
0.0
 10
4.822194224124764
 20
3.696111651144433
 30
0.0
 10
4.839305836746108
 20
3.698411781734975
 30
0.0
 10
4.857189778122549
 20
3.700018497328915
 30
0.0
 10
4.869384406706139
 20
3.700119357864181
 30
0.0
 10
4.875585937527631
 20
3.700170650096153
 30
0.0
  0
SPLINE
  5
54
330
1F
100
AcDbEntity
  8
0
  6
Continuous
 62
     7
370
    15
100
AcDbSpline
210
0.0
220
0.0
230
1.0
 70
     8
 71
     3
 72
    15
 73
    11
 74
     0
 42
0.00000001
 43
0.00000001
 40
0.0
 40
0.0
 40
0.0
 40
0.0
 40
0.1046270719193299
 40
0.2143723102476719
 40
0.329553677957901
 40
0.4512251525139136
 40
0.5780668595935552
 40
0.7125934749796874
 40
0.8526811887247582
 40
1.0
 40
1.0
 40
1.0
 40
1.0
 10
4.875585937527632
 20
3.700170650096154
 30
0.0
 10
4.881604969323691
 20
3.70005988061289
 30
0.0
 10
4.893937473023787
 20
3.699832923004341
 30
0.0
 10
4.912830221642825
 20
3.6980992804376
 30
0.0
 10
4.932579846562545
 20
3.695339174800523
 30
0.0
 10
4.95315735227959
 20
3.691520365237153
 30
0.0
 10
4.974618526932994
 20
3.686508180566182
 30
0.0
 10
4.996930256413213
 20
3.680537847654154
 30
0.0
 10
5.020129346359703
 20
3.673383276871597
 30
0.0
 10
5.035745482394599
 20
3.667953727853514
 30
0.0
 10
5.043750000027631
 20
3.665170650096153
 30
0.0
  0
SPLINE
  5
55
330
1F
100
AcDbEntity
  8
0
  6
Continuous
 62
     7
370
    15
100
AcDbSpline
210
0.0
220
0.0
230
1.0
 70
     8
 71
     3
 72
     9
 73
     5
 74
     0
 42
0.00000001
 43
0.00000001
 40
0.0
 40
0.0
 40
0.0
 40
0.0
 40
0.4962073069162325
 40
1.0
 40
1.0
 40
1.0
 40
1.0
 10
5.043750000027631
 20
3.665170650096153
 30
0.0
 10
5.040482356449159
 20
3.683927738798019
 30
0.0
 10
5.033897117713396
 20
3.721728650716133
 30
0.0
 10
5.028811897043727
 20
3.759760488244708
 30
0.0
 10
5.026250000027631
 20
3.778920650096154
 30
0.0
  0
SPLINE
  5
56
330
1F
100
AcDbEntity
  8
0
  6
Continuous
 62
     7
370
    15
100
AcDbSpline
210
0.0
220
0.0
230
1.0
 70
     8
 71
     3
 72
    19
 73
    15
 74
     0
 42
0.00000001
 43
0.00000001
 40
0.0
 40
0.0
 40
0.0
 40
0.0
 40
0.1611543917525451
 40
0.3162786415531753
 40
0.4657141776690304
 40
0.608825802105298
 40
0.6762333689936123
 40
0.7383588316156371
 40
0.7951834564344653
 40
0.8470552519785283
 40
0.8929757562404916
 40
0.9339365995321346
 40
0.9696136490946167
 40
1.0
 40
1.0
 40
1.0
 40
1.0
 10
2.963027343777632
 20
3.621967525096152
 30
0.0
 10
2.964431577453609
 20
3.599775753034167
 30
0.0
 10
2.967187500606749
 20
3.556222589852611
 30
0.0
 10
2.970615211643352
 20
3.492053314992444
 30
0.0
 10
2.973285703180163
 20
3.430341283522228
 30
0.0
 10
2.975234048821508
 20
3.380711670166057
 30
0.0
 10
2.976219191657296
 20
3.343104763576331
 30
0.0
 10
2.977162358086595
 20
3.317407708878624
 30
0.0
 10
2.977606721184795
 20
3.293841240237885
 30
0.0
 10
2.978199657290971
 20
3.272515497093407
 30
0.0
 10
2.978634152966012
 20
3.253374913441929
 30
0.0
 10
2.978834118065329
 20
3.236465510972151
 30
0.0
 10
2.979223738778937
 20
3.221702053214233
 30
0.0
 10
2.979180187850224
 20
3.212586207278364
 30
0.0
 10
2.979160156277632
 20
3.208393306346153
 30
0.0
  0
SPLINE
  5
58
330
1F
100
AcDbEntity
  8
0
  6
Continuous
 62
     7
370
    15
100
AcDbSpline
210
0.0
220
0.0
230
1.0
 70
     8
 71
     3
 72
    11
 73
     7
 74
     0
 42
0.00000001
 43
0.00000001
 40
0.0
 40
0.0
 40
0.0
 40
0.0
 40
0.3269352262201083
 40
0.6031558540531389
 40
0.8269389139458423
 40
1.0
 40
1.0
 40
1.0
 40
1.0
 10
2.978613281277632
 20
3.157670650096152
 30
0.0
 10
2.987135240650552
 20
3.157821133624934
 30
0.0
 10
3.002857222473091
 20
3.158098757490593
 30
0.0
 10
3.024414843008852
 20
3.158286690626305
 30
0.0
 10
3.04195845543615
 20
3.158685053611074
 30
0.0
 10
3.052304545419402
 20
3.158645103376903
 30
0.0
 10
3.056816406277632
 20
3.158627681346153
 30
0.0
  0
SPLINE
  5
59
330
1F
100
AcDbEntity
  8
0
  6
Continuous
 62
     7
370
    15
100
AcDbSpline
210
0.0
220
0.0
230
1.0
 70
     8
 71
     3
 72
    15
 73
    11
 74
     0
 42
0.00000001
 43
0.00000001
 40
0.0
 40
0.0
 40
0.0
 40
0.0
 40
0.0696245532397212
 40
0.1547212294216009
 40
0.2553086231282376
 40
0.3732994120822555
 40
0.5048266770230825
 40
0.6537584183532232
 40
0.8200949838767869
 40
1.0
 40
1.0
 40
1.0
 40
1.0
 10
3.056816406277632
 20
3.158627681346153
 30
0.0
 10
3.058457012238261
 20
3.1586257531418
 30
0.0
 10
3.062102803261884
 20
3.158621468243239
 30
0.0
 10
3.06811926204712
 20
3.158661534962923
 30
0.0
 10
3.075273076204551
 20
3.158464511003005
 30
0.0
 10
3.083522078689007
 20
3.15835202663053
 30
0.0
 10
3.092910043759569
 20
3.158208785374837
 30
0.0
 10
3.103437290411911
 20
3.158066148620206
 30
0.0
 10
3.115105382444512
 20
3.157972124839956
 30
0.0
 10
3.123261915270298
 20
3.157773733189106
 30
0.0
 10
3.127500000027632
 20
3.157670650096152
 30
0.0
  0
SPLINE
  5
5D
330
1F
100
AcDbEntity
  8
0
  6
Continuous
 62
     7
370
    15
100
AcDbSpline
210
0.0
220
0.0
230
1.0
 70
     8
 71
     3
 72
    15
 73
    11
 74
     0
 42
0.00000001
 43
0.00000001
 40
0.0
 40
0.0
 40
0.0
 40
0.0
 40
0.1810959085755499
 40
0.3475282471964913
 40
0.4960412233391747
 40
0.6297767670262086
 40
0.7455836684232037
 40
0.8467233048019135
 40
0.9315216721944086
 40
1.0
 40
1.0
 40
1.0
 40
1.0
 10
3.431015625027632
 20
3.287690181346154
 30
0.0
 10
3.431197592891693
 20
3.282631574187181
 30
0.0
 10
3.431546794446494
 20
3.272923961833918
 30
0.0
 10
3.432050330183826
 20
3.259068102744859
 30
0.0
 10
3.432714210179646
 20
3.246542930765298
 30
0.0
 10
3.432896565456511
 20
3.23541709296822
 30
0.0
 10
3.433179093420282
 20
3.22561910520418
 30
0.0
 10
3.433481817929943
 20
3.217190403296465
 30
0.0
 10
3.433636939784094
 20
3.210080090352717
 30
0.0
 10
3.433620587064617
 20
3.205795695776967
 30
0.0
 10
3.433613281277632
 20
3.203881587596153
 30
0.0
  0
SPLINE
  5
60
330
1F
100
AcDbEntity
  8
0
  6
Continuous
 62
     7
370
    15
100
AcDbSpline
210
0.0
220
0.0
230
1.0
 70
     8
 71
     3
 72
    15
 73
    11
 74
     0
 42
0.00000001
 43
0.00000001
 40
0.0
 40
0.0
 40
0.0
 40
0.0
 40
0.0465967952362179
 40
0.1164919880905525
 40
0.2097058006724827
 40
0.3223314586042917
 40
0.4582526454296089
 40
0.6174702006632442
 40
0.7980432202520893
 40
0.9999999999999999
 40
0.9999999999999999
 40
0.9999999999999999
 40
0.9999999999999999
 10
3.512089843777632
 20
3.158627681346153
 30
0.0
 10
3.513183581281131
 20
3.158626515950915
 30
0.0
 10
3.515917925039879
 20
3.15862360246282
 30
0.0
 10
3.520840640264166
 20
3.158657693560975
 30
0.0
 10
3.527310754112117
 20
3.158461122517336
 30
0.0
 10
3.535331897404721
 20
3.158347034699272
 30
0.0
 10
3.544902203221444
 20
3.158206379352672
 30
0.0
 10
3.556067516930317
 20
3.158065919812655
 30
0.0
 10
3.568783594077666
 20
3.157968273971579
 30
0.0
 10
3.57776059064768
 20
3.157773487631876
 30
0.0
 10
3.582500000027632
 20
3.157670650096152
 30
0.0
  0
SPLINE
  5
64
330
1F
100
AcDbEntity
  8
0
  6
Continuous
 62
     7
370
    15
100
AcDbSpline
210
0.0
220
0.0
230
1.0
 70
     8
 71
     3
 72
    15
 73
    11
 74
     0
 42
0.00000001
 43
0.00000001
 40
0.0
 40
0.0
 40
0.0
 40
0.0
 40
0.1937063329723046
 40
0.3692023587375493
 40
0.5231773362376675
 40
0.6572870416681886
 40
0.7731754866881949
 40
0.8692116120488497
 40
0.9437113267045698
 40
1.0
 40
1.0
 40
1.0
 40
1.0
 10
3.557070312527632
 20
3.705092525096153
 30
0.0
 10
3.557026369091735
 20
3.710424569558894
 30
0.0
 10
3.556942613336643
 20
3.720587393676881
 30
0.0
 10
3.556798762480401
 20
3.734988395697986
 30
0.0
 10
3.55669128296485
 20
3.747749044202752
 30
0.0
 10
3.556467437885819
 20
3.758867882591188
 30
0.0
 10
3.556593612961945
 20
3.768394287686118
 30
0.0
 10
3.556348162271881
 20
3.776276698789091
 30
0.0
 10
3.556392898563241
 20
3.782520963292525
 30
0.0
 10
3.556388578182151
 20
3.786121186810105
 30
0.0
 10
3.556386718777632
 20
3.787670650096153
 30
0.0
  0
SPLINE
  5
66
330
1F
100
AcDbEntity
  8
0
  6
Continuous
 62
     7
370
    15
100
AcDbSpline
210
0.0
220
0.0
230
1.0
 70
     8
 71
     3
 72
    15
 73
    11
 74
     0
 42
0.00000001
 43
0.00000001
 40
0.0
 40
0.0
 40
0.0
 40
0.0
 40
0.0534709031362981
 40
0.1283301675271041
 40
0.2228122429877276
 40
0.3368974268763797
 40
0.4723687737227475
 40
0.6274446359477135
 40
0.8039076179034229
 40
1.0
 40
1.0
 40
1.0
 40
1.0
 10
3.484199218777632
 20
3.786713618846153
 30
0.0
 10
3.482832045029593
 20
3.786715034754697
 30
0.0
 10
3.479550828034301
 20
3.786718432935204
 30
0.0
 10
3.47385342827023
 20
3.786681852537478
 30
0.0
 10
3.466608471144883
 20
3.786879797789369
 30
0.0
 10
3.457812608087385
 20
3.786993318467697
 30
0.0
 10
3.447467555377971
 20
3.78713299748937
 30
0.0
 10
3.435527532277857
 20
3.787276058955098
 30
0.0
 10
3.422036765147379
 20
3.787372126140812
 30
0.0
 10
3.412512855384247
 20
3.787567707151399
 30
0.0
 10
3.407500000027632
 20
3.787670650096153
 30
0.0
  0
SPLINE
  5
67
330
1F
100
AcDbEntity
  8
0
  6
Continuous
 62
     7
370
    15
100
AcDbSpline
210
0.0
220
0.0
230
1.0
 70
     8
 71
     3
 72
    11
 73
     7
 74
     0
 42
0.00000001
 43
0.00000001
 40
0.0
 40
0.0
 40
0.0
 40
0.0
 40
0.2409353110406284
 40
0.4880683866074282
 40
0.7409066151329261
 40
1.0
 40
1.0
 40
1.0
 40
1.0
 10
3.407500000027632
 20
3.787670650096153
 30
0.0
 10
3.408916770642371
 20
3.765206110600915
 30
0.0
 10
3.411786756553286
 20
3.719699158963302
 30
0.0
 10
3.415216892925554
 20
3.650563500300026
 30
0.0
 10
3.417668841254537
 20
3.579688469703225
 30
0.0
 10
3.418633082334761
 20
3.53187134487889
 30
0.0
 10
3.419121093777632
 20
3.507670650096153
 30
0.0
  0
SPLINE
  5
6C
330
1F
100
AcDbEntity
  8
0
  6
Continuous
 62
     7
370
    15
100
AcDbSpline
210
0.0
220
0.0
230
1.0
 70
     8
 71
     3
 72
    15
 73
    11
 74
     0
 42
0.00000001
 43
0.00000001
 40
0.0
 40
0.0
 40
0.0
 40
0.0
 40
0.0551271771251903
 40
0.129263725672853
 40
0.2243295902561105
 40
0.3384016588339005
 40
0.4733815821509437
 40
0.6292700184644681
 40
0.8041665664262522
 40
1.0
 40
1.0
 40
1.0
 40
1.0
 10
3.024414062527632
 20
3.786713618846153
 30
0.0
 10
3.023092463056154
 20
3.786715087711914
 30
0.0
 10
3.019993540157515
 20
3.786718531948872
 30
0.0
 10
3.014615109217764
 20
3.786682462212567
 30
0.0
 10
3.007825934028159
 20
3.786879274347943
 30
0.0
 10
2.999576935875389
 20
3.786993083294344
 30
0.0
 10
2.989869917338089
 20
3.787133888949739
 30
0.0
 10
2.978704612841894
 20
3.787274700471595
 30
0.0
 10
2.966079679877389
 20
3.787373265664593
 30
0.0
 10
2.957193835282238
 20
3.78756785875317
 30
0.0
 10
2.952500000027632
 20
3.787670650096153
 30
0.0
  0
CIRCLE
  5
6E
330
1F
100
AcDbEntity
  8
0
  6
Continuous
 62
     7
370
    15
100
AcDbCircle
 10
-4.0
 20
-4.0
 30
0.0
 40
0.1329999999999987
  0
CIRCLE
  5
6F
330
1F
100
AcDbEntity
  8
0
  6
Continuous
 62
     7
370
    15
100
AcDbCircle
 10
-4.0
 20
-3.0
 30
0.0
 40
0.1329999999999991
  0
CIRCLE
  5
70
330
1F
100
AcDbEntity
  8
0
  6
Continuous
 62
     7
370
    15
100
AcDbCircle
 10
-4.0
 20
-2.0
 30
0.0
 40
0.1329999999999982
  0
CIRCLE
  5
71
330
1F
100
AcDbEntity
  8
0
  6
Continuous
 62
     7
370
    15
100
AcDbCircle
 10
-4.0
 20
-1.0
 30
0.0
 40
0.1329999999999992
  0
CIRCLE
  5
72
330
1F
100
AcDbEntity
  8
0
  6
Continuous
 62
     7
370
    15
100
AcDbCircle
 10
-4.0
 20
0.0
 30
0.0
 40
0.1329999999999984
  0
CIRCLE
  5
73
330
1F
100
AcDbEntity
  8
0
  6
Continuous
 62
     7
370
    15
100
AcDbCircle
 10
-3.0
 20
-4.0
 30
0.0
 40
0.1329999999999996
  0
CIRCLE
  5
74
330
1F
100
AcDbEntity
  8
0
  6
Continuous
 62
     7
370
    15
100
AcDbCircle
 10
-3.0
 20
-3.0
 30
0.0
 40
0.1329999999999991
  0
CIRCLE
  5
75
330
1F
100
AcDbEntity
  8
0
  6
Continuous
 62
     7
370
    15
100
AcDbCircle
 10
-3.0
 20
-2.0
 30
0.0
 40
0.1329999999999991
  0
CIRCLE
  5
76
330
1F
100
AcDbEntity
  8
0
  6
Continuous
 62
     7
370
    15
100
AcDbCircle
 10
-3.0
 20
-1.0
 30
0.0
 40
0.1329999999999989
  0
CIRCLE
  5
77
330
1F
100
AcDbEntity
  8
0
  6
Continuous
 62
     7
370
    15
100
AcDbCircle
 10
-3.0
 20
0.0
 30
0.0
 40
0.1329999999999993
  0
CIRCLE
  5
78
330
1F
100
AcDbEntity
  8
0
  6
Continuous
 62
     7
370
    15
100
AcDbCircle
 10
-2.0
 20
-4.0
 30
0.0
 40
0.1329999999999996
  0
CIRCLE
  5
79
330
1F
100
AcDbEntity
  8
0
  6
Continuous
 62
     7
370
    15
100
AcDbCircle
 10
-2.0
 20
-3.0
 30
0.0
 40
0.1329999999999991
  0
CIRCLE
  5
7A
330
1F
100
AcDbEntity
  8
0
  6
Continuous
 62
     7
370
    15
100
AcDbCircle
 10
-2.0
 20
-2.0
 30
0.0
 40
0.1329999999999993
  0
CIRCLE
  5
7B
330
1F
100
AcDbEntity
  8
0
  6
Continuous
 62
     7
370
    15
100
AcDbCircle
 10
-2.0
 20
-1.0
 30
0.0
 40
0.1329999999999998
  0
CIRCLE
  5
7C
330
1F
100
AcDbEntity
  8
0
  6
Continuous
 62
     7
370
    15
100
AcDbCircle
 10
-2.0
 20
0.0
 30
0.0
 40
0.1329999999999995
  0
CIRCLE
  5
7D
330
1F
100
AcDbEntity
  8
0
  6
Continuous
 62
     7
370
    15
100
AcDbCircle
 10
-1.0
 20
-4.0
 30
0.0
 40
0.1329999999999996
  0
CIRCLE
  5
7E
330
1F
100
AcDbEntity
  8
0
  6
Continuous
 62
     7
370
    15
100
AcDbCircle
 10
-1.0
 20
-3.0
 30
0.0
 40
0.1329999999999991
  0
CIRCLE
  5
7F
330
1F
100
AcDbEntity
  8
0
  6
Continuous
 62
     7
370
    15
100
AcDbCircle
 10
-1.0
 20
-2.0
 30
0.0
 40
0.1329999999999989
  0
CIRCLE
  5
80
330
1F
100
AcDbEntity
  8
0
  6
Continuous
 62
     7
370
    15
100
AcDbCircle
 10
-1.0
 20
-1.0
 30
0.0
 40
0.1329999999999996
  0
CIRCLE
  5
81
330
1F
100
AcDbEntity
  8
0
  6
Continuous
 62
     7
370
    15
100
AcDbCircle
 10
-1.0
 20
0.0
 30
0.0
 40
0.1329999999999997
  0
CIRCLE
  5
82
330
1F
100
AcDbEntity
  8
0
  6
Continuous
 62
     7
370
    15
100
AcDbCircle
 10
4.0
 20
-4.0
 30
0.0
 40
0.1329999999999996
  0
CIRCLE
  5
83
330
1F
100
AcDbEntity
  8
0
  6
Continuous
 62
     7
370
    15
100
AcDbCircle
 10
4.0
 20
-3.0
 30
0.0
 40
0.1329999999999991
  0
CIRCLE
  5
84
330
1F
100
AcDbEntity
  8
0
  6
Continuous
 62
     7
370
    15
100
AcDbCircle
 10
4.0
 20
-2.0
 30
0.0
 40
0.1329999999999991
  0
CIRCLE
  5
85
330
1F
100
AcDbEntity
  8
0
  6
Continuous
 62
     7
370
    15
100
AcDbCircle
 10
4.0
 20
-1.0
 30
0.0
 40
0.1329999999999989
  0
CIRCLE
  5
86
330
1F
100
AcDbEntity
  8
0
  6
Continuous
 62
     7
370
    15
100
AcDbCircle
 10
4.0
 20
0.0
 30
0.0
 40
0.1330000000000005
  0
CIRCLE
  5
87
330
1F
100
AcDbEntity
  8
0
  6
Continuous
 62
     7
370
    15
100
AcDbCircle
 10
3.0
 20
-4.0
 30
0.0
 40
0.1329999999999996
  0
CIRCLE
  5
88
330
1F
100
AcDbEntity
  8
0
  6
Continuous
 62
     7
370
    15
100
AcDbCircle
 10
3.0
 20
-3.0
 30
0.0
 40
0.133
  0
CIRCLE
  5
89
330
1F
100
AcDbEntity
  8
0
  6
Continuous
 62
     7
370
    15
100
AcDbCircle
 10
3.0
 20
-2.0
 30
0.0
 40
0.1329999999999996
  0
CIRCLE
  5
8A
330
1F
100
AcDbEntity
  8
0
  6
Continuous
 62
     7
370
    15
100
AcDbCircle
 10
3.0
 20
-1.0
 30
0.0
 40
0.1329999999999999
  0
CIRCLE
  5
8B
330
1F
100
AcDbEntity
  8
0
  6
Continuous
 62
     7
370
    15
100
AcDbCircle
 10
3.0
 20
0.0
 30
0.0
 40
0.1329999999999993
  0
CIRCLE
  5
8C
330
1F
100
AcDbEntity
  8
0
  6
Continuous
 62
     7
370
    15
100
AcDbCircle
 10
2.0
 20
-4.0
 30
0.0
 40
0.1329999999999996
  0
CIRCLE
  5
8D
330
1F
100
AcDbEntity
  8
0
  6
Continuous
 62
     7
370
    15
100
AcDbCircle
 10
2.0
 20
-3.0
 30
0.0
 40
0.1329999999999991
  0
CIRCLE
  5
8E
330
1F
100
AcDbEntity
  8
0
  6
Continuous
 62
     7
370
    15
100
AcDbCircle
 10
2.0
 20
-2.0
 30
0.0
 40
0.1329999999999998
  0
CIRCLE
  5
8F
330
1F
100
AcDbEntity
  8
0
  6
Continuous
 62
     7
370
    15
100
AcDbCircle
 10
2.0
 20
-1.0
 30
0.0
 40
0.1330000000000002
  0
CIRCLE
  5
90
330
1F
100
AcDbEntity
  8
0
  6
Continuous
 62
     7
370
    15
100
AcDbCircle
 10
2.0
 20
0.0
 30
0.0
 40
0.133
  0
CIRCLE
  5
91
330
1F
100
AcDbEntity
  8
0
  6
Continuous
 62
     7
370
    15
100
AcDbCircle
 10
1.0
 20
-4.0
 30
0.0
 40
0.1329999999999996
  0
CIRCLE
  5
92
330
1F
100
AcDbEntity
  8
0
  6
Continuous
 62
     7
370
    15
100
AcDbCircle
 10
1.0
 20
-3.0
 30
0.0
 40
0.1329999999999991
  0
CIRCLE
  5
93
330
1F
100
AcDbEntity
  8
0
  6
Continuous
 62
     7
370
    15
100
AcDbCircle
 10
1.0
 20
-2.0
 30
0.0
 40
0.1329999999999993
  0
CIRCLE
  5
94
330
1F
100
AcDbEntity
  8
0
  6
Continuous
 62
     7
370
    15
100
AcDbCircle
 10
1.0
 20
-1.0
 30
0.0
 40
0.1329999999999998
  0
CIRCLE
  5
95
330
1F
100
AcDbEntity
  8
0
  6
Continuous
 62
     7
370
    15
100
AcDbCircle
 10
1.0
 20
0.0
 30
0.0
 40
0.1329999999999997
  0
CIRCLE
  5
96
330
1F
100
AcDbEntity
  8
0
  6
Continuous
 62
     7
370
    15
100
AcDbCircle
 10
0.0
 20
-4.0
 30
0.0
 40
0.1329999999999996
  0
CIRCLE
  5
97
330
1F
100
AcDbEntity
  8
0
  6
Continuous
 62
     7
370
    15
100
AcDbCircle
 10
0.0
 20
-3.0
 30
0.0
 40
0.1329999999999991
  0
CIRCLE
  5
98
330
1F
100
AcDbEntity
  8
0
  6
Continuous
 62
     7
370
    15
100
AcDbCircle
 10
0.0
 20
-2.0
 30
0.0
 40
0.1329999999999993
  0
CIRCLE
  5
99
330
1F
100
AcDbEntity
  8
0
  6
Continuous
 62
     7
370
    15
100
AcDbCircle
 10
0.0
 20
-1.0
 30
0.0
 40
0.1329999999999996
  0
CIRCLE
  5
9A
330
1F
100
AcDbEntity
  8
0
  6
Continuous
 62
     7
370
    15
100
AcDbCircle
 10
0.0
 20
0.0
 30
0.0
 40
0.1329999999999995
  0
CIRCLE
  5
9B
330
1F
100
AcDbEntity
  8
0
  6
Continuous
 62
     7
370
    15
100
AcDbCircle
 10
5.8
 20
-2.0
 30
0.0
 40
0.0979999999999994
  0
CIRCLE
  5
9C
330
1F
100
AcDbEntity
  8
0
  6
Continuous
 62
     7
370
    15
100
AcDbCircle
 10
5.8
 20
2.0
 30
0.0
 40
0.0979999999999985
  0
CIRCLE
  5
9D
330
1F
100
AcDbEntity
  8
0
  6
Continuous
 62
     7
370
    15
100
AcDbCircle
 10
-5.8
 20
2.0
 30
0.0
 40
0.0979999999999996
  0
CIRCLE
  5
9E
330
1F
100
AcDbEntity
  8
0
  6
Continuous
 62
     7
370
    15
100
AcDbCircle
 10
-5.8
 20
-2.0
 30
0.0
 40
0.0980000000000003
  0
SPLINE
  5
A0
330
1F
100
AcDbEntity
  8
0
  6
Continuous
 62
     7
370
    15
100
AcDbSpline
210
0.0
220
0.0
230
1.0
 70
     8
 71
     3
 72
    11
 73
     7
 74
     0
 42
0.00000001
 43
0.00000001
 40
0.0
 40
0.0
 40
0.0
 40
0.0
 40
0.2163309341277603
 40
0.2750137432697024
 40
0.5868280914194208
 40
1.0
 40
1.0
 40
1.0
 40
1.0
 10
-5.400531041894461
 20
3.608366986100509
 30
0.0
 10
-4.949022015400356
 20
4.173092863274414
 30
0.0
 10
-4.758682461237491
 20
4.420162306732657
 30
0.0
 10
-3.55720856471947
 20
4.912019068929873
 30
0.0
 10
-2.494614689645101
 20
3.464702403594988
 30
0.0
 10
-1.659639438230444
 20
2.287670650096152
 30
0.0
 10
0.0000000000276319
 20
2.287670650096152
 30
0.0
  0
SPLINE
  5
A1
330
1F
100
AcDbEntity
  8
0
  6
Continuous
 62
     7
370
    15
100
AcDbSpline
210
0.0
220
0.0
230
1.0
 70
     8
 71
     3
 72
    11
 73
     7
 74
     0
 42
0.00000001
 43
0.00000001
 40
0.0
 40
0.0
 40
0.0
 40
0.0
 40
0.4131719085805792
 40
0.7249862567302976
 40
0.7836690658722397
 40
1.0
 40
1.0
 40
1.0
 40
1.0
 10
0.000000000027627
 20
2.287670650096152
 30
0.0
 10
1.659639438285703
 20
2.287670650096152
 30
0.0
 10
2.494614689700359
 20
3.464702403594988
 30
0.0
 10
3.557208564774729
 20
4.912019068929874
 30
0.0
 10
4.75868246129275
 20
4.420162306732658
 30
0.0
 10
4.949022015455614
 20
4.173092863274415
 30
0.0
 10
5.400531041949718
 20
3.60836698610051
 30
0.0
  0
SPLINE
  5
A4
330
1F
100
AcDbEntity
  8
0
  6
Continuous
 62
     7
370
    15
100
AcDbSpline
210
0.0
220
0.0
230
1.0
 70
     8
 71
     3
 72
    15
 73
    11
 74
     0
 42
0.00000001
 43
0.00000001
 40
0.0
 40
0.0
 40
0.0
 40
0.0
 40
0.1650749803002351
 40
0.3191297079694159
 40
0.4621814374081663
 40
0.5928548889123857
 40
0.7111501935800907
 40
0.8198181700221082
 40
0.9160985371858644
 40
1.0
 40
1.0
 40
1.0
 40
1.0
 10
3.726875000027633
 20
3.157670650096153
 30
0.0
 10
3.732343598225775
 20
3.157773702305247
 30
0.0
 10
3.742915716076711
 20
3.157972927053505
 30
0.0
 10
3.758229311630581
 20
3.158068117067141
 30
0.0
 10
3.772402389716149
 20
3.158212040575175
 30
0.0
 10
3.785390680593044
 20
3.158350854426634
 30
0.0
 10
3.797239739267344
 20
3.158472311592087
 30
0.0
 10
3.807948705300697
 20
3.158662728082412
 30
0.0
 10
3.817519576714766
 20
3.158620605554754
 30
0.0
 10
3.823489597796722
 20
3.158625433308261
 30
0.0
 10
3.826269531277633
 20
3.158627681346153
 30
0.0
  0
SPLINE
  5
A5
330
1F
100
AcDbEntity
  8
0
  6
Continuous
 62
     7
370
    15
100
AcDbSpline
210
0.0
220
0.0
230
1.0
 70
     8
 71
     3
 72
    15
 73
    11
 74
     0
 42
0.00000001
 43
0.00000001
 40
0.0
 40
0.0
 40
0.0
 40
0.0
 40
0.0758876739593494
 40
0.1651672903821201
 40
0.2693374708588958
 40
0.3883862590193728
 40
0.519338150675648
 40
0.6651691157726699
 40
0.8258793140452996
 40
0.9999999999999999
 40
0.9999999999999999
 40
0.9999999999999999
 40
0.9999999999999999
 10
3.826269531277633
 20
3.158627681346153
 30
0.0
 10
3.828593734848535
 20
3.158625604886466
 30
0.0
 10
3.833652295561673
 20
3.158621085533028
 30
0.0
 10
3.841901616868809
 20
3.158661835566765
 30
0.0
 10
3.851471116661215
 20
3.158467168709555
 30
0.0
 10
3.862317667804882
 20
3.158352367307958
 30
0.0
 10
3.874440033178097
 20
3.158210224655063
 30
0.0
 10
3.887838382254161
 20
3.158066943186922
 30
0.0
 10
3.902559557071994
 20
3.157971810305369
 30
0.0
 10
3.91281265579427
 20
3.157773681946889
 30
0.0
 10
3.918144531277633
 20
3.157670650096153
 30
0.0
  0
SPLINE
  5
A6
330
1F
100
AcDbEntity
  8
0
  6
Continuous
 62
     7
370
    15
100
AcDbSpline
210
0.0
220
0.0
230
1.0
 70
     8
 71
     3
 72
    19
 73
    15
 74
     0
 42
0.00000001
 43
0.00000001
 40
0.0
 40
0.0
 40
0.0
 40
0.0
 40
0.0908030387200339
 40
0.1667490435736226
 40
0.2299054828058872
 40
0.278070965388296
 40
0.3258826433936458
 40
0.3864942830856379
 40
0.460210832509418
 40
0.5467571220048636
 40
0.6446011718614145
 40
0.7528675908482897
 40
0.8711088648022006
 40
1.0
 40
1.0
 40
1.0
 40
1.0
 10
3.918144531277633
 20
3.157670650096153
 30
0.0
 10
3.91927031048839
 20
3.163461103429059
 30
0.0
 10
3.921337670890806
 20
3.174094586280848
 30
0.0
 10
3.924376963853847
 20
3.188717953370299
 30
0.0
 10
3.92696222821982
 20
3.200605255018806
 30
0.0
 10
3.929153710551681
 20
3.2107089923476
 30
0.0
 10
3.931699924355174
 20
3.220560906068506
 30
0.0
 10
3.935103737345817
 20
3.231894056584435
 30
0.0
 10
3.938951863817018
 20
3.245717953400493
 30
0.0
 10
3.94391087733866
 20
3.261736895960228
 30
0.0
 10
3.949657069276609
 20
3.279859081064193
 30
0.0
 10
3.956030429102491
 20
3.299943371261528
 30
0.0
 10
3.963319314004954
 20
3.321850969157994
 30
0.0
 10
3.968493056866661
 20
3.337048902819622
 30
0.0
 10
3.971191406277633
 20
3.344975337596154
 30
0.0
  0
SPLINE
  5
A7
330
1F
100
AcDbEntity
  8
0
  6
Continuous
 62
     7
370
    15
100
AcDbSpline
210
0.0
220
0.0
230
1.0
 70
     8
 71
     3
 72
     9
 73
     5
 74
     0
 42
0.00000001
 43
0.00000001
 40
0.0
 40
0.0
 40
0.0
 40
0.0
 40
0.505381916181038
 40
1.0
 40
1.0
 40
1.0
 40
1.0
 10
3.971191406277633
 20
3.344975337596154
 30
0.0
 10
3.979165084156055
 20
3.369713039269999
 30
0.0
 10
3.99494261323481
 20
3.418661568850913
 30
0.0
 10
4.008597572661419
 20
3.468243959360926
 30
0.0
 10
4.015351562527633
 20
3.492768306346153
 30
0.0
  0
SPLINE
  5
AB
330
1F
100
AcDbEntity
  8
0
  6
Continuous
 62
     7
370
    15
100
AcDbSpline
210
0.0
220
0.0
230
1.0
 70
     8
 71
     3
 72
    13
 73
     9
 74
     0
 42
0.00000001
 43
0.00000001
 40
0.0
 40
0.0
 40
0.0
 40
0.0
 40
0.1564766083543605
 40
0.333414545282732
 40
0.4462514322491943
 40
0.5951559029733914
 40
0.779534493631383
 40
1.0
 40
1.0
 40
1.0
 40
1.0
 10
4.199921875027633
 20
3.235190181346153
 30
0.0
 10
4.201515506741154
 20
3.231241486453844
 30
0.0
 10
4.204911158006223
 20
3.22282775403834
 30
0.0
 10
4.208651092693698
 20
3.211272183631921
 30
0.0
 10
4.212451167110643
 20
3.19995927362635
 30
0.0
 10
4.215867351675137
 20
3.188311137251536
 30
0.0
 10
4.22051410107184
 20
3.173980341947976
 30
0.0
 10
4.223646017972425
 20
3.163420960747557
 30
0.0
 10
4.225351562527632
 20
3.157670650096153
 30
0.0
  0
SPLINE
  5
AC
330
1F
100
AcDbEntity
  8
0
  6
Continuous
 62
     7
370
    15
100
AcDbSpline
210
0.0
220
0.0
230
1.0
 70
     8
 71
     3
 72
    11
 73
     7
 74
     0
 42
0.00000001
 43
0.00000001
 40
0.0
 40
0.0
 40
0.0
 40
0.0
 40
0.2734720579045838
 40
0.530843659374467
 40
0.7734716612384359
 40
1.0
 40
1.0
 40
1.0
 40
1.0
 10
4.225351562527632
 20
3.157670650096153
 30
0.0
 10
4.234648283415305
 20
3.157820830265129
 30
0.0
 10
4.252694387920489
 20
3.158112348861491
 30
0.0
 10
4.278991203615599
 20
3.158315393182118
 30
0.0
 10
4.303690497719644
 20
3.158697947797165
 30
0.0
 10
4.319641795233462
 20
3.15865056145677
 30
0.0
 10
4.327343750027633
 20
3.158627681346153
 30
0.0
  0
SPLINE
  5
AD
330
1F
100
AcDbEntity
  8
0
  6
Continuous
 62
     7
370
    15
100
AcDbSpline
210
0.0
220
0.0
230
1.0
 70
     8
 71
     3
 72
    15
 73
    11
 74
     0
 42
0.00000001
 43
0.00000001
 40
0.0
 40
0.0
 40
0.0
 40
0.0
 40
0.0847646034793283
 40
0.1795860243206081
 40
0.2873472164086213
 40
0.406600990991607
 40
0.5373475103498861
 40
0.6795868974277176
 40
0.8347558736324031
 40
0.9999999999999999
 40
0.9999999999999999
 40
0.9999999999999999
 40
0.9999999999999999
 10
4.327343750027633
 20
3.158627681346153
 30
0.0
 10
4.330032536375406
 20
3.158625362514679
 30
0.0
 10
4.335729117620686
 20
3.158620449736129
 30
0.0
 10
4.344844290459644
 20
3.158662551153544
 30
0.0
 10
4.355051899529437
 20
3.15847059748204
 30
0.0
 10
4.36639969210876
 20
3.158351709299097
 30
0.0
 10
4.378841102086372
 20
3.158212505879357
 30
0.0
 10
4.392421713078325
 20
3.158066986595241
 30
0.0
 10
4.407097355623201
 20
3.157973843252387
 30
0.0
 10
4.417259273921451
 20
3.157773811101976
 30
0.0
 10
4.422500000027633
 20
3.157670650096153
 30
0.0
  0
SPLINE
  5
AE
330
1F
100
AcDbEntity
  8
0
  6
Continuous
 62
     7
370
    15
100
AcDbSpline
210
0.0
220
0.0
230
1.0
 70
     8
 71
     3
 72
    19
 73
    15
 74
     0
 42
0.00000001
 43
0.00000001
 40
0.0
 40
0.0
 40
0.0
 40
0.0
 40
0.1278431842080008
 40
0.2620316169856915
 40
0.4028435078716183
 40
0.5502850032237296
 40
0.6232348323237673
 40
0.6913194921014783
 40
0.754541247379767
 40
0.8131543866684223
 40
0.8671604712368425
 40
0.9160476166544662
 40
0.9603277293909329
 40
1.0
 40
1.0
 40
1.0
 40
1.0
 10
4.422500000027633
 20
3.157670650096153
 30
0.0
 10
4.421438224951705
 20
3.180409201944054
 30
0.0
 10
4.419261975652658
 20
3.227014889572458
 30
0.0
 10
4.417062716886977
 20
3.298710994451987
 30
0.0
 10
4.41520222211305
 20
3.373906383690518
 30
0.0
 10
4.414447427680069
 20
3.438216639151959
 30
0.0
 10
4.413859553945391
 20
3.489577540169031
 30
0.0
 10
4.413644025394584
 20
3.525945623745511
 30
0.0
 10
4.413305835631682
 20
3.559759992628369
 30
0.0
 10
4.413218983247656
 20
3.591069174192581
 30
0.0
 10
4.413067299720575
 20
3.619825606695607
 30
0.0
 10
4.412949399617421
 20
3.646030104218472
 30
0.0
 10
4.412760015929447
 20
3.669682139843427
 30
0.0
 10
4.412782393910334
 20
3.684630254291516
 30
0.0
 10
4.412792968777634
 20
3.691694087596153
 30
0.0
  0
SPLINE
  5
AF
330
1F
100
AcDbEntity
  8
0
  6
Continuous
 62
     7
370
    15
100
AcDbSpline
210
0.0
220
0.0
230
1.0
 70
     8
 71
     3
 72
    11
 73
     7
 74
     0
 42
0.00000001
 43
0.00000001
 40
0.0
 40
0.0
 40
0.0
 40
0.0
 40
0.2122370667224688
 40
0.4487062617307563
 40
0.7122374814045541
 40
1.0
 40
1.0
 40
1.0
 40
1.0
 10
4.412792968777634
 20
3.691694087596153
 30
0.0
 10
4.412771287356908
 20
3.698484588542517
 30
0.0
 10
4.412725449043209
 20
3.712840894639162
 30
0.0
 10
4.413114169901845
 20
3.735625949870417
 30
0.0
 10
4.413311703178416
 20
3.760829098730582
 30
0.0
 10
4.41359968185267
 20
3.778465078525984
 30
0.0
 10
4.413750000027633
 20
3.787670650096153
 30
0.0
  0
SPLINE
  5
B0
330
1F
100
AcDbEntity
  8
0
  6
Continuous
 62
     7
370
    15
100
AcDbSpline
210
0.0
220
0.0
230
1.0
 70
     8
 71
     3
 72
    11
 73
     7
 74
     0
 42
0.00000001
 43
0.00000001
 40
0.0
 40
0.0
 40
0.0
 40
0.0
 40
0.3368571963606557
 40
0.6168521850127335
 40
0.8379159630823734
 40
1.0
 40
1.0
 40
1.0
 40
1.0
 10
4.413750000027633
 20
3.787670650096153
 30
0.0
 10
4.406458544146524
 20
3.787519948958279
 30
0.0
 10
4.393106445569503
 20
3.787243985353564
 30
0.0
 10
4.374966421771216
 20
3.787060193574884
 30
0.0
 10
4.360613385068367
 20
3.786659542772505
 30
0.0
 10
4.352317868264602
 20
3.78669754335774
 30
0.0
 10
4.348808593777633
 20
3.786713618846153
 30
0.0
  0
SPLINE
  5
B1
330
1F
100
AcDbEntity
  8
0
  6
Continuous
 62
     7
370
    15
100
AcDbSpline
210
0.0
220
0.0
230
1.0
 70
     8
 71
     3
 72
    11
 73
     7
 74
     0
 42
0.00000001
 43
0.00000001
 40
0.0
 40
0.0
 40
0.0
 40
0.0
 40
0.2040966051369983
 40
0.4391531036454452
 40
0.703067793265371
 40
1.0
 40
1.0
 40
1.0
 40
1.0
 10
4.348808593777633
 20
3.786713618846153
 30
0.0
 10
4.344296686813625
 20
3.786693015967953
 30
0.0
 10
4.334588451121641
 20
3.786648684912568
 30
0.0
 10
4.319050111872168
 20
3.787035844668028
 30
0.0
 10
4.301457158762811
 20
3.787237672432116
 30
0.0
 10
4.289062285068599
 20
3.787520768835597
 30
0.0
 10
4.282500000027634
 20
3.787670650096154
 30
0.0
  0
SPLINE
  5
B2
330
1F
100
AcDbEntity
  8
0
  6
Continuous
 62
     7
370
    15
100
AcDbSpline
210
0.0
220
0.0
230
1.0
 70
     8
 71
     3
 72
    11
 73
     7
 74
     0
 42
0.00000001
 43
0.00000001
 40
0.0
 40
0.0
 40
0.0
 40
0.0
 40
0.2892709107400679
 40
0.5538190973305732
 40
0.7901700590869348
 40
1.0
 40
1.0
 40
1.0
 40
1.0
 10
4.282500000027633
 20
3.787670650096153
 30
0.0
 10
4.282739766176804
 20
3.780197020591821
 30
0.0
 10
4.283198806707234
 20
3.765888500128138
 30
0.0
 10
4.283667024163446
 20
3.74546843570797
 30
0.0
 10
4.284325906792769
 20
3.72710752495607
 30
0.0
 10
4.284478853503368
 20
3.715574751285995
 30
0.0
 10
4.284550781277633
 20
3.710151118846154
 30
0.0
  0
SPLINE
  5
B4
330
1F
100
AcDbEntity
  8
0
  6
Continuous
 62
     7
370
    15
100
AcDbSpline
210
0.0
220
0.0
230
1.0
 70
     8
 71
     3
 72
     9
 73
     5
 74
     0
 42
0.00000001
 43
0.00000001
 40
0.0
 40
0.0
 40
0.0
 40
0.0
 40
0.5047878290214436
 40
0.9999999999999999
 40
0.9999999999999999
 40
0.9999999999999999
 40
0.9999999999999999
 10
4.288925781277633
 20
3.435619868846153
 30
0.0
 10
4.289187708012542
 20
3.416342808483106
 30
0.0
 10
4.289706592818891
 20
3.378154367211819
 30
0.0
 10
4.289824448807601
 20
3.339962589500236
 30
0.0
 10
4.289882812527633
 20
3.321049556346153
 30
0.0
  0
SPLINE
  5
B8
330
1F
100
AcDbEntity
  8
0
  6
Continuous
 62
     7
370
    15
100
AcDbSpline
210
0.0
220
0.0
230
1.0
 70
     8
 71
     3
 72
    11
 73
     7
 74
     0
 42
0.00000001
 43
0.00000001
 40
0.0
 40
0.0
 40
0.0
 40
0.0
 40
0.334902676537877
 40
0.6139664453679914
 40
0.8349101976559835
 40
1.0
 40
1.0
 40
1.0
 40
1.0
 10
4.100253906277633
 20
3.787670650096153
 30
0.0
 10
4.093691639770466
 20
3.787519981616748
 30
0.0
 10
4.081661244902874
 20
3.787243765876442
 30
0.0
 10
4.065298355702747
 20
3.787059414762633
 30
0.0
 10
4.052267191748864
 20
3.786658370073411
 30
0.0
 10
4.044700702807827
 20
3.786697068996004
 30
0.0
 10
4.041464843777633
 20
3.786713618846153
 30
0.0
  0
SPLINE
  5
B9
330
1F
100
AcDbEntity
  8
0
  6
Continuous
 62
     7
370
    15
100
AcDbSpline
210
0.0
220
0.0
230
1.0
 70
     8
 71
     3
 72
    11
 73
     7
 74
     0
 42
0.00000001
 43
0.00000001
 40
0.0
 40
0.0
 40
0.0
 40
0.0
 40
0.1823908953058789
 40
0.4087740694447086
 40
0.6812971130021016
 40
1.0
 40
1.0
 40
1.0
 40
1.0
 10
4.041464843777633
 20
3.786713618846153
 30
0.0
 10
4.03768210419575
 20
3.786695108939867
 30
0.0
 10
4.029204236646811
 20
3.786653624579009
 30
0.0
 10
4.015079021321158
 20
3.787049361329051
 30
0.0
 10
3.998123892472462
 20
3.787241685796492
 30
0.0
 10
3.985865663635062
 20
3.787520405199976
 30
0.0
 10
3.979257812527633
 20
3.787670650096153
 30
0.0
  0
SPLINE
  5
BB
330
1F
100
AcDbEntity
  8
0
  6
Continuous
 62
     7
370
    15
100
AcDbSpline
210
0.0
220
0.0
230
1.0
 70
     8
 71
     3
 72
    15
 73
    11
 74
     0
 42
0.00000001
 43
0.00000001
 40
0.0
 40
0.0
 40
0.0
 40
0.0
 40
0.0679865455933855
 40
0.1514408910149542
 40
0.2503969846820724
 40
0.3687554730650041
 40
0.5019939083361615
 40
0.6507482575080785
 40
0.8169663320360662
 40
1.0
 40
1.0
 40
1.0
 40
1.0
 10
3.894765625027633
 20
3.503295650096153
 30
0.0
 10
3.894362611901002
 20
3.501835243856029
 30
0.0
 10
3.89346489505931
 20
3.498582170467499
 30
0.0
 10
3.891804775858425
 20
3.493254458240821
 30
0.0
 10
3.889708126085458
 20
3.486889080014298
 30
0.0
 10
3.887267315652276
 20
3.479468921719283
 30
0.0
 10
3.884565277346221
 20
3.470966924694158
 30
0.0
 10
3.881386730714159
 20
3.461498663721278
 30
0.0
 10
3.877807767471894
 20
3.450994743487712
 30
0.0
 10
3.87538880729296
 20
3.443597914959717
 30
0.0
 10
3.874121093777633
 20
3.439721431346153
 30
0.0
  0
SPLINE
  5
BD
330
1F
100
AcDbEntity
  8
0
  6
Continuous
 62
     7
370
    15
100
AcDbSpline
210
0.0
220
0.0
230
1.0
 70
     8
 71
     3
 72
    13
 73
     9
 74
     0
 42
0.00000001
 43
0.00000001
 40
0.0
 40
0.0
 40
0.0
 40
0.0
 40
0.2057184469003724
 40
0.3678288834957117
 40
0.4605766739636795
 40
0.5964979153100928
 40
0.7777262371053142
 40
1.0
 40
1.0
 40
1.0
 40
1.0
 10
3.843769531277633
 20
3.345522212596153
 30
0.0
 10
3.842413258113727
 20
3.3414773729621
 30
0.0
 10
3.839988213344475
 20
3.334245115141131
 30
0.0
 10
3.837367925212135
 20
3.325055344089137
 30
0.0
 10
3.835512333489794
 20
3.3171666745147
 30
0.0
 10
3.83341107345054
 20
3.308930496219493
 30
0.0
 10
3.830729278710299
 20
3.29807093046208
 30
0.0
 10
3.828647030433173
 20
3.289966886915572
 30
0.0
 10
3.827500000027633
 20
3.285502681346153
 30
0.0
  0
SPLINE
  5
BF
330
1F
100
AcDbEntity
  8
0
  6
Continuous
 62
     7
370
    15
100
AcDbSpline
210
0.0
220
0.0
230
1.0
 70
     8
 71
     3
 72
    15
 73
    11
 74
     0
 42
0.00000001
 43
0.00000001
 40
0.0
 40
0.0
 40
0.0
 40
0.0
 40
0.081266036711823
 40
0.1741842471120227
 40
0.2801421955106153
 40
0.399142634426106
 40
0.5312432377283649
 40
0.6749355890624116
 40
0.8316704768769352
 40
1.0
 40
1.0
 40
1.0
 40
1.0
 10
3.824355468777633
 20
3.344565181346153
 30
0.0
 10
3.824272085971475
 20
3.347117588231775
 30
0.0
 10
3.824093364676573
 20
3.352588373933703
 30
0.0
 10
3.82363384898743
 20
3.361379919144839
 30
0.0
 10
3.823234256875234
 20
3.371361014243504
 30
0.0
 10
3.822864585250038
 20
3.382575345837642
 30
0.0
 10
3.822269736922764
 20
3.394967366981843
 30
0.0
 10
3.821737555879631
 20
3.408548782465802
 30
0.0
 10
3.821189507587895
 20
3.42326884339148
 30
0.0
 10
3.820843326824001
 20
3.43347783394574
 30
0.0
 10
3.820664062527633
 20
3.438764400096153
 30
0.0
  0
SPLINE
  5
C1
330
1F
100
AcDbEntity
  8
0
  6
Continuous
 62
     7
370
    15
100
AcDbSpline
210
0.0
220
0.0
230
1.0
 70
     8
 71
     3
 72
    11
 73
     7
 74
     0
 42
0.00000001
 43
0.00000001
 40
0.0
 40
0.0
 40
0.0
 40
0.0
 40
0.1895416572319025
 40
0.4183252111932679
 40
0.6884674787187183
 40
1.0
 40
1.0
 40
1.0
 40
1.0
 10
3.811093750027633
 20
3.724916743846153
 30
0.0
 10
3.811057973583365
 20
3.728881733213693
 30
0.0
 10
3.810979013692314
 20
3.737632606445353
 30
0.0
 10
3.810613461730821
 20
3.75203103730961
 30
0.0
 10
3.810555281762129
 20
3.768985944832969
 30
0.0
 10
3.81046077309142
 20
3.781153805379037
 30
0.0
 10
3.810410156277634
 20
3.787670650096154
 30
0.0
  0
SPLINE
  5
C3
330
1F
100
AcDbEntity
  8
0
  6
Continuous
 62
     7
370
    15
100
AcDbSpline
210
0.0
220
0.0
230
1.0
 70
     8
 71
     3
 72
    11
 73
     7
 74
     0
 42
0.00000001
 43
0.00000001
 40
0.0
 40
0.0
 40
0.0
 40
0.0
 40
0.156681463439031
 40
0.3752497675904308
 40
0.6577188161421195
 40
1.0
 40
1.0
 40
1.0
 40
1.0
 10
3.745058593777633
 20
3.786713618846153
 30
0.0
 10
3.741594898850134
 20
3.786698072354441
 30
0.0
 10
3.733299401169552
 20
3.786660838738708
 30
0.0
 10
3.718764094851176
 20
3.787064476332259
 30
0.0
 10
3.700122754274119
 20
3.787244104275874
 30
0.0
 10
3.686314895544706
 20
3.787519674020424
 30
0.0
 10
3.678750000027633
 20
3.787670650096153
 30
0.0
  0
LINE
  5
C6
330
1F
100
AcDbEntity
  8
0
  6
Continuous
 62
     7
370
    15
100
AcDbLine
 10
5.0478515625
 20
3.2279440876
 30
0.0
 11
5.0525
 21
3.2801706501
 31
0.0
  0
LINE
  5
C7
330
1F
100
AcDbEntity
  8
0
  6
Continuous
 62
     7
370
    15
100
AcDbLine
 10
2.9791601563
 20
3.2083933063
 30
0.0
 11
2.9786132813
 21
3.1576706501
 31
0.0
  0
LINE
  5
C8
330
1F
100
AcDbEntity
  8
0
  6
Continuous
 62
     7
370
    15
100
AcDbLine
 10
3.1275
 20
3.1576706501
 30
0.0
 11
3.1180664063
 21
3.3638425251
 31
0.0
  0
LINE
  5
C9
330
1F
100
AcDbEntity
  8
0
  6
Continuous
 62
     7
370
    15
100
AcDbLine
 10
3.1180664063
 20
3.3638425251
 30
0.0
 11
3.1169726563
 21
3.4114206501
 31
0.0
  0
LINE
  5
CA
330
1F
100
AcDbEntity
  8
0
  6
Continuous
 62
     7
370
    15
100
AcDbLine
 10
3.4230859375
 20
3.4114206501
 30
0.0
 11
3.431015625
 21
3.2876901813
 31
0.0
  0
LINE
  5
CB
330
1F
100
AcDbEntity
  8
0
  6
Continuous
 62
     7
370
    15
100
AcDbLine
 10
3.4336132813
 20
3.2038815876
 30
0.0
 11
3.4336132813
 21
3.1576706501
 31
0.0
  0
LINE
  5
CC
330
1F
100
AcDbEntity
  8
0
  6
Continuous
 62
     7
370
    15
100
AcDbLine
 10
3.4336132813
 20
3.1576706501
 30
0.0
 11
3.5120898438
 21
3.1586276813
 31
0.0
  0
LINE
  5
CD
330
1F
100
AcDbEntity
  8
0
  6
Continuous
 62
     7
370
    15
100
AcDbLine
 10
3.5825
 20
3.1576706501
 30
0.0
 11
3.563359375
 21
3.4092331501
 31
0.0
  0
LINE
  5
CE
330
1F
100
AcDbEntity
  8
0
  6
Continuous
 62
     7
370
    15
100
AcDbLine
 10
3.563359375
 20
3.4092331501
 30
0.0
 11
3.5584375
 21
3.5957175251
 31
0.0
  0
LINE
  5
CF
330
1F
100
AcDbEntity
  8
0
  6
Continuous
 62
     7
370
    15
100
AcDbLine
 10
3.5584375
 20
3.5957175251
 30
0.0
 11
3.5570703125
 21
3.7050925251
 31
0.0
  0
LINE
  5
D0
330
1F
100
AcDbEntity
  8
0
  6
Continuous
 62
     7
370
    15
100
AcDbLine
 10
3.5563867188
 20
3.7876706501
 30
0.0
 11
3.4841992188
 21
3.7867136188
 31
0.0
  0
LINE
  5
D1
330
1F
100
AcDbEntity
  8
0
  6
Continuous
 62
     7
370
    15
100
AcDbLine
 10
3.4191210938
 20
3.5076706501
 30
0.0
 11
3.1130078125
 21
3.5076706501
 31
0.0
  0
LINE
  5
D2
330
1F
100
AcDbEntity
  8
0
  6
Continuous
 62
     7
370
    15
100
AcDbLine
 10
3.1130078125
 20
3.5076706501
 30
0.0
 11
3.103984375
 21
3.6808933063
 31
0.0
  0
LINE
  5
D3
330
1F
100
AcDbEntity
  8
0
  6
Continuous
 62
     7
370
    15
100
AcDbLine
 10
3.103984375
 20
3.6808933063
 30
0.0
 11
3.1013867188
 21
3.7876706501
 31
0.0
  0
LINE
  5
D4
330
1F
100
AcDbEntity
  8
0
  6
Continuous
 62
     7
370
    15
100
AcDbLine
 10
3.1013867188
 20
3.7876706501
 30
0.0
 11
3.0244140625
 21
3.7867136188
 31
0.0
  0
LINE
  5
D5
330
1F
100
AcDbEntity
  8
0
  6
Continuous
 62
     7
370
    15
100
AcDbLine
 10
2.9525
 20
3.7876706501
 30
0.0
 11
2.9630273438
 21
3.6219675251
 31
0.0
  0
LINE
  5
D6
330
1F
100
AcDbEntity
  8
0
  6
Continuous
 62
     7
370
    15
100
AcDbLine
 10
3.6896875
 20
3.6833542438
 30
0.0
 11
3.7173046875
 21
3.3169479938
 31
0.0
  0
LINE
  5
D7
330
1F
100
AcDbEntity
  8
0
  6
Continuous
 62
     7
370
    15
100
AcDbLine
 10
3.7173046875
 20
3.3169479938
 30
0.0
 11
3.726875
 21
3.1576706501
 31
0.0
  0
LINE
  5
D8
330
1F
100
AcDbEntity
  8
0
  6
Continuous
 62
     7
370
    15
100
AcDbLine
 10
4.0153515625
 20
3.4927683063
 30
0.0
 11
4.050625
 21
3.6247019001
 31
0.0
  0
LINE
  5
D9
330
1F
100
AcDbEntity
  8
0
  6
Continuous
 62
     7
370
    15
100
AcDbLine
 10
4.050625
 20
3.6247019001
 30
0.0
 11
4.1114648438
 21
3.4553073688
 31
0.0
  0
LINE
  5
DA
330
1F
100
AcDbEntity
  8
0
  6
Continuous
 62
     7
370
    15
100
AcDbLine
 10
4.1114648438
 20
3.4553073688
 30
0.0
 11
4.199921875
 21
3.2351901813
 31
0.0
  0
LINE
  5
DB
330
1F
100
AcDbEntity
  8
0
  6
Continuous
 62
     7
370
    15
100
AcDbLine
 10
4.2845507813
 20
3.7101511188
 30
0.0
 11
4.2889257813
 21
3.4356198688
 31
0.0
  0
LINE
  5
DC
330
1F
100
AcDbEntity
  8
0
  6
Continuous
 62
     7
370
    15
100
AcDbLine
 10
4.2898828125
 20
3.3210495563
 30
0.0
 11
4.2894726563
 21
3.2837253376
 31
0.0
  0
LINE
  5
DD
330
1F
100
AcDbEntity
  8
0
  6
Continuous
 62
     7
370
    15
100
AcDbLine
 10
4.2894726563
 20
3.2837253376
 30
0.0
 11
4.1199414063
 21
3.7327097126
 31
0.0
  0
LINE
  5
DE
330
1F
100
AcDbEntity
  8
0
  6
Continuous
 62
     7
370
    15
100
AcDbLine
 10
4.1199414063
 20
3.7327097126
 30
0.0
 11
4.1002539063
 21
3.7876706501
 31
0.0
  0
LINE
  5
DF
330
1F
100
AcDbEntity
  8
0
  6
Continuous
 62
     7
370
    15
100
AcDbLine
 10
3.9792578125
 20
3.7876706501
 30
0.0
 11
3.894765625
 21
3.5032956501
 31
0.0
  0
LINE
  5
E0
330
1F
100
AcDbEntity
  8
0
  6
Continuous
 62
     7
370
    15
100
AcDbLine
 10
3.8741210938
 20
3.4397214313
 30
0.0
 11
3.8437695313
 21
3.3455222126
 31
0.0
  0
LINE
  5
E1
330
1F
100
AcDbEntity
  8
0
  6
Continuous
 62
     7
370
    15
100
AcDbLine
 10
3.8275
 20
3.2855026813
 30
0.0
 11
3.8243554688
 21
3.3445651813
 31
0.0
  0
LINE
  5
E2
330
1F
100
AcDbEntity
  8
0
  6
Continuous
 62
     7
370
    15
100
AcDbLine
 10
3.8206640625
 20
3.4387644001
 30
0.0
 11
3.81109375
 21
3.7249167438
 31
0.0
  0
LINE
  5
E3
330
1F
100
AcDbEntity
  8
0
  6
Continuous
 62
     7
370
    15
100
AcDbLine
 10
3.8104101563
 20
3.7876706501
 30
0.0
 11
3.7450585938
 21
3.7867136188
 31
0.0
  0
LINE
  5
E4
330
1F
100
AcDbEntity
  8
0
  6
Continuous
 62
     7
370
    15
100
AcDbLine
 10
3.67875
 20
3.7876706501
 30
0.0
 11
3.6896875
 21
3.6833542438
 31
0.0
  0
LINE
  5
E5
330
1F
100
AcDbEntity
  8
0
  6
Continuous
 62
     7
370
    15
100
AcDbLine
 10
3.1169726563
 20
3.4114206501
 30
0.0
 11
3.4230859375
 21
3.4114206501
 31
0.0
  0
ARC
  5
E6
330
1F
100
AcDbEntity
  8
0
  6
Continuous
 62
     7
370
    15
100
AcDbCircle
 10
0.0
 20
0.0
 30
0.0
 40
6.495078740157489
100
AcDbArc
 50
146.2511184706
 51
33.7488815291
  0
ENDSEC
  0
SECTION
  2
OBJECTS
  0
DICTIONARY
  5
C
330
0
100
AcDbDictionary
281
     1
  3
ACAD_GROUP
350
D
  3
ACAD_LAYOUT
350
1A
  3
ACAD_MLINESTYLE
350
17
  3
ACAD_PLOTSETTINGS
350
19
  3
ACAD_PLOTSTYLENAME
350
E
  3
ACAD_SCALELIST
350
E7
  3
AcDbVariableDictionary
350
109
  0
DICTIONARY
  5
D
102
{ACAD_REACTORS
330
C
102
}
330
C
100
AcDbDictionary
281
     1
  0
DICTIONARY
  5
1A
102
{ACAD_REACTORS
330
C
102
}
330
C
100
AcDbDictionary
281
     1
  3
Layout1
350
1E
  3
Layout2
350
26
  3
Model
350
22
  0
DICTIONARY
  5
17
102
{ACAD_REACTORS
330
C
102
}
330
C
100
AcDbDictionary
281
     1
  3
Standard
350
18
  0
DICTIONARY
  5
19
102
{ACAD_REACTORS
330
C
102
}
330
C
100
AcDbDictionary
281
     1
  0
ACDBDICTIONARYWDFLT
  5
E
102
{ACAD_REACTORS
330
C
102
}
330
C
100
AcDbDictionary
281
     1
  3
Normal
350
F
100
AcDbDictionaryWithDefault
340
F
  0
DICTIONARY
  5
E7
102
{ACAD_REACTORS
330
C
102
}
330
C
100
AcDbDictionary
281
     1
  3
A0
350
E8
  3
A1
350
E9
  3
A2
350
EA
  3
A3
350
EB
  3
A4
350
EC
  3
A5
350
ED
  3
A6
350
EE
  3
A7
350
EF
  3
A8
350
F0
  3
A9
350
F1
  3
B0
350
F2
  3
B1
350
F3
  3
B2
350
F4
  3
B3
350
F5
  3
B4
350
F6
  3
B5
350
F7
  3
B6
350
F8
  3
B7
350
F9
  3
B8
350
FA
  3
B9
350
FB
  3
C0
350
FC
  3
C1
350
FD
  3
C2
350
FE
  3
C3
350
FF
  3
C4
350
100
  3
C5
350
101
  3
C6
350
102
  3
C7
350
103
  3
C8
350
104
  3
C9
350
105
  3
D0
350
106
  3
D1
350
107
  3
D2
350
108
  0
DICTIONARY
  5
109
102
{ACAD_REACTORS
330
C
102
}
330
C
100
AcDbDictionary
281
     1
  3
CANNOSCALE
350
10A
  0
LAYOUT
  5
1E
102
{ACAD_REACTORS
330
1A
102
}
330
1A
100
AcDbPlotSettings
  1

  2
none_device
  4

  6

 40
0.0
 41
0.0
 42
0.0
 43
0.0
 44
0.0
 45
0.0
 46
0.0
 47
0.0
 48
0.0
 49
0.0
140
0.0
141
0.0
142
1.0
143
1.0
 70
   688
 72
     0
 73
     0
 74
     5
  7

 75
    16
147
1.0
148
0.0
149
0.0
100
AcDbLayout
  1
Layout1
 70
     1
 71
     1
 10
0.0
 20
0.0
 11
12.0
 21
9.0
 12
0.0
 22
0.0
 32
0.0
 14
1.0000000000E+20
 24
1.0000000000E+20
 34
1.0000000000E+20
 15
-1.0000000000E+20
 25
-1.0000000000E+20
 35
-1.0000000000E+20
146
0.0
 13
0.0
 23
0.0
 33
0.0
 16
1.0
 26
0.0
 36
0.0
 17
0.0
 27
1.0
 37
0.0
 76
     0
330
1B
  0
LAYOUT
  5
26
102
{ACAD_REACTORS
330
1A
102
}
330
1A
100
AcDbPlotSettings
  1

  2
none_device
  4

  6

 40
0.0
 41
0.0
 42
0.0
 43
0.0
 44
0.0
 45
0.0
 46
0.0
 47
0.0
 48
0.0
 49
0.0
140
0.0
141
0.0
142
1.0
143
1.0
 70
   688
 72
     0
 73
     0
 74
     5
  7

 75
    16
147
1.0
148
0.0
149
0.0
100
AcDbLayout
  1
Layout2
 70
     1
 71
     2
 10
0.0
 20
0.0
 11
0.0
 21
0.0
 12
0.0
 22
0.0
 32
0.0
 14
0.0
 24
0.0
 34
0.0
 15
0.0
 25
0.0
 35
0.0
146
0.0
 13
0.0
 23
0.0
 33
0.0
 16
1.0
 26
0.0
 36
0.0
 17
0.0
 27
1.0
 37
0.0
 76
     0
330
23
  0
LAYOUT
  5
22
102
{ACAD_REACTORS
330
1A
102
}
330
1A
100
AcDbPlotSettings
  1

  2
none_device
  4
ANSI_A_(11.00_x_8.50_Inches)
  6

 40
6.35
 41
19.05
 42
6.35000508
 43
19.05000254
 44
279.4
 45
215.9
 46
133.34999746
 47
106.1295003431
 48
0.0
 49
0.0
140
0.0
141
0.0
142
0.7522351969
143
1.0
 70
  1696
 72
     0
 73
     0
 74
     0
  7

 75
     0
147
0.5913241897
148
0.0
149
0.0
100
AcDbLayout
  1
Model
 70
     1
 71
     0
 10
0.0
 20
0.0
 11
12.0
 21
9.0
 12
0.0
 22
0.0
 32
0.0
 14
-6.4950787402
 24
-6.4950787402
 34
0.0
 15
6.4950787402
 25
4.6915820733
 35
0.0
146
0.0
 13
0.0
 23
0.0
 33
0.0
 16
1.0
 26
0.0
 36
0.0
 17
0.0
 27
1.0
 37
0.0
 76
     0
330
1F
331
29
  0
MLINESTYLE
  5
18
102
{ACAD_REACTORS
330
17
102
}
330
17
100
AcDbMlineStyle
  2
Standard
 70
     0
  3

 62
   256
 51
90.0
 52
90.0
 71
     2
 49
0.5
 62
   256
  6
BYLAYER
 49
-0.5
 62
   256
  6
BYLAYER
  0
ACDBPLACEHOLDER
  5
F
102
{ACAD_REACTORS
330
E
102
}
330
E
  0
SCALE
  5
E8
102
{ACAD_REACTORS
330
E7
102
}
330
E7
100
AcDbScale
 70
     0
300
1:1
140
1.0
141
1.0
290
     1
  0
SCALE
  5
E9
102
{ACAD_REACTORS
330
E7
102
}
330
E7
100
AcDbScale
 70
     0
300
1:2
140
1.0
141
2.0
290
     0
  0
SCALE
  5
EA
102
{ACAD_REACTORS
330
E7
102
}
330
E7
100
AcDbScale
 70
     0
300
1:4
140
1.0
141
4.0
290
     0
  0
SCALE
  5
EB
102
{ACAD_REACTORS
330
E7
102
}
330
E7
100
AcDbScale
 70
     0
300
1:5
140
1.0
141
5.0
290
     0
  0
SCALE
  5
EC
102
{ACAD_REACTORS
330
E7
102
}
330
E7
100
AcDbScale
 70
     0
300
1:8
140
1.0
141
8.0
290
     0
  0
SCALE
  5
ED
102
{ACAD_REACTORS
330
E7
102
}
330
E7
100
AcDbScale
 70
     0
300
1:10
140
1.0
141
10.0
290
     0
  0
SCALE
  5
EE
102
{ACAD_REACTORS
330
E7
102
}
330
E7
100
AcDbScale
 70
     0
300
1:16
140
1.0
141
16.0
290
     0
  0
SCALE
  5
EF
102
{ACAD_REACTORS
330
E7
102
}
330
E7
100
AcDbScale
 70
     0
300
1:20
140
1.0
141
20.0
290
     0
  0
SCALE
  5
F0
102
{ACAD_REACTORS
330
E7
102
}
330
E7
100
AcDbScale
 70
     0
300
1:30
140
1.0
141
30.0
290
     0
  0
SCALE
  5
F1
102
{ACAD_REACTORS
330
E7
102
}
330
E7
100
AcDbScale
 70
     0
300
1:40
140
1.0
141
40.0
290
     0
  0
SCALE
  5
F2
102
{ACAD_REACTORS
330
E7
102
}
330
E7
100
AcDbScale
 70
     0
300
1:50
140
1.0
141
50.0
290
     0
  0
SCALE
  5
F3
102
{ACAD_REACTORS
330
E7
102
}
330
E7
100
AcDbScale
 70
     0
300
1:100
140
1.0
141
100.0
290
     0
  0
SCALE
  5
F4
102
{ACAD_REACTORS
330
E7
102
}
330
E7
100
AcDbScale
 70
     0
300
2:1
140
2.0
141
1.0
290
     0
  0
SCALE
  5
F5
102
{ACAD_REACTORS
330
E7
102
}
330
E7
100
AcDbScale
 70
     0
300
4:1
140
4.0
141
1.0
290
     0
  0
SCALE
  5
F6
102
{ACAD_REACTORS
330
E7
102
}
330
E7
100
AcDbScale
 70
     0
300
8:1
140
8.0
141
1.0
290
     0
  0
SCALE
  5
F7
102
{ACAD_REACTORS
330
E7
102
}
330
E7
100
AcDbScale
 70
     0
300
10:1
140
10.0
141
1.0
290
     0
  0
SCALE
  5
F8
102
{ACAD_REACTORS
330
E7
102
}
330
E7
100
AcDbScale
 70
     0
300
100:1
140
100.0
141
1.0
290
     0
  0
SCALE
  5
F9
102
{ACAD_REACTORS
330
E7
102
}
330
E7
100
AcDbScale
 70
     0
300
1/128" = 1'-0"
140
0.0078125
141
12.0
290
     0
  0
SCALE
  5
FA
102
{ACAD_REACTORS
330
E7
102
}
330
E7
100
AcDbScale
 70
     0
300
1/64" = 1'-0"
140
0.015625
141
12.0
290
     0
  0
SCALE
  5
FB
102
{ACAD_REACTORS
330
E7
102
}
330
E7
100
AcDbScale
 70
     0
300
1/32" = 1'-0"
140
0.03125
141
12.0
290
     0
  0
SCALE
  5
FC
102
{ACAD_REACTORS
330
E7
102
}
330
E7
100
AcDbScale
 70
     0
300
1/16" = 1'-0"
140
0.0625
141
12.0
290
     0
  0
SCALE
  5
FD
102
{ACAD_REACTORS
330
E7
102
}
330
E7
100
AcDbScale
 70
     0
300
3/32" = 1'-0"
140
0.09375
141
12.0
290
     0
  0
SCALE
  5
FE
102
{ACAD_REACTORS
330
E7
102
}
330
E7
100
AcDbScale
 70
     0
300
1/8" = 1'-0"
140
0.125
141
12.0
290
     0
  0
SCALE
  5
FF
102
{ACAD_REACTORS
330
E7
102
}
330
E7
100
AcDbScale
 70
     0
300
3/16" = 1'-0"
140
0.1875
141
12.0
290
     0
  0
SCALE
  5
100
102
{ACAD_REACTORS
330
E7
102
}
330
E7
100
AcDbScale
 70
     0
300
1/4" = 1'-0"
140
0.25
141
12.0
290
     0
  0
SCALE
  5
101
102
{ACAD_REACTORS
330
E7
102
}
330
E7
100
AcDbScale
 70
     0
300
3/8" = 1'-0"
140
0.375
141
12.0
290
     0
  0
SCALE
  5
102
102
{ACAD_REACTORS
330
E7
102
}
330
E7
100
AcDbScale
 70
     0
300
1/2" = 1'-0"
140
0.5
141
12.0
290
     0
  0
SCALE
  5
103
102
{ACAD_REACTORS
330
E7
102
}
330
E7
100
AcDbScale
 70
     0
300
3/4" = 1'-0"
140
0.75
141
12.0
290
     0
  0
SCALE
  5
104
102
{ACAD_REACTORS
330
E7
102
}
330
E7
100
AcDbScale
 70
     0
300
1" = 1'-0"
140
1.0
141
12.0
290
     0
  0
SCALE
  5
105
102
{ACAD_REACTORS
330
E7
102
}
330
E7
100
AcDbScale
 70
     0
300
1-1/2" = 1'-0"
140
1.5
141
12.0
290
     0
  0
SCALE
  5
106
102
{ACAD_REACTORS
330
E7
102
}
330
E7
100
AcDbScale
 70
     0
300
3" = 1'-0"
140
3.0
141
12.0
290
     0
  0
SCALE
  5
107
102
{ACAD_REACTORS
330
E7
102
}
330
E7
100
AcDbScale
 70
     0
300
6" = 1'-0"
140
6.0
141
12.0
290
     0
  0
SCALE
  5
108
102
{ACAD_REACTORS
330
E7
102
}
330
E7
100
AcDbScale
 70
     0
300
1'-0" = 1'-0"
140
12.0
141
12.0
290
     0
  0
DICTIONARYVAR
  5
10A
102
{ACAD_REACTORS
330
109
102
}
330
109
100
DictionaryVariables
280
     0
  1
1:1
  0
ENDSEC
  0
EOF
